<svg xmlns="http://www.w3.org/2000/svg" width="30" height="30" viewBox="0 0 30 30"><defs><clipPath id="98tha"><path fill="#fff" d="M0 1a1 1 0 0 1 1-1h28a1 1 0 0 1 1 1v28a1 1 0 0 1-1 1H1a1 1 0 0 1-1-1z"/></clipPath></defs><g><g><g><path fill="#fff" d="M0 1a1 1 0 0 1 1-1h28a1 1 0 0 1 1 1v28a1 1 0 0 1-1 1H1a1 1 0 0 1-1-1z"/><path fill="none" stroke="#e1e4ec" stroke-miterlimit="50" stroke-width="2" d="M0 1a1 1 0 0 1 1-1h28a1 1 0 0 1 1 1v28a1 1 0 0 1-1 1H1a1 1 0 0 1-1-1z" clip-path="url(&quot;#98tha&quot;)"/></g><g><path fill="none" stroke="#151b3b" stroke-linecap="round" stroke-linejoin="round" stroke-miterlimit="50" stroke-width="1.5" d="M14.5 9v0h-4.278C9.547 9 9 9.597 9 10.333v9.334C9 20.403 9.547 21 10.222 21h8.556c.675 0 1.222-.597 1.222-1.333V15v0"/></g><g><path fill="none" stroke="#151b3b" stroke-linecap="round" stroke-linejoin="round" stroke-miterlimit="50" stroke-width="1.5" d="M18.692 8.396a1.352 1.352 0 1 1 1.912 1.912l-6.055 6.055v0L12 17v0l.637-2.55v0z"/></g></g></g></svg>