<?xml version="1.0" encoding="UTF-8"?>
<svg width="16px" height="16px" viewBox="0 0 16 16" version="1.1" xmlns="http://www.w3.org/2000/svg" xmlns:xlink="http://www.w3.org/1999/xlink">
    <!-- Generator: Sketch 59.1 (86144) - https://sketch.com -->
    <title>settings</title>
    <desc>Created with Sketch.</desc>
    <g id="Company-Management" stroke="none" stroke-width="1" fill="none" fill-rule="evenodd" stroke-linecap="round" stroke-linejoin="round">
        <g id="settings" transform="translate(2.500000, 2.500000)" stroke="#B4B4C5" stroke-width="1.33333333">
            <circle id="Oval" cx="5.5" cy="5.5" r="1.5"></circle>
            <path d="M9.2,7 C9.06382677,7.30854503 9.12916706,7.66890663 9.365,7.91 L9.395,7.94 C9.58277704,8.12756826 9.68828666,8.38209075 9.68828666,8.6475 C9.68828666,8.91290925 9.58277704,9.16743174 9.395,9.355 C9.20743174,9.54277704 8.95290925,9.64828666 8.6875,9.64828666 C8.42209075,9.64828666 8.16756826,9.54277704 7.98,9.355 L7.95,9.325 C7.70890663,9.08916706 7.34854503,9.02382677 7.04,9.16 C6.7377647,9.28953414 6.54131145,9.58617854 6.54,9.915 L6.54,10 C6.54,10.5522847 6.09228475,11 5.54,11 C4.98771525,11 4.54,10.5522847 4.54,10 L4.54,9.955 C4.5320783,9.61633541 4.31793589,9.31693259 4,9.2 C3.69145497,9.06382677 3.33109337,9.12916706 3.09,9.365 L3.06,9.395 C2.87243174,9.58277704 2.61790925,9.68828666 2.3525,9.68828666 C2.08709075,9.68828666 1.83256826,9.58277704 1.645,9.395 C1.45722296,9.20743174 1.35171334,8.95290925 1.35171334,8.6875 C1.35171334,8.42209075 1.45722296,8.16756826 1.645,7.98 L1.675,7.95 C1.91083294,7.70890663 1.97617323,7.34854503 1.84,7.04 C1.71046586,6.7377647 1.41382146,6.54131145 1.085,6.54 L1,6.54 C0.44771525,6.54 0,6.09228475 0,5.54 C0,4.98771525 0.44771525,4.54 1,4.54 L1.045,4.54 C1.38366459,4.5320783 1.68306741,4.31793589 1.8,4 C1.93617323,3.69145497 1.87083294,3.33109337 1.635,3.09 L1.605,3.06 C1.41722296,2.87243174 1.31171334,2.61790925 1.31171334,2.3525 C1.31171334,2.08709075 1.41722296,1.83256826 1.605,1.645 C1.79256826,1.45722296 2.04709075,1.35171334 2.3125,1.35171334 C2.57790925,1.35171334 2.83243174,1.45722296 3.02,1.645 L3.05,1.675 C3.29109337,1.91083294 3.65145497,1.97617323 3.96,1.84 L4,1.84 C4.3022353,1.71046586 4.49868855,1.41382146 4.5,1.085 L4.5,1 C4.5,0.44771525 4.94771525,0 5.5,0 C6.05228475,0 6.5,0.44771525 6.5,1 L6.5,1.045 C6.50131145,1.37382146 6.6977647,1.67046586 7,1.8 C7.30854503,1.93617323 7.66890663,1.87083294 7.91,1.635 L7.94,1.605 C8.12756826,1.41722296 8.38209075,1.31171334 8.6475,1.31171334 C8.91290925,1.31171334 9.16743174,1.41722296 9.355,1.605 C9.54277704,1.79256826 9.64828666,2.04709075 9.64828666,2.3125 C9.64828666,2.57790925 9.54277704,2.83243174 9.355,3.02 L9.325,3.05 C9.08916706,3.29109337 9.02382677,3.65145497 9.16,3.96 L9.16,4 C9.28953414,4.3022353 9.58617854,4.49868855 9.915,4.5 L10,4.5 C10.5522847,4.5 11,4.94771525 11,5.5 C11,6.05228475 10.5522847,6.5 10,6.5 L9.955,6.5 C9.62617854,6.50131145 9.32953414,6.6977647 9.2,7 Z" id="Path"></path>
        </g>
    </g>
</svg>