<svg xmlns="http://www.w3.org/2000/svg" width="30" height="30" viewBox="0 0 30 30"><defs><clipPath id="61kha"><path fill="#fff" d="M0 1a1 1 0 0 1 1-1h28a1 1 0 0 1 1 1v28a1 1 0 0 1-1 1H1a1 1 0 0 1-1-1z"/></clipPath></defs><g><g><g><path fill="#fff" d="M0 1a1 1 0 0 1 1-1h28a1 1 0 0 1 1 1v28a1 1 0 0 1-1 1H1a1 1 0 0 1-1-1z"/><path fill="none" stroke="#e1e4ec" stroke-miterlimit="50" stroke-width="2" d="M0 1a1 1 0 0 1 1-1h28a1 1 0 0 1 1 1v28a1 1 0 0 1-1 1H1a1 1 0 0 1-1-1z" clip-path="url(&quot;#61kha&quot;)"/></g></g><g><g><path fill="none" stroke="#151b3b" stroke-linecap="round" stroke-linejoin="round" stroke-miterlimit="50" stroke-width="1.33" d="M9 10.663v0h1.333v0H21v0"/></g><g><path fill="none" stroke="#151b3b" stroke-linecap="round" stroke-linejoin="round" stroke-miterlimit="50" stroke-width="1.33" d="M17.661 10.667V9.333c0-.736-.596-1.333-1.332-1.333h-2.665c-.735 0-1.332.597-1.332 1.333v1.334m-2.002 0v9.324c0 .736.597 1.332 1.333 1.332h6.667c.736 0 1.333-.596 1.333-1.332v-9.324"/></g><g><path fill="none" stroke="#151b3b" stroke-linecap="round" stroke-linejoin="round" stroke-miterlimit="50" stroke-width="1.33" d="M13.663 14v4"/></g><g><path fill="none" stroke="#151b3b" stroke-linecap="round" stroke-linejoin="round" stroke-miterlimit="50" stroke-width="1.33" d="M16.333 14v4"/></g></g></g></svg>