<?xml version="1.0" encoding="UTF-8"?>
<svg width="16px" height="16px" viewBox="0 0 16 16" version="1.1" xmlns="http://www.w3.org/2000/svg" xmlns:xlink="http://www.w3.org/1999/xlink">
    <!-- Generator: Sketch 59.1 (86144) - https://sketch.com -->
    <title>calendar (1)</title>
    <desc>Created with Sketch.</desc>
    <g id="Documents" stroke="none" stroke-width="1" fill="none" fill-rule="evenodd">
        <g id="calendar-(1)" transform="translate(1.500000, 1.000000)" fill="#8A8F95" fill-rule="nonzero">
            <path d="M10.7777778,1.61111111 L2.22222222,1.61111111 C1.20970018,1.61111111 0.388888889,2.4319224 0.388888889,3.44444444 L0.388888889,12 C0.388888889,13.012522 1.20970018,13.8333333 2.22222222,13.8333333 L10.7777778,13.8333333 C11.7902998,13.8333333 12.6111111,13.012522 12.6111111,12 L12.6111111,3.44444444 C12.6111111,2.4319224 11.7902998,1.61111111 10.7777778,1.61111111 Z M2.22222222,2.83333333 L10.7777778,2.83333333 C11.1152851,2.83333333 11.3888889,3.1069371 11.3888889,3.44444444 L11.3888889,12 C11.3888889,12.3375073 11.1152851,12.6111111 10.7777778,12.6111111 L2.22222222,12.6111111 C1.88471488,12.6111111 1.61111111,12.3375073 1.61111111,12 L1.61111111,3.44444444 C1.61111111,3.1069371 1.88471488,2.83333333 2.22222222,2.83333333 Z" id="Rectangle"></path>
            <path d="M8.94444444,0.388888889 C9.25784412,0.388888889 9.51614326,0.624802338 9.55144416,0.928731534 L9.55555556,1 L9.55555556,3.44444444 C9.55555556,3.78195179 9.28195179,4.05555556 8.94444444,4.05555556 C8.63104476,4.05555556 8.37274562,3.81964211 8.33744472,3.51571291 L8.33333333,3.44444444 L8.33333333,1 C8.33333333,0.662492653 8.6069371,0.388888889 8.94444444,0.388888889 Z" id="Path"></path>
            <path d="M4.05555556,0.388888889 C4.36895524,0.388888889 4.62725438,0.624802338 4.66255528,0.928731534 L4.66666667,1 L4.66666667,3.44444444 C4.66666667,3.78195179 4.3930629,4.05555556 4.05555556,4.05555556 C3.74215588,4.05555556 3.48385674,3.81964211 3.44855584,3.51571291 L3.44444444,3.44444444 L3.44444444,1 C3.44444444,0.662492653 3.71804821,0.388888889 4.05555556,0.388888889 Z" id="Path"></path>
            <path d="M12,5.27777778 C12.3375073,5.27777778 12.6111111,5.55138154 12.6111111,5.88888889 C12.6111111,6.20228857 12.3751977,6.46058771 12.0712685,6.49588861 L12,6.5 L1,6.5 C0.662492653,6.5 0.388888889,6.22639624 0.388888889,5.88888889 C0.388888889,5.57548921 0.624802338,5.31719007 0.928731534,5.28188917 L1,5.27777778 L12,5.27777778 Z" id="Path"></path>
        </g>
    </g>
</svg>