<svg xmlns="http://www.w3.org/2000/svg" width="19" height="16" viewBox="0 0 19 16"><g><g><g><path fill="#7c8c97" d="M9.184 4.318a2.144 2.144 0 1 0 0-4.288 2.144 2.144 0 0 0 0 4.288z"/></g><g><path fill="#7c8c97" d="M9.217 15.172c-1.48 0-2.867-.373-3.902-1.054a4.11 4.11 0 0 1-.884-.766l.485-.101a1.638 1.638 0 0 0 1.265-1.933l-.45-2.156c.263-.141.539-.265.832-.37v.393c0 .897.734 1.633 1.633 1.633h2.044c.896 0 1.63-.736 1.63-1.633V8.77c.3.107.58.229.84.367l-.456 2.18a1.64 1.64 0 0 0 1.266 1.934l.49.102c-.913 1.08-2.719 1.818-4.793 1.818zm7.472-7.1l-1.998-.417a1.636 1.636 0 0 0-1.709.725 7.354 7.354 0 0 0-1.11-.457V6.734c0-.899-.736-1.634-1.632-1.634H8.197c-.9 0-1.633.735-1.633 1.634V7.93c-.391.124-.758.277-1.106.455a1.637 1.637 0 0 0-1.71-.729l-2 .417a1.64 1.64 0 0 0-1.264 1.936l.502 2.397a1.638 1.638 0 0 0 1.932 1.265l.633-.132c.317.468.755.897 1.316 1.264 1.169.766 2.712 1.189 4.35 1.189 2.507 0 4.666-1.008 5.66-2.456l.644.135a1.638 1.638 0 0 0 1.93-1.265l.504-2.397a1.642 1.642 0 0 0-1.266-1.936z"/></g><g><path fill="#7c8c97" d="M16.254 7.138a2.144 2.144 0 1 0 0-4.288 2.144 2.144 0 0 0 0 4.288z"/></g><g><path fill="#7c8c97" d="M2.624 7.094a2.148 2.148 0 0 0 1.661-2.539 2.146 2.146 0 0 0-2.54-1.66 2.144 2.144 0 1 0 .879 4.2z"/></g></g></g></svg>