<svg xmlns="http://www.w3.org/2000/svg" width="14" height="15" viewBox="0 0 14 15"><g><g><g><path fill="#485cc7" d="M4.944 2.013v3.43H1.513v-3.43zM5.63.64H.826a.686.686 0 0 0-.686.686V6.13c0 .38.307.686.686.686H5.63a.686.686 0 0 0 .686-.686V1.326A.686.686 0 0 0 5.63.64z"/></g><g><path fill="#485cc7" d="M12.494 2.013v3.43H9.063v-3.43zM13.18.64H8.376a.686.686 0 0 0-.686.686V6.13c0 .38.307.686.686.686h4.804a.686.686 0 0 0 .686-.686V1.326A.686.686 0 0 0 13.18.64z"/></g><g><path fill="#485cc7" d="M12.494 9.563v3.43H9.063v-3.43zm.686-1.373H8.376a.686.686 0 0 0-.686.686v4.804c0 .38.307.686.686.686h4.804a.686.686 0 0 0 .686-.686V8.876a.686.686 0 0 0-.686-.686z"/></g><g><path fill="#485cc7" d="M4.944 9.563v3.43H1.513v-3.43zM5.63 8.19H.826a.686.686 0 0 0-.686.686v4.804c0 .38.307.686.686.686H5.63a.686.686 0 0 0 .686-.686V8.876a.686.686 0 0 0-.686-.686z"/></g></g></g></svg>