<?xml version="1.0" encoding="utf-8"?>
<!-- Generator: Adobe Illustrator 19.0.0, SVG Export Plug-In . SVG Version: 6.00 Build 0)  -->
<svg version="1.1" id="Layer_1" xmlns="http://www.w3.org/2000/svg" xmlns:xlink="http://www.w3.org/1999/xlink" x="0px" y="0px"
	 viewBox="-397 279.3 46 22.3" style="enable-background:new -397 279.3 46 22.3;" xml:space="preserve">
<style type="text/css">
	.st0{fill:#FFFFFF;}
	.st1{filter:url(#lofld);}
	.st2{opacity:0.1;fill:#D2301C;}
	.st3{fill:#F9E9E7;}
	.st4{clip-path:url(#SVGID_2_);}
	.st5{fill:#FFFFFF;fill-opacity:0;stroke:#D2301C;stroke-width:2;stroke-miterlimit:50;}
	.st6{filter:url(#loflg);}
	.st7{fill:#EDF0F8;}
	.st8{fill:#D2301C;}
</style>
<filter  height="68" width="60" id="loflg" filterUnits="userSpaceOnUse" y="247" x="270">
	<feOffset  result="FeOffset1255Out" in="SourceGraphic" dy="8"></feOffset>
	<feGaussianBlur  stdDeviation="6.4 6.4" result="FeGaussianBlur1256Out" in="FeOffset1255Out"></feGaussianBlur>
</filter>
<filter  height="80" width="72" id="lofld" filterUnits="userSpaceOnUse" y="241" x="264">
	<feOffset  result="FeOffset1236Out" in="SourceGraphic" dy="8"></feOffset>
	<feGaussianBlur  stdDeviation="6.4 6.4" result="FeGaussianBlur1237Out" in="FeOffset1236Out"></feGaussianBlur>
</filter>
<path class="st0" d="M-101,548.4h8v8h-8V548.4z"/>
<g>
	<path id="loflc" d="M-101,550.4c0-1.1,0.9-2,2-2h4c1.1,0,2,0.9,2,2v4c0,1.1-0.9,2-2,2h-4c-1.1,0-2-0.9-2-2V550.4z"/>
</g>
<path class="st0" d="M-107,542.4h20v20h-20V542.4z"/>
<g>
	<path id="lofla" d="M-107,548.4c0-3.3,2.7-6,6-6h8c3.3,0,6,2.7,6,6v8c0,3.3-2.7,6-6,6h-8c-3.3,0-6-2.7-6-6V548.4z"/>
</g>
<g>
	<g transform="translate(-277 -262)">
		<g>
			<g class="st1">
				<g>
					<g id="lofla_5_">
						<path class="st2" d="M-107,548.4c0-3.3,2.7-6,6-6h8c3.3,0,6,2.7,6,6v8c0,3.3-2.7,6-6,6h-8c-3.3,0-6-2.7-6-6V548.4z"/>
					</g>
				</g>
			</g>
			<g>
				<path id="lofla_3_" class="st3" d="M-107,548.4c0-3.3,2.7-6,6-6h8c3.3,0,6,2.7,6,6v8c0,3.3-2.7,6-6,6h-8c-3.3,0-6-2.7-6-6V548.4
					z"/>
			</g>
			<g>
				<defs>
					<path id="SVGID_1_" d="M-108,563.4v-22h22v22H-108z M-107,556.4c0,3.3,2.7,6,6,6h8c3.3,0,6-2.7,6-6v-8c0-3.3-2.7-6-6-6h-8
						c-3.3,0-6,2.7-6,6V556.4z"/>
				</defs>
				<clipPath id="SVGID_2_">
					<use xlink:href="#SVGID_1_"  style="overflow:visible;"/>
				</clipPath>
				<g class="st4">
					<path id="lofla_4_" class="st5" d="M-107,548.4c0-3.3,2.7-6,6-6h8c3.3,0,6,2.7,6,6v8c0,3.3-2.7,6-6,6h-8c-3.3,0-6-2.7-6-6
						V548.4z"/>
				</g>
			</g>
		</g>
		<g>
			<g class="st6">
				<g>
					<path id="loflc_4_" class="st7" d="M-101,550.4c0-1.1,0.9-2,2-2h4c1.1,0,2,0.9,2,2v4c0,1.1-0.9,2-2,2h-4c-1.1,0-2-0.9-2-2
						V550.4z"/>
				</g>
			</g>
			<g>
				<path id="loflc_3_" class="st8" d="M-101,550.4c0-1.1,0.9-2,2-2h4c1.1,0,2,0.9,2,2v4c0,1.1-0.9,2-2,2h-4c-1.1,0-2-0.9-2-2V550.4
					z"/>
			</g>
		</g>
	</g>
</g>
</svg>
