<svg xmlns="http://www.w3.org/2000/svg" xmlns:xlink="http://www.w3.org/1999/xlink" width="16" height="16" viewBox="0 0 16 16"><defs><path id="5fjqa" d="M41.393 362c0 .92-.282 1.774-.763 2.48l2.56 2.561a7.965 7.965 0 0 0 1.79-5.04c0-1.911-.671-3.665-1.79-5.041l-2.56 2.56c.481.707.763 1.56.763 2.48z"/><path id="5fjqb" d="M39.458 365.653a4.413 4.413 0 0 1-6.814-2.823H29.02a8.001 8.001 0 0 0 12.998 5.383z"/><path id="5fjqc" d="M32.644 361.172a4.413 4.413 0 0 1 6.814-2.822l2.56-2.56a8 8 0 0 0-12.998 5.383z"/></defs><g><g transform="translate(-29 -354)"><g><use fill="#7c8c97" xlink:href="#5fjqa"/></g><g><use fill="#7c8c97" xlink:href="#5fjqb"/></g><g><use fill="#7c8c97" xlink:href="#5fjqc"/></g></g></g></svg>