<svg xmlns="http://www.w3.org/2000/svg" xmlns:xlink="http://www.w3.org/1999/xlink" width="17" height="20" viewBox="0 0 17 20"><defs><path id="4q07a" d="M1236.637 48.87l-1.43-2.386a7.084 7.084 0 0 1-1.01-3.645V40.75a5.84 5.84 0 0 0-4.168-5.588v-1.495c0-.92-.747-1.667-1.666-1.667-.92 0-1.667.748-1.667 1.667v1.495a5.84 5.84 0 0 0-4.167 5.588v2.09c0 1.282-.349 2.542-1.009 3.643l-1.43 2.385a.416.416 0 0 0 .356.632h15.833a.418.418 0 0 0 .358-.63z"/><path id="4q07b" d="M1225.73 50.33a2.913 2.913 0 0 0 2.624 1.667c1.16 0 2.154-.685 2.624-1.667h-5.248z"/></defs><g><g transform="translate(-1220 -32)"><g><use fill="#989a9d" xlink:href="#4q07a"/></g><g><use fill="#989a9d" xlink:href="#4q07b"/></g></g></g></svg>