<svg xmlns="http://www.w3.org/2000/svg" xmlns:xlink="http://www.w3.org/1999/xlink" width="22" height="20" viewBox="0 0 22 20"><defs><path id="kpx3a" d="M977.282 226.025a.268.268 0 0 1-.126.197.49.49 0 0 1-.283.078h-2.226a.52.52 0 0 1-.289-.078c-.08-.052-.12-.117-.12-.197l-.205-5.476c0-.112.04-.196.12-.252.105-.088.201-.132.29-.132h2.646c.089 0 .185.044.29.132.08.056.12.132.12.228zm.014 4.49a.382.382 0 0 1-.113.28.369.369 0 0 1-.27.114h-2.304a.369.369 0 0 1-.27-.114.38.38 0 0 1-.114-.28v-2.274c0-.111.038-.205.114-.28a.369.369 0 0 1 .27-.114h2.303c.104 0 .194.037.27.113.076.076.114.17.114.281v2.273zm9.021 1.2l-9.213-16.891a1.53 1.53 0 0 0-2.123-.588c-.24.144-.428.34-.564.588l-9.213 16.89c-.28.504-.272 1.008.024 1.512.136.232.322.416.558.552a1.5 1.5 0 0 0 .762.204h18.425a1.5 1.5 0 0 0 .762-.204c.236-.136.422-.32.558-.552.296-.504.304-1.008.024-1.512z"/></defs><g><g transform="translate(-965 -214)"><g><use fill="#d2301c" xlink:href="#kpx3a"/></g></g></g></svg>