<svg xmlns="http://www.w3.org/2000/svg" xmlns:xlink="http://www.w3.org/1999/xlink" width="15" height="13" viewBox="0 0 15 13"><defs><path id="5uhta" d="M44.469 162.466v2.143c0 .145-.053.27-.16.376a.515.515 0 0 1-.376.16H31.076a.515.515 0 0 1-.377-.16.515.515 0 0 1-.159-.376v-2.143c0-.145.053-.27.159-.377a.515.515 0 0 1 .377-.159h12.857c.145 0 .27.053.377.159a.515.515 0 0 1 .159.377zm-.546 3.75v8.035c0 .146-.053.271-.16.377a.514.514 0 0 1-.375.16H31.61a.514.514 0 0 1-.376-.16.515.515 0 0 1-.16-.377v-8.035c0-.145.054-.27.16-.377a.514.514 0 0 1 .376-.159h11.777c.145 0 .27.053.376.159a.515.515 0 0 1 .159.377zm-4.97 1.984a.515.515 0 0 0 .158-.377.515.515 0 0 0-.159-.377.515.515 0 0 0-.376-.159h-2.143a.515.515 0 0 0-.377.16.515.515 0 0 0-.159.376c0 .145.053.27.16.377a.515.515 0 0 0 .376.159h2.143c.145 0 .27-.053.376-.16z"/></defs><g><g transform="translate(-30 -162)"><use fill="#7c8c97" xlink:href="#5uhta"/></g></g></svg>