<svg xmlns="http://www.w3.org/2000/svg" xmlns:xlink="http://www.w3.org/1999/xlink" width="16" height="12" viewBox="0 0 16 12"><defs><path id="td28a" d="M33.537 263.38h-2.72c-.228 0-.42.08-.579.238a.787.787 0 0 0-.238.578v1.633c0 .226.08.419.238.577a.787.787 0 0 0 .578.238h2.72c.227 0 .42-.079.579-.238a.786.786 0 0 0 .238-.577v-1.633c0-.227-.08-.42-.238-.578a.787.787 0 0 0-.578-.238z"/><path id="td28b" d="M33.537 259.02h-2.72c-.228 0-.42.08-.579.238a.787.787 0 0 0-.238.578v1.632c0 .227.08.42.238.579a.787.787 0 0 0 .578.238h2.72c.227 0 .42-.08.579-.238a.787.787 0 0 0 .238-.578v-1.633c0-.226-.08-.42-.238-.578a.787.787 0 0 0-.578-.238z"/><path id="td28c" d="M33.537 267.73h-2.72c-.228 0-.42.08-.579.238a.787.787 0 0 0-.238.578v1.633c0 .226.08.42.238.578a.787.787 0 0 0 .578.238h2.72c.227 0 .42-.08.579-.238a.787.787 0 0 0 .238-.578v-1.633c0-.227-.08-.42-.238-.578a.787.787 0 0 0-.578-.238z"/><path id="td28d" d="M44.417 263.38h-8.16c-.228 0-.42.08-.579.238a.787.787 0 0 0-.238.578v1.633c0 .226.08.419.238.577a.787.787 0 0 0 .578.238h8.162c.226 0 .419-.079.578-.238a.786.786 0 0 0 .238-.577v-1.633c0-.227-.08-.42-.239-.578a.787.787 0 0 0-.578-.238z"/><path id="td28e" d="M44.417 267.73h-8.16c-.228 0-.42.08-.579.238a.787.787 0 0 0-.238.578v1.632c0 .227.08.42.238.579a.787.787 0 0 0 .578.237h8.162c.226 0 .419-.079.578-.237a.787.787 0 0 0 .238-.579v-1.632c0-.227-.08-.42-.239-.578a.787.787 0 0 0-.578-.238z"/><path id="td28f" d="M44.995 259.258a.787.787 0 0 0-.578-.238h-8.16c-.228 0-.42.08-.579.238a.787.787 0 0 0-.238.578v1.632c0 .227.08.42.238.579a.787.787 0 0 0 .578.238h8.162c.226 0 .419-.08.578-.238a.786.786 0 0 0 .238-.579v-1.632c0-.227-.08-.42-.239-.578z"/></defs><g><g transform="translate(-30 -259)"><g><use fill="#7c8c97" xlink:href="#td28a"/></g><g><use fill="#7c8c97" xlink:href="#td28b"/></g><g><use fill="#7c8c97" xlink:href="#td28c"/></g><g><use fill="#7c8c97" xlink:href="#td28d"/></g><g><use fill="#7c8c97" xlink:href="#td28e"/></g><g><use fill="#7c8c97" xlink:href="#td28f"/></g></g></g></svg>