<svg xmlns="http://www.w3.org/2000/svg" xmlns:xlink="http://www.w3.org/1999/xlink" width="18" height="18" viewBox="0 0 18 18"><defs><path id="vw2ba" d="M981.82 302.62l-6.356 6.357a.733.733 0 0 1-.539.223.72.72 0 0 1-.527-.223l-4.237-4.237a.715.715 0 0 1-.211-.527.73.73 0 0 1 .21-.539l1.066-1.053a.72.72 0 0 1 .527-.223.72.72 0 0 1 .527.223l2.645 2.645 4.776-4.764a.72.72 0 0 1 .527-.223.72.72 0 0 1 .527.223l1.065 1.054c.141.14.211.32.211.538 0 .21-.07.386-.21.527zm1.955-3.142a8.953 8.953 0 0 0-3.272-3.272 8.794 8.794 0 0 0-4.512-1.206 8.794 8.794 0 0 0-4.513 1.206 8.95 8.95 0 0 0-3.272 3.272A8.794 8.794 0 0 0 967 303.99c0 1.632.402 3.136 1.206 4.513a8.953 8.953 0 0 0 3.272 3.272 8.795 8.795 0 0 0 4.513 1.206 8.795 8.795 0 0 0 4.512-1.206 8.95 8.95 0 0 0 3.272-3.272 8.796 8.796 0 0 0 1.206-4.513 8.796 8.796 0 0 0-1.206-4.512z"/></defs><g><g transform="translate(-967 -295)"><g><use fill="#989a9d" xlink:href="#vw2ba"/></g></g></g></svg>