<svg xmlns="http://www.w3.org/2000/svg" xmlns:xlink="http://www.w3.org/1999/xlink" width="14" height="14" viewBox="0 0 14 14"><defs><path id="aarsa" d="M37.005 411.332a2.333 2.333 0 0 1-2.333-2.328 2.333 2.333 0 0 1 4.666 0 2.333 2.333 0 0 1-2.333 2.328zm6.939-3.115c-.022-.196-.252-.344-.45-.344-.64 0-1.21-.376-1.448-.958a1.558 1.558 0 0 1 .391-1.73.388.388 0 0 0 .042-.527 6.92 6.92 0 0 0-1.107-1.12.39.39 0 0 0-.532.044c-.417.461-1.166.633-1.744.392a1.554 1.554 0 0 1-.945-1.519.388.388 0 0 0-.343-.408 6.982 6.982 0 0 0-1.574-.005.39.39 0 0 0-.346.4 1.556 1.556 0 0 1-.958 1.493c-.571.233-1.315.063-1.731-.394a.39.39 0 0 0-.528-.045c-.419.33-.8.706-1.131 1.119a.39.39 0 0 0 .041.531 1.55 1.55 0 0 1 .392 1.745c-.242.575-.839.946-1.522.946a.38.38 0 0 0-.404.343 7.006 7.006 0 0 0-.003 1.59c.022.198.258.345.458.345a1.534 1.534 0 0 1 1.44.958c.244.596.087 1.29-.392 1.73a.389.389 0 0 0-.042.526c.325.414.698.791 1.106 1.12.16.129.394.11.533-.042.418-.463 1.167-.634 1.743-.393.604.253.984.863.946 1.518a.388.388 0 0 0 .344.409 6.95 6.95 0 0 0 1.573.004.39.39 0 0 0 .346-.4 1.554 1.554 0 0 1 .957-1.492c.576-.235 1.316-.063 1.732.394a.39.39 0 0 0 .528.044 6.962 6.962 0 0 0 1.132-1.118.388.388 0 0 0-.042-.532 1.55 1.55 0 0 1-.392-1.744 1.566 1.566 0 0 1 1.43-.949l.087.003a.39.39 0 0 0 .41-.343 7 7 0 0 0 .003-1.59z"/></defs><g><g transform="translate(-30 -402)"><g><use fill="#7c8c97" xlink:href="#aarsa"/></g></g></g></svg>