<svg xmlns="http://www.w3.org/2000/svg" xmlns:xlink="http://www.w3.org/1999/xlink" width="13" height="16" viewBox="0 0 13 16"><defs><path id="pmi3a" d="M39.35 305.31v3.86h3.86z"/><path id="pmi3b" d="M40.914 313.679h-7.29a.52.52 0 0 1 0-1.042h7.29a.52.52 0 0 1 0 1.042zm0 2.083h-7.29a.52.52 0 0 1 0-1.042h7.29a.52.52 0 0 1 0 1.042zm-3.125 2.082h-4.165a.52.52 0 0 1 0-1.041h4.165a.52.52 0 0 1 0 1.041zm1.042-7.637a.52.52 0 0 1-.52-.52V305h-6.77a.52.52 0 0 0-.521.52v14.928c0 .288.233.52.52.52h11.457a.52.52 0 0 0 .52-.52v-10.24z"/></defs><g><g transform="translate(-31 -305)"><g><use fill="#7c8c97" xlink:href="#pmi3a"/></g><g><use fill="#7c8c97" xlink:href="#pmi3b"/></g></g></g></svg>