<svg xmlns="http://www.w3.org/2000/svg" width="15" height="4" viewBox="0 0 15 4"><g><g><g><path fill="#151e2b" d="M7.728 2.952a.816.816 0 1 0 0-1.632.816.816 0 0 0 0 1.632z"/><path fill="none" stroke="#151b3b" stroke-linecap="round" stroke-linejoin="round" stroke-miterlimit="50" stroke-width="1.5" d="M7.728 2.952a.816.816 0 1 0 0-1.632.816.816 0 0 0 0 1.632z"/></g><g><path fill="#151e2b" d="M13.44 2.952a.816.816 0 1 0 0-1.632.816.816 0 0 0 0 1.632z"/><path fill="none" stroke="#151b3b" stroke-linecap="round" stroke-linejoin="round" stroke-miterlimit="50" stroke-width="1.5" d="M13.44 2.952a.816.816 0 1 0 0-1.632.816.816 0 0 0 0 1.632z"/></g><g><path fill="#151e2b" d="M2.016 2.952a.816.816 0 1 0 0-1.632.816.816 0 0 0 0 1.632z"/><path fill="none" stroke="#151b3b" stroke-linecap="round" stroke-linejoin="round" stroke-miterlimit="50" stroke-width="1.5" d="M2.016 2.952a.816.816 0 1 0 0-1.632.816.816 0 0 0 0 1.632z"/></g></g></g></svg>