<svg xmlns="http://www.w3.org/2000/svg" width="31" height="30" viewBox="0 0 31 30"><g><g opacity=".5"><path fill="#e8e9ea" d="M15.5 30c8.284 0 15-6.716 15-15 0-8.284-6.716-15-15-15C7.216 0 .5 6.716.5 15c0 8.284 6.716 15 15 15z"/></g><g><g><path fill="#485cc7" d="M9.9 8.4h3.125l1.193 1.788a.7.7 0 0 0 .582.312h6.3a.7.7 0 0 1 .7.7v7.7a.7.7 0 0 1-.7.7H9.9a.7.7 0 0 1-.7-.7V9.1a.7.7 0 0 1 .7-.7zM13.4 7H9.9a2.1 2.1 0 0 0-2.1 2.1v9.8c0 1.16.94 2.1 2.1 2.1h11.2a2.1 2.1 0 0 0 2.1-2.1v-7.7l-.004-.123A2.1 2.1 0 0 0 21.1 9.1h-5.926l-1.192-1.788A.7.7 0 0 0 13.4 7z"/></g></g></g></svg>