<svg xmlns="http://www.w3.org/2000/svg" width="31" height="30" viewBox="0 0 31 30"><g><g opacity=".5"><path fill="#e8e9ea" d="M15.5 30c8.284 0 15-6.716 15-15 0-8.284-6.716-15-15-15C7.216 0 .5 6.716.5 15c0 8.284 6.716 15 15 15z"/></g><g><g><path fill="#485cc7" d="M21.999 10.21a.684.684 0 0 1 .08 1.364l-.08.004h-8.895a.684.684 0 0 1-.08-1.363l.08-.005z"/></g><g><path fill="#485cc7" d="M21.999 14.32a.684.684 0 0 1 .08 1.364l-.08.004h-8.895a.684.684 0 0 1-.08-1.363l.08-.005z"/></g><g><path fill="#485cc7" d="M21.999 18.42a.684.684 0 0 1 .08 1.364l-.08.004h-8.895a.684.684 0 0 1-.08-1.363l.08-.005z"/></g><g><path fill="#485cc7" d="M9.691 10.21a.684.684 0 0 1 .08 1.364l-.08.004a.684.684 0 1 1-.087-1.364z"/></g><g><path fill="#485cc7" d="M9.691 14.32a.684.684 0 0 1 .08 1.364l-.08.004a.684.684 0 1 1-.087-1.364z"/></g><g><path fill="#485cc7" d="M9.691 18.42a.684.684 0 0 1 .08 1.364l-.08.004a.684.684 0 1 1-.087-1.364z"/></g></g></g></svg>