<svg xmlns="http://www.w3.org/2000/svg" width="357" height="277" viewBox="0 0 357 277"><defs><mask id="ihlqb" width="2" height="2" x="-1" y="-1"><path fill="#fff" d="M11 11h108v267H11z"/><path d="M11 11h108v267H11z"/></mask><filter id="ihlqa" width="172" height="331" x="-19" y="-19" filterUnits="userSpaceOnUse"><feOffset dx="4" dy="4" in="SourceGraphic" result="FeOffset1041Out"/><feGaussianBlur in="FeOffset1041Out" result="FeGaussianBlur1042Out" stdDeviation="8 8"/></filter><clipPath id="ihlqc"><path fill="#fff" d="M11 11h108v267H11z"/></clipPath><mask id="ihlqe" width="2" height="2" x="-1" y="-1"><path fill="#fff" d="M124 11h214v267H124z"/><path d="M124 11h214v267H124z"/></mask><filter id="ihlqd" width="278" height="331" x="94" y="-19" filterUnits="userSpaceOnUse"><feOffset dx="4" dy="4" in="SourceGraphic" result="FeOffset1060Out"/><feGaussianBlur in="FeOffset1060Out" result="FeGaussianBlur1061Out" stdDeviation="8 8"/></filter><clipPath id="ihlqf"><path fill="#fff" d="M124 11h214v267H124z"/></clipPath><clipPath id="ihlqg"><path fill="#fff" d="M26 84h78v16H26z"/></clipPath><clipPath id="ihlqh"><path fill="#fff" d="M26 143h78v16H26z"/></clipPath><clipPath id="ihlqi"><path fill="#fff" d="M139 65h184v65H139z"/></clipPath><clipPath id="ihlqj"><path fill="#fff" d="M26 164h78v16H26z"/></clipPath><clipPath id="ihlqk"><path fill="#fff" d="M26 185h78v16H26z"/></clipPath></defs><g><g clip-path="url(#clip-5E2A5D67-3974-4ED1-AB90-72C0DA401235)"><g><g filter="url(#ihlqa)"><path fill="none" d="M11 11h108v267H11z" mask="url(&quot;#ihlqb&quot;)"/><path fill-opacity=".1" d="M11 11h108v267H11z"/></g><path fill="#fff" d="M11 11h108v267H11z"/><path fill="none" stroke="#979797" stroke-miterlimit="50" stroke-opacity=".1" stroke-width="2" d="M11 11v0h108v267H11v0z" clip-path="url(&quot;#ihlqc&quot;)"/></g><g><g filter="url(#ihlqd)"><path fill="none" d="M124 11h214v267H124z" mask="url(&quot;#ihlqe&quot;)"/><path fill-opacity=".1" d="M124 11h214v267H124z"/></g><path fill="#fff" d="M124 11h214v267H124z"/><path fill="none" stroke="#979797" stroke-miterlimit="50" stroke-opacity=".1" stroke-width="2" d="M124 11v0h214v267H124v0z" clip-path="url(&quot;#ihlqf&quot;)"/></g><g><path fill="none" stroke="#e8e9ea" stroke-linecap="square" stroke-miterlimit="50" d="M11.445 53l108.055-.5"/></g><g><path fill="none" stroke="#e8e9ea" stroke-linecap="square" stroke-miterlimit="50" d="M139.503 247.5h184"/></g><g><path fill="none" stroke="#e8e9ea" stroke-linecap="square" stroke-miterlimit="50" d="M149.5 146.5v101"/></g><g><path fill="#485cc7" d="M28 51h20v2H28z"/></g><g><path fill="#e6e6e6" d="M26 130a7 7 0 0 1 7-7h64a7 7 0 0 1 0 14H33a7 7 0 0 1-7-7z"/></g><g><path fill="#e6e6e6" d="M26 72a7 7 0 0 1 7-7h64a7 7 0 0 1 0 14H33a7 7 0 0 1-7-7z"/></g><g><path fill="#e6e6e6" d="M26 33a7 7 0 0 1 7-7h64a7 7 0 0 1 0 14H33a7 7 0 0 1-7-7z"/></g><g><path fill="#e6e6e6" d="M139 37a7 7 0 0 1 7-7h64a7 7 0 0 1 0 14h-64a7 7 0 0 1-7-7z"/></g><g><path fill="#e6e6e6" d="M139 52a3 3 0 0 1 3-3h126a3 3 0 0 1 3 3v1a3 3 0 0 1-3 3H142a3 3 0 0 1-3-3z"/></g><g><path fill="#e6e6e6" d="M144 73a3 3 0 0 1 3-3h49a3 3 0 0 1 3 3v1a3 3 0 0 1-3 3h-49a3 3 0 0 1-3-3z"/></g><g><path fill="#e6e6e6" d="M144 97a3 3 0 0 1 3-3h49a3 3 0 0 1 3 3v1a3 3 0 0 1-3 3h-49a3 3 0 0 1-3-3z"/></g><g><path fill="#e6e6e6" d="M144 85a3 3 0 0 1 3-3h49a3 3 0 0 1 3 3v1a3 3 0 0 1-3 3h-49a3 3 0 0 1-3-3z"/></g><g><path fill="#e6e6e6" d="M144 109a3 3 0 0 1 3-3h49a3 3 0 0 1 3 3v1a3 3 0 0 1-3 3h-49a3 3 0 0 1-3-3z"/></g><g><path fill="#e6e6e6" d="M144 121a3 3 0 0 1 3-3h49a3 3 0 0 1 3 3v1a3 3 0 0 1-3 3h-49a3 3 0 0 1-3-3z"/></g><g><path fill="#e6e6e6" d="M204 73a3 3 0 0 1 3-3h48a3 3 0 0 1 3 3v1a3 3 0 0 1-3 3h-48a3 3 0 0 1-3-3z"/></g><g><path fill="#e6e6e6" d="M204 97a3 3 0 0 1 3-3h48a3 3 0 0 1 3 3v1a3 3 0 0 1-3 3h-48a3 3 0 0 1-3-3z"/></g><g><path fill="#e6e6e6" d="M204 85a3 3 0 0 1 3-3h48a3 3 0 0 1 3 3v1a3 3 0 0 1-3 3h-48a3 3 0 0 1-3-3z"/></g><g><path fill="#e6e6e6" d="M204 109a3 3 0 0 1 3-3h48a3 3 0 0 1 3 3v1a3 3 0 0 1-3 3h-48a3 3 0 0 1-3-3z"/></g><g><path fill="#e6e6e6" d="M204 121a3 3 0 0 1 3-3h48a3 3 0 0 1 3 3v1a3 3 0 0 1-3 3h-48a3 3 0 0 1-3-3z"/></g><g><path fill="#e6e6e6" d="M263 73a3 3 0 0 1 3-3h49a3 3 0 0 1 3 3v1a3 3 0 0 1-3 3h-49a3 3 0 0 1-3-3z"/></g><g><path fill="#e6e6e6" d="M263 97a3 3 0 0 1 3-3h49a3 3 0 0 1 3 3v1a3 3 0 0 1-3 3h-49a3 3 0 0 1-3-3z"/></g><g><path fill="#e6e6e6" d="M263 85a3 3 0 0 1 3-3h49a3 3 0 0 1 3 3v1a3 3 0 0 1-3 3h-49a3 3 0 0 1-3-3z"/></g><g><path fill="#e6e6e6" d="M263 109a3 3 0 0 1 3-3h49a3 3 0 0 1 3 3v1a3 3 0 0 1-3 3h-49a3 3 0 0 1-3-3z"/></g><g><path fill="#e6e6e6" d="M263 121a3 3 0 0 1 3-3h49a3 3 0 0 1 3 3v1a3 3 0 0 1-3 3h-49a3 3 0 0 1-3-3z"/></g><g><path fill="none" stroke="#e6e6e6" stroke-miterlimit="50" stroke-width="2" d="M26 84v0h78v16H26v0z" clip-path="url(&quot;#ihlqg&quot;)"/></g><g><path fill="none" stroke="#e6e6e6" stroke-miterlimit="50" stroke-width="2" d="M26 143v0h78v16H26v0z" clip-path="url(&quot;#ihlqh&quot;)"/></g><g><path fill="none" stroke="#e6e6e6" stroke-miterlimit="50" stroke-width="2" d="M139 65v0h184v65H139v0z" clip-path="url(&quot;#ihlqi&quot;)"/></g><g><path fill="none" stroke="#e6e6e6" stroke-miterlimit="50" stroke-width="2" d="M26 164v0h78v16H26v0z" clip-path="url(&quot;#ihlqj&quot;)"/></g><g><path fill="none" stroke="#e6e6e6" stroke-miterlimit="50" stroke-width="2" d="M26 185v0h78v16H26v0z" clip-path="url(&quot;#ihlqk&quot;)"/></g><g><path fill="#d8d8d8" d="M26 226h78v16H26z"/></g><g><path fill="#eaecf8" d="M26 247h78v16H26z"/></g><g><g transform="rotate(-270 168.5 197.5)"><path fill="#eaecf8" d="M118.5 189.5h100v16h-100z"/></g><g transform="rotate(-270 190 214)"><path fill="#eaecf8" d="M157 206h66v16h-66z"/></g><g transform="rotate(-270 211 205)"><path fill="#eaecf8" d="M169 197h84v16h-84z"/></g><g transform="rotate(-270 274 205)"><path fill="#eaecf8" d="M232 197h84v16h-84z"/></g><g transform="rotate(-270 232 233)"><path fill="#eaecf8" d="M218 225h28v16h-28z"/></g><g transform="rotate(-270 295 240)"><path fill="#eaecf8" d="M288 232h14v16h-14z"/></g><g transform="rotate(-270 253 224.5)"><path fill="#eaecf8" d="M230.5 216.5h45v16h-45z"/></g></g></g></g></svg>