<svg xmlns="http://www.w3.org/2000/svg" width="359" height="272" viewBox="0 0 359 272"><defs><mask id="zipgb" width="2" height="2" x="-1" y="-1"><path fill="#fff" d="M11 11h329v267H11z"/><path d="M11 11h329v267H11z"/></mask><filter id="zipga" width="393" height="331" x="-19" y="-19" filterUnits="userSpaceOnUse"><feOffset dx="4" dy="4" in="SourceGraphic" result="FeOffset1025Out"/><feGaussianBlur in="FeOffset1025Out" result="FeGaussianBlur1026Out" stdDeviation="8 8"/></filter><clipPath id="zipgc"><path fill="#fff" d="M11 11h329v267H11z"/></clipPath><clipPath id="zipgd"><path fill="#fff" d="M309.364 101c7.38 0 13.363-5.82 13.363-13s-5.983-13-13.363-13S296 80.82 296 88s5.983 13 13.364 13z"/></clipPath><clipPath id="zipge"><path fill="#fff" d="M296.184 101c7.38 0 13.363-5.82 13.363-13s-5.983-13-13.363-13-13.364 5.82-13.364 13 5.983 13 13.364 13z"/></clipPath><clipPath id="zipgf"><path fill="#fff" d="M282.814 101c7.38 0 13.363-5.82 13.363-13s-5.983-13-13.363-13-13.364 5.82-13.364 13 5.983 13 13.364 13z"/></clipPath><clipPath id="zipgg"><path fill="#fff" d="M269.454 101c7.38 0 13.363-5.82 13.363-13s-5.983-13-13.363-13-13.364 5.82-13.364 13 5.983 13 13.364 13z"/></clipPath><clipPath id="zipgh"><path fill="#fff" d="M256.094 101c7.38 0 13.363-5.82 13.363-13s-5.983-13-13.363-13-13.364 5.82-13.364 13 5.983 13 13.364 13z"/></clipPath><clipPath id="zipgi"><path fill="#fff" d="M242.724 101c7.38 0 13.363-5.82 13.363-13s-5.983-13-13.363-13-13.364 5.82-13.364 13 5.983 13 13.364 13z"/></clipPath><clipPath id="zipgj"><path fill="#fff" d="M229.364 101c7.38 0 13.363-5.82 13.363-13s-5.983-13-13.363-13S216 80.82 216 88s5.983 13 13.364 13z"/></clipPath></defs><g><g clip-path="url(#clip-3E26C5FB-95CC-4E33-84FB-283080318313)"><g><g filter="url(#zipga)"><path fill="none" d="M11 11h329v267H11z" mask="url(&quot;#zipgb&quot;)"/><path fill-opacity=".1" d="M11 11h329v267H11z"/></g><path fill="#fff" d="M11 11h329v267H11z"/><path fill="none" stroke="#979797" stroke-miterlimit="50" stroke-opacity=".1" stroke-width="2" d="M11 11v0h329v267H11v0z" clip-path="url(&quot;#zipgc&quot;)"/></g><g><g><g><g><g><g><path fill="#e6e6e6" d="M309.364 101c7.38 0 13.363-5.82 13.363-13s-5.983-13-13.363-13S296 80.82 296 88s5.983 13 13.364 13z"/><path fill="none" stroke="#fff" stroke-miterlimit="50" stroke-width="2" d="M309.364 101c7.38 0 13.363-5.82 13.363-13s-5.983-13-13.363-13S296 80.82 296 88s5.983 13 13.364 13z" clip-path="url(&quot;#zipgd&quot;)"/></g><g><path fill="#e6e6e6" d="M296.184 101c7.38 0 13.363-5.82 13.363-13s-5.983-13-13.363-13-13.364 5.82-13.364 13 5.983 13 13.364 13z"/><path fill="none" stroke="#fff" stroke-miterlimit="50" stroke-width="2" d="M296.184 101c7.38 0 13.363-5.82 13.363-13s-5.983-13-13.363-13-13.364 5.82-13.364 13 5.983 13 13.364 13z" clip-path="url(&quot;#zipge&quot;)"/></g><g><path fill="#e6e6e6" d="M282.814 101c7.38 0 13.363-5.82 13.363-13s-5.983-13-13.363-13-13.364 5.82-13.364 13 5.983 13 13.364 13z"/><path fill="none" stroke="#fff" stroke-miterlimit="50" stroke-width="2" d="M282.814 101c7.38 0 13.363-5.82 13.363-13s-5.983-13-13.363-13-13.364 5.82-13.364 13 5.983 13 13.364 13z" clip-path="url(&quot;#zipgf&quot;)"/></g><g><path fill="#e6e6e6" d="M269.454 101c7.38 0 13.363-5.82 13.363-13s-5.983-13-13.363-13-13.364 5.82-13.364 13 5.983 13 13.364 13z"/><path fill="none" stroke="#fff" stroke-miterlimit="50" stroke-width="2" d="M269.454 101c7.38 0 13.363-5.82 13.363-13s-5.983-13-13.363-13-13.364 5.82-13.364 13 5.983 13 13.364 13z" clip-path="url(&quot;#zipgg&quot;)"/></g></g></g></g><g><g><g><g><path fill="#e6e6e6" d="M256.094 101c7.38 0 13.363-5.82 13.363-13s-5.983-13-13.363-13-13.364 5.82-13.364 13 5.983 13 13.364 13z"/><path fill="none" stroke="#fff" stroke-miterlimit="50" stroke-width="2" d="M256.094 101c7.38 0 13.363-5.82 13.363-13s-5.983-13-13.363-13-13.364 5.82-13.364 13 5.983 13 13.364 13z" clip-path="url(&quot;#zipgh&quot;)"/></g><g><path fill="#e6e6e6" d="M242.724 101c7.38 0 13.363-5.82 13.363-13s-5.983-13-13.363-13-13.364 5.82-13.364 13 5.983 13 13.364 13z"/><path fill="none" stroke="#fff" stroke-miterlimit="50" stroke-width="2" d="M242.724 101c7.38 0 13.363-5.82 13.363-13s-5.983-13-13.363-13-13.364 5.82-13.364 13 5.983 13 13.364 13z" clip-path="url(&quot;#zipgi&quot;)"/></g><g><path fill="#e6e6e6" d="M229.364 101c7.38 0 13.363-5.82 13.363-13s-5.983-13-13.363-13S216 80.82 216 88s5.983 13 13.364 13z"/><path fill="none" stroke="#fff" stroke-miterlimit="50" stroke-width="2" d="M229.364 101c7.38 0 13.363-5.82 13.363-13s-5.983-13-13.363-13S216 80.82 216 88s5.983 13 13.364 13z" clip-path="url(&quot;#zipgj&quot;)"/></g></g></g></g></g></g><g transform="rotate(-90 321 253.5)"><g><path fill="none" stroke="#8a8f95" stroke-linecap="round" stroke-linejoin="round" stroke-miterlimit="50" stroke-width="2" d="M317 252v0l4 3v0l4-3v0"/></g></g><g opacity=".2"><path fill="none" stroke="#dadef4" stroke-linecap="square" stroke-miterlimit="50" d="M12.373 228.5l327.183-.25"/></g><g opacity=".2"><path fill="none" stroke="#dadef4" stroke-linecap="square" stroke-miterlimit="50" d="M12.373 119.5l327.183-.25"/></g><g><path fill="none" stroke="#e8e9ea" stroke-linecap="square" stroke-miterlimit="50" d="M12.445 56h326.11"/></g><g><path fill="#485cc7" d="M29 54h31v2H29z"/></g><g><path fill="#e6e6e6" d="M28 146a7 7 0 0 1 7-7h42a7 7 0 0 1 0 14H35a7 7 0 0 1-7-7z"/></g><g><path fill="#e6e6e6" d="M28 89a9 9 0 0 1 9-9h74a9 9 0 0 1 0 18H37a9 9 0 0 1-9-9z"/></g><g><path fill="#e6e6e6" d="M28 33a9 9 0 0 1 9-9h130a9 9 0 0 1 0 18H37a9 9 0 0 1-9-9z"/></g><g><path fill="#fff0ee" d="M148 147a9 9 0 0 1 9-9h38a9 9 0 0 1 9 9v1a9 9 0 0 1-9 9h-38a9 9 0 0 1-9-9z"/></g><g><path fill="#fff0ee" d="M148 174a9 9 0 0 1 9-9h38a9 9 0 0 1 9 9v1a9 9 0 0 1-9 9h-38a9 9 0 0 1-9-9z"/></g><g><path fill="#fff0ee" d="M148 201a9 9 0 0 1 9-9h38a9 9 0 0 1 9 9v1a9 9 0 0 1-9 9h-38a9 9 0 0 1-9-9z"/></g><g><path fill="#fefae6" d="M208 147a9 9 0 0 1 9-9h38a9 9 0 0 1 9 9v1a9 9 0 0 1-9 9h-38a9 9 0 0 1-9-9z"/></g><g><path fill="#fefae6" d="M208 174a9 9 0 0 1 9-9h38a9 9 0 0 1 9 9v1a9 9 0 0 1-9 9h-38a9 9 0 0 1-9-9z"/></g><g><path fill="#fefae6" d="M208 201a9 9 0 0 1 9-9h38a9 9 0 0 1 9 9v1a9 9 0 0 1-9 9h-38a9 9 0 0 1-9-9z"/></g><g><path fill="#eaf8ea" d="M268 147a9 9 0 0 1 9-9h38a9 9 0 0 1 9 9v1a9 9 0 0 1-9 9h-38a9 9 0 0 1-9-9z"/></g><g><path fill="#eaf8ea" d="M268 174a9 9 0 0 1 9-9h38a9 9 0 0 1 9 9v1a9 9 0 0 1-9 9h-38a9 9 0 0 1-9-9z"/></g><g><path fill="#eaf8ea" d="M268 201a9 9 0 0 1 9-9h38a9 9 0 0 1 9 9v1a9 9 0 0 1-9 9h-38a9 9 0 0 1-9-9z"/></g><g><path fill="#e6e6e6" d="M28 173a7 7 0 0 1 7-7h55a7 7 0 0 1 0 14H35a7 7 0 0 1-7-7z"/></g><g><path fill="#e6e6e6" d="M29 202a7 7 0 0 1 7-7h26a7 7 0 0 1 0 14H36a7 7 0 0 1-7-7z"/></g><g><path fill="#e6e6e6" d="M28 253a7 7 0 0 1 7-7h78a7 7 0 0 1 0 14H35a7 7 0 0 1-7-7z"/></g></g></g></svg>