<svg xmlns="http://www.w3.org/2000/svg" width="15" height="17" viewBox="0 0 15 17"><g><g><g><path fill="#fff" d="M11.112 5.679l.004.157.003.329c.039 2.171.467 3.876 1.169 5.162l.1.178.065.108h-9.9l.067-.108.1-.178c.736-1.35 1.171-3.162 1.171-5.491l.004-.157a3.612 3.612 0 0 1 7.217 0zm-8.664.157l-.003.31c-.035 1.94-.406 3.414-.992 4.49a4.29 4.29 0 0 1-.635.898c-.114.12-.191.185-.215.2l-.067.05c-.504.42-.218 1.274.468 1.274h13l.083-.005c.652-.069.888-.938.317-1.318l-.016-.012a2.034 2.034 0 0 1-.199-.189 4.29 4.29 0 0 1-.635-.898c-.617-1.132-.995-2.706-.995-4.8a5.056 5.056 0 1 0-10.111 0z"/></g><g><path fill="#fff" d="M8.127 14.86a.722.722 0 0 1 1.249.725 2.167 2.167 0 0 1-3.748 0 .722.722 0 0 1 1.203-.795l.093.141a.722.722 0 0 0 1.156 0z"/></g></g></g></svg>