<svg xmlns="http://www.w3.org/2000/svg" width="14" height="14" viewBox="0 0 14 14"><g><g><path fill="#7c8c97" d="M9.07 6.196l-.6.6c-.533.466-.8.865-.8 1.864H6.338v-.333c0-.732.267-1.398.8-1.865l.799-.865c.266-.2.4-.533.4-.933 0-.732-.6-1.332-1.333-1.332-.732 0-1.332.6-1.332 1.332H4.34A2.672 2.672 0 0 1 7.004 2 2.672 2.672 0 0 1 9.67 4.664c0 .6-.267 1.132-.6 1.532zm-1.4 4.47H6.338V9.326H7.67zM12.667 0H1.342C.61 0 .01.6.01 1.332v9.325c0 .732.6 1.332 1.332 1.332h3.664l1.998 1.998 1.999-1.998h3.664c.732 0 1.332-.6 1.332-1.332V1.332C13.999.6 13.399 0 12.667 0z"/></g></g></svg>