<svg xmlns="http://www.w3.org/2000/svg" width="30" height="30" viewBox="0 0 30 30"><defs><clipPath id="zcpfa"><path fill="#fff" d="M0 1a1 1 0 0 1 1-1h28a1 1 0 0 1 1 1v28a1 1 0 0 1-1 1H1a1 1 0 0 1-1-1z"/></clipPath></defs><g><g><g><g><g><g><path fill="#fff" d="M0 1a1 1 0 0 1 1-1h28a1 1 0 0 1 1 1v28a1 1 0 0 1-1 1H1a1 1 0 0 1-1-1z"/><path fill="none" stroke="#e1e4ec" stroke-miterlimit="50" stroke-width="2" d="M0 1a1 1 0 0 1 1-1h28a1 1 0 0 1 1 1v28a1 1 0 0 1-1 1H1a1 1 0 0 1-1-1z" clip-path="url(&quot;#zcpfa&quot;)"/></g></g></g></g><g><g><path fill="none" stroke="#000" stroke-linecap="round" stroke-linejoin="round" stroke-miterlimit="50" stroke-width="1.5" d="M11 14.996h8"/></g><g><path fill="none" stroke="#000" stroke-linecap="round" stroke-linejoin="round" stroke-miterlimit="50" stroke-width="1.5" d="M15 11v0l4 4v0l-4 4v0"/></g></g></g></g></svg>