<?xml version="1.0" encoding="UTF-8"?>
<svg width="24px" height="24px" viewBox="0 0 24 24" version="1.1" xmlns="http://www.w3.org/2000/svg" xmlns:xlink="http://www.w3.org/1999/xlink">
    <!-- Generator: Sketch 59.1 (86144) - https://sketch.com -->
    <title>Path</title>
    <desc>Created with Sketch.</desc>
    <g id="Dashboard" stroke="none" stroke-width="1" fill="none" fill-rule="evenodd">
        <path d="M12.2892795,4.62005012 C13.7826797,3.12664994 16.2039599,3.12664996 17.6973601,4.62005016 C19.1425861,6.06527616 19.1892063,8.3794844 17.8369107,9.88108355 L17.6970181,10.0284725 L10.9506178,16.7675396 C10.0303114,17.6878459 8.53820009,17.6878459 7.61789378,16.7675396 C6.73593356,15.8855794 6.69918522,14.4784719 7.50797491,13.5524234 L7.61826436,13.4344453 L13.8443342,7.21570889 C14.1917511,6.86870114 14.7546936,6.86903287 15.1017013,7.21644982 C15.4220162,7.53714239 15.4463731,8.04147799 15.1749721,8.39010149 L15.1009604,8.47381697 L8.87526115,14.692183 C8.64937966,14.9180645 8.64937966,15.2842908 8.87526115,15.5101723 C9.07855449,15.7134656 9.39552709,15.7337949 9.62180557,15.5709111 L9.69359234,15.5098305 L16.4399927,8.77076335 C17.2389681,7.97178796 17.2389681,6.67639292 16.4399927,5.87741753 C15.6790637,5.1164886 14.4678675,5.08025388 13.664056,5.76871337 L13.5466469,5.8774175 L6.80723796,12.6168264 C5.43516867,13.9888957 5.43516867,16.2134596 6.80723796,17.5855289 C8.13357161,18.9118625 10.2565141,18.9560736 11.635955,17.7181622 L11.7759404,17.5855289 L18.5153493,10.84612 C18.8625617,10.4989075 19.4255043,10.4989075 19.7727167,10.84612 C20.0932205,11.1666237 20.1178746,11.6709449 19.8466791,12.0197282 L19.7727167,12.1034873 L13.0333078,18.8428962 C10.9668137,20.9093904 7.61636471,20.9093904 5.54987059,18.8428962 C3.53775789,16.8307835 3.48480756,13.6014034 5.39101959,11.525224 L5.54987059,11.359459 L12.2892795,4.62005012 Z" id="Path" fill="#4758CE" fill-rule="nonzero"></path>
    </g>
</svg>