<svg xmlns="http://www.w3.org/2000/svg" xmlns:xlink="http://www.w3.org/1999/xlink" width="15" height="12" viewBox="0 0 15 12"><defs><path id="gkqsa" d="M45 121.5a7.397 7.397 0 0 1-1.18 4.043.51.51 0 0 1-.452.243H31.632a.51.51 0 0 1-.452-.243A7.37 7.37 0 0 1 30 121.5c0-1.016.198-1.987.594-2.913a7.534 7.534 0 0 1 1.6-2.394 7.534 7.534 0 0 1 2.393-1.599A7.332 7.332 0 0 1 37.5 114c1.016 0 1.987.198 2.913.594.926.397 1.724.93 2.394 1.6a7.534 7.534 0 0 1 1.599 2.393c.396.926.594 1.897.594 2.913z"/><path id="gkqsb" d="M32.895 122.263a1.04 1.04 0 0 0 .318-.762c0-.295-.105-.548-.314-.757a1.032 1.032 0 0 0-.758-.314c-.295 0-.548.105-.757.314-.21.21-.314.462-.314.757 0 .296.105.549.314.758.21.21.462.314.757.314.296 0 .547-.103.754-.31z"/><path id="gkqsc" d="M34.505 118.513a1.04 1.04 0 0 0 .318-.762c0-.295-.105-.548-.314-.757a1.032 1.032 0 0 0-.758-.314c-.295 0-.548.105-.757.314-.21.21-.314.462-.314.757 0 .296.105.549.314.758.21.21.462.314.757.314.296 0 .547-.103.754-.31z"/><path id="gkqsd" d="M38.407 121.78l.845-3.197a.53.53 0 0 0-.063-.406.53.53 0 0 0-.975.138l-.845 3.198c-.335.028-.634.149-.896.364s-.438.49-.527.824c-.112.43-.056.837.167 1.222s.55.634.98.745c.43.112.837.056 1.222-.167s.633-.55.745-.98c.089-.334.072-.66-.05-.979a1.593 1.593 0 0 0-.603-.762z"/><path id="gkqse" d="M43.615 122.263a1.04 1.04 0 0 0 .318-.762c0-.295-.105-.548-.314-.757a1.032 1.032 0 0 0-.758-.314c-.295 0-.548.105-.757.314-.21.21-.314.462-.314.757 0 .296.105.549.314.758.21.21.462.314.757.314.296 0 .547-.103.754-.31z"/><path id="gkqsf" d="M38.255 116.903a1.04 1.04 0 0 0 .318-.762c0-.295-.105-.548-.314-.757a1.032 1.032 0 0 0-.758-.314c-.295 0-.548.105-.757.314-.21.21-.314.462-.314.757 0 .296.105.549.314.758.21.21.462.314.757.314.296 0 .547-.103.754-.31z"/><path id="gkqsg" d="M42.005 118.513a1.04 1.04 0 0 0 .318-.762c0-.295-.105-.548-.314-.757a1.032 1.032 0 0 0-.758-.314c-.295 0-.548.105-.757.314-.21.21-.314.462-.314.757 0 .296.105.549.314.758.21.21.462.314.757.314.296 0 .547-.103.754-.31z"/></defs><g><g transform="translate(-30 -114)"><g><use fill="#7c8c97" xlink:href="#gkqsa"/></g><g><use fill="#fff" xlink:href="#gkqsb"/></g><g><use fill="#fff" xlink:href="#gkqsc"/></g><g><use fill="#fff" xlink:href="#gkqsd"/></g><g><use fill="#fff" xlink:href="#gkqse"/></g><g><use fill="#fff" xlink:href="#gkqsf"/></g><g><use fill="#fff" xlink:href="#gkqsg"/></g></g></g></svg>