<?xml version="1.0" encoding="UTF-8"?>
<svg width="16px" height="16px" viewBox="0 0 16 16" version="1.1" xmlns="http://www.w3.org/2000/svg" xmlns:xlink="http://www.w3.org/1999/xlink">
    <!-- Generator: Sketch 59.1 (86144) - https://sketch.com -->
    <title>Path</title>
    <desc>Created with Sketch.</desc>
    <g id="Tasks-Web" stroke="none" stroke-width="1" fill="none" fill-rule="evenodd">
        <g id="Group-31" fill="#485CC7" fill-rule="nonzero">
            <g id="Group-32" transform="translate(4.500000, 3.000000)">
                <path d="M0.454577114,4.09084577 L6.81808458,4.09084577 C6.94119403,4.09084577 7.04776119,4.04589552 7.13768657,3.9559204 C7.22756219,3.86597015 7.27268657,3.75945274 7.27268657,3.63634328 C7.27268657,3.51323383 7.22758706,3.40676617 7.13768657,3.31669154 L3.9559204,0.134925373 C3.8660199,0.0450746269 3.75952736,0 3.63634328,0 C3.5131592,0 3.40666667,0.0450746269 3.31669154,0.134925373 L0.134925373,3.31669154 C0.0449502488,3.40666667 0,3.51323383 0,3.63634328 C0,3.75942786 0.0449502488,3.86597015 0.134925373,3.9559204 C0.225,4.04589552 0.331492537,4.09084577 0.454577114,4.09084577 Z" id="Path"></path>
                <path d="M6.81808458,5.9091791 L0.454577114,5.9091791 C0.331393035,5.9091791 0.224900498,5.95415423 0.134925373,6.04402985 C0.0449502488,6.13400498 0,6.24049751 0,6.36360697 C0,6.48671642 0.0449502488,6.59328358 0.134925373,6.68320896 L3.31669154,9.86492537 C3.40676617,9.9549005 3.51325871,9.99995025 3.63634328,9.99995025 C3.75942786,9.99995025 3.8660199,9.9549005 3.9559204,9.86492537 L7.13768657,6.68318408 C7.22756219,6.59328358 7.27268657,6.48671642 7.27268657,6.36358209 C7.27268657,6.24049751 7.22758706,6.13400498 7.13768657,6.04400498 C7.04778607,5.95405473 6.94119403,5.9091791 6.81808458,5.9091791 Z" id="Path"></path>
            </g>
        </g>
    </g>
</svg>