<?xml version="1.0" encoding="UTF-8"?>
<svg width="16px" height="16px" viewBox="0 0 16 16" version="1.1" xmlns="http://www.w3.org/2000/svg" xmlns:xlink="http://www.w3.org/1999/xlink">
    <!-- Generator: Sketch 59.1 (86144) - https://sketch.com -->
    <title>trash-2 (1)</title>
    <desc>Created with Sketch.</desc>
    <g id="Tasks-Web" stroke="none" stroke-width="1" fill="none" fill-rule="evenodd">
        <g id="trash-2-(1)" transform="translate(2.000000, 2.000000)" fill="#8A8F95" fill-rule="nonzero">
            <path d="M0.592592593,3.2 L11.2592593,3.2 C11.5865391,3.2 11.8518519,2.96121853 11.8518519,2.66666667 C11.8518519,2.3721148 11.5865391,2.13333333 11.2592593,2.13333333 L0.592592593,2.13333333 C0.265312741,2.13333333 0,2.3721148 0,2.66666667 C0,2.96121853 0.265312741,3.2 0.592592593,3.2 Z" id="Path"></path>
            <path d="M10.0740741,2.13333333 C10.3779768,2.13333333 10.6284487,2.33922143 10.6626799,2.60446873 L10.6666667,2.66666667 L10.6666667,10.1333333 C10.6666667,10.9854298 9.92656595,11.6819525 8.99334684,11.7306172 L8.88888889,11.7333333 L2.96296296,11.7333333 C2.01618911,11.7333333 1.24227503,11.0672427 1.18820308,10.2273455 L1.18518519,10.1333333 L1.18518519,2.66666667 C1.18518519,2.3721148 1.45049793,2.13333333 1.77777778,2.13333333 C2.0816805,2.13333333 2.33215239,2.33922143 2.36638357,2.60446873 L2.37037037,2.66666667 L2.37037037,10.1333333 C2.37037037,10.4068458 2.59913493,10.6322705 2.89385415,10.6630785 L2.96296296,10.6666667 L8.88888889,10.6666667 C9.19279161,10.6666667 9.4432635,10.4607786 9.47749468,10.1955313 L9.48148148,10.1333333 L9.48148148,2.66666667 C9.48148148,2.3721148 9.74679422,2.13333333 10.0740741,2.13333333 Z M4.74074074,0 L7.11111111,0 C8.05788497,0 8.83179904,0.666090648 8.885871,1.50598785 L8.88888889,1.6 L8.88888889,2.66666667 C8.88888889,2.96121853 8.62357615,3.2 8.2962963,3.2 C7.99239358,3.2 7.74192168,2.9941119 7.70769051,2.7288646 L7.7037037,2.66666667 L7.7037037,1.6 C7.7037037,1.32648755 7.47493915,1.10106285 7.18021993,1.07025479 L7.11111111,1.06666667 L4.74074074,1.06666667 C4.43683802,1.06666667 4.18636613,1.27255477 4.15213495,1.53780207 L4.14814815,1.6 L4.14814815,2.66666667 C4.14814815,2.96121853 3.88283541,3.2 3.55555556,3.2 C3.25165284,3.2 3.00118094,2.9941119 2.96694977,2.7288646 L2.96296296,2.66666667 L2.96296296,1.6 C2.96296296,0.747903529 3.70306368,0.0513808643 4.63628279,0.00271610315 L4.74074074,0 L7.11111111,0 L4.74074074,0 Z" id="Shape"></path>
            <path d="M4.14814815,5.33333333 L4.14814815,8.53333333 C4.14814815,8.8278852 4.41346089,9.06666667 4.74074074,9.06666667 C5.06802059,9.06666667 5.33333333,8.8278852 5.33333333,8.53333333 L5.33333333,5.33333333 C5.33333333,5.03878147 5.06802059,4.8 4.74074074,4.8 C4.41346089,4.8 4.14814815,5.03878147 4.14814815,5.33333333 Z" id="Path"></path>
            <path d="M6.51851852,5.33333333 L6.51851852,8.53333333 C6.51851852,8.8278852 6.78383126,9.06666667 7.11111111,9.06666667 C7.43839096,9.06666667 7.7037037,8.8278852 7.7037037,8.53333333 L7.7037037,5.33333333 C7.7037037,5.03878147 7.43839096,4.8 7.11111111,4.8 C6.78383126,4.8 6.51851852,5.03878147 6.51851852,5.33333333 Z" id="Path"></path>
        </g>
    </g>
</svg>