<?xml version="1.0" encoding="UTF-8"?>
<svg width="14px" height="15px" viewBox="0 0 14 15" version="1.1" xmlns="http://www.w3.org/2000/svg" xmlns:xlink="http://www.w3.org/1999/xlink">
    <!-- Generator: Sketch 59.1 (86144) - https://sketch.com -->
    <title>trash-2 (1)</title>
    <desc>Created with Sketch.</desc>
    <g id="Internal-User" stroke="none" stroke-width="1" fill="none" fill-rule="evenodd">
        <g id="trash-2-(1)" fill="#151B3B" fill-rule="nonzero">
            <path d="M0.666666667,4 L12.6666667,4 C13.0348565,4 13.3333333,3.70152317 13.3333333,3.33333333 C13.3333333,2.9651435 13.0348565,2.66666667 12.6666667,2.66666667 L0.666666667,2.66666667 C0.298476833,2.66666667 0,2.9651435 0,3.33333333 C0,3.70152317 0.298476833,4 0.666666667,4 Z" id="Path"></path>
            <path d="M11.3333333,2.66666667 C11.6752239,2.66666667 11.9570048,2.92402679 11.9955148,3.25558592 L12,3.33333333 L12,12.6666667 C12,13.7317873 11.1673867,14.6024406 10.1175152,14.6632715 L10,14.6666667 L3.33333333,14.6666667 C2.26821274,14.6666667 1.39755941,13.8340534 1.33672846,12.7841819 L1.33333333,12.6666667 L1.33333333,3.33333333 C1.33333333,2.9651435 1.63181017,2.66666667 2,2.66666667 C2.34189056,2.66666667 2.62367144,2.92402679 2.66218151,3.25558592 L2.66666667,3.33333333 L2.66666667,12.6666667 C2.66666667,13.0085572 2.92402679,13.2903381 3.25558592,13.3288482 L3.33333333,13.3333333 L10,13.3333333 C10.3418906,13.3333333 10.6236714,13.0759732 10.6621815,12.7444141 L10.6666667,12.6666667 L10.6666667,3.33333333 C10.6666667,2.9651435 10.9651435,2.66666667 11.3333333,2.66666667 Z M5.33333333,0 L8,0 C9.06512059,0 9.93577392,0.83261331 9.99660487,1.88248481 L10,2 L10,3.33333333 C10,3.70152317 9.70152317,4 9.33333333,4 C8.99144277,4 8.70966189,3.74263987 8.67115182,3.41108075 L8.66666667,3.33333333 L8.66666667,2 C8.66666667,1.65810944 8.40930654,1.37632856 8.07774742,1.33781849 L8,1.33333333 L5.33333333,1.33333333 C4.99144277,1.33333333 4.70966189,1.59069346 4.67115182,1.92225258 L4.66666667,2 L4.66666667,3.33333333 C4.66666667,3.70152317 4.36818983,4 4,4 C3.65810944,4 3.37632856,3.74263987 3.33781849,3.41108075 L3.33333333,3.33333333 L3.33333333,2 C3.33333333,0.934879411 4.16594664,0.0642260804 5.21581814,0.00339512894 L5.33333333,0 L8,0 L5.33333333,0 Z" id="Shape"></path>
            <path d="M4.66666667,6.66666667 L4.66666667,10.6666667 C4.66666667,11.0348565 4.9651435,11.3333333 5.33333333,11.3333333 C5.70152317,11.3333333 6,11.0348565 6,10.6666667 L6,6.66666667 C6,6.29847683 5.70152317,6 5.33333333,6 C4.9651435,6 4.66666667,6.29847683 4.66666667,6.66666667 Z" id="Path"></path>
            <path d="M7.33333333,6.66666667 L7.33333333,10.6666667 C7.33333333,11.0348565 7.63181017,11.3333333 8,11.3333333 C8.36818983,11.3333333 8.66666667,11.0348565 8.66666667,10.6666667 L8.66666667,6.66666667 C8.66666667,6.29847683 8.36818983,6 8,6 C7.63181017,6 7.33333333,6.29847683 7.33333333,6.66666667 Z" id="Path"></path>
        </g>
    </g>
</svg>