<?xml version="1.0" encoding="UTF-8"?>
<svg width="15px" height="15px" viewBox="0 0 15 15" version="1.1" xmlns="http://www.w3.org/2000/svg" xmlns:xlink="http://www.w3.org/1999/xlink">
    <!-- Generator: Sketch 56.3 (81716) - https://sketch.com -->
    <title>Shape</title>
    <desc>Created with Sketch.</desc>
    <g id="Symbols" stroke="none" stroke-width="1" fill="none" fill-rule="evenodd">
        <g id="frame-tags-manager" transform="translate(-30.000000, -402.000000)" fill="#7C8C97" fill-rule="nonzero">
            <g id="Group-3">
                <g>
                    <g id="Left-Sidebar">
                        <g id="Group-6" transform="translate(0.000000, 96.000000)">
                            <g id="Group-17" transform="translate(28.000000, 0.000000)">
                                <g id="Group-7" transform="translate(0.000000, 18.000000)">
                                    <g id="tag-black-shape" transform="translate(2.000000, 288.000000)">
                                        <path d="M14.6338951,7.97027586 L7.55461923,0.900983484 C7.30371758,0.649980118 6.96715911,0.437192517 6.54473575,0.262343253 C6.12217367,0.0874593105 5.73605909,0 5.38618394,0 L1.26733944,0 C0.924053267,0 0.627028714,0.125501683 0.376196421,0.376192942 C0.125364128,0.627022916 0,0.924044721 0,1.26732772 L0,5.38613413 C0,5.73597137 0.0873560827,6.12197834 0.262311,6.54453651 C0.437265918,6.96709468 0.650090165,7.30025154 0.900991816,7.54456194 L7.98016368,14.6336558 C8.22440699,14.8778968 8.52122347,15 8.8713067,15 C9.21428076,15 9.51487724,14.8778968 9.77226384,14.6336558 L14.6337564,9.76235944 C14.8779997,9.51801435 15,9.2212353 15,8.87136338 C15,8.52811506 14.8779997,8.22776411 14.6338951,7.97027586 Z M4.06436399,4.06436108 C3.81668747,4.31189659 3.51810237,4.43573371 3.16822722,4.43573371 C2.81849078,4.43573371 2.51976696,4.31189659 2.27222916,4.06436108 C2.02469136,3.81679089 1.90095714,3.51820855 1.90095714,3.16837131 C1.90095714,2.81849939 2.02469136,2.51981301 2.27222916,2.27238154 C2.51980164,2.02481135 2.81849078,1.90097424 3.16822722,1.90097424 C3.51810237,1.90097424 3.81679151,2.02481135 4.06436399,2.27238154 C4.31179775,2.51981301 4.43563601,2.81853407 4.43563601,3.16837131 C4.43563601,3.51820855 4.31193647,3.81679089 4.06436399,4.06436108 Z" id="Shape"></path>
                                    </g>
                                </g>
                            </g>
                        </g>
                    </g>
                </g>
            </g>
        </g>
    </g>
</svg>