<?xml version="1.0" encoding="UTF-8"?>
<svg width="24px" height="24px" viewBox="0 0 24 24" version="1.1" xmlns="http://www.w3.org/2000/svg" xmlns:xlink="http://www.w3.org/1999/xlink">
    <!-- Generator: Sketch 59.1 (86144) - https://sketch.com -->
    <title>Documents-Icon</title>
    <desc>Created with Sketch.</desc>
    <g id="Documents" stroke="none" stroke-width="1" fill="none" fill-rule="evenodd">
        <g id="Documents-Icon" transform="translate(-3.000000, -3.000000)">
            <g id="1729---DOCX">
                <rect id="Rectangle" x="0" y="0" width="30" height="30"></rect>
                <rect id="Rectangle" x="3.74998535" y="3.74998535" width="22.5" height="22.5"></rect>
                <path d="M19.0896973,3.74997949 L23.9055029,8.57163574 L19.9506885,8.57163574 C19.4771338,8.57163574 19.0896973,8.18420801 19.0896973,7.71065332 L19.0896973,3.74997949 L19.0896973,3.74997949 Z" id="Path" fill="#A5D6A7"></path>
                <path d="M6.66285645,3.74998535 L19.0905176,3.74998535 L19.0905176,7.68670898 C19.0905176,8.17344727 19.4887251,8.57163721 19.9754458,8.57163721 L23.9062661,8.57163721 L23.9062661,20.507814 C23.9062661,20.8300854 23.6426118,21.0937397 23.3203403,21.0937397 L6.66286963,21.0937397 C6.34059814,21.0937397 6.07694385,20.8300854 6.07694385,20.507814 L6.07694385,4.33593896 C6.07694385,4.01366748 6.34059814,3.74998535 6.66286963,3.74998535 L6.66285645,3.74998535 Z" id="Path" fill="#C8E6C9"></path>
                <polygon id="Path" fill="#43A047" fill-rule="nonzero" points="9.84373535 11.0645947 20.625 11.0645947 20.625 12.0021094 9.84373535 12.0021094"></polygon>
                <polygon id="Path" fill="#43A047" fill-rule="nonzero" points="9.84373535 14.3457715 20.625 14.3457715 20.625 15.2833008 9.84373535 15.2833008"></polygon>
                <path d="M4.94232422,17.8445801 L25.0577051,17.8445801 C25.3854609,17.8445801 25.6837017,17.9798418 25.9001411,18.1977173 C26.1160269,18.4150386 26.2500425,18.7139019 26.2500425,19.0417441 L26.2500425,24.8183994 C26.2500425,25.1462417 26.1160091,25.4450874 25.9001411,25.6624102 C25.6836841,25.8802852 25.3854448,26.0155649 25.0577051,26.0155649 L4.94232422,26.0155649 C4.61460205,26.0155649 4.31632764,25.8802859 4.09987061,25.6624102 C3.88400244,25.4451226 3.74998535,25.1462769 3.74998535,24.8183994 L3.74998535,19.0417441 C3.74998535,18.7138843 3.88400142,18.4150386 4.09987061,18.1977173 C4.31629248,17.9798423 4.61456689,17.8445801 4.94232422,17.8445801 Z" id="Path" fill="#43A047"></path>
                <path d="M4.95482959,19.3086888 L6.8896582,19.3086888 C7.32544336,19.3086888 7.65747363,19.3416504 7.88695752,19.4087968 C8.19457471,19.499127 8.45824658,19.6602548 8.67676318,19.8921952 C8.89648975,20.1229081 9.0637251,20.4061137 9.17846631,20.7405829 C9.29199756,21.0762636 9.34936816,21.4888646 9.34936816,21.9808104 C9.34936816,22.4117177 9.29564751,22.7840414 9.18824121,23.096538 C9.05761626,23.4773915 8.87084912,23.7862377 8.62670947,24.02183 C8.44360986,24.2012792 8.19580225,24.3404335 7.88330713,24.4405219 C7.65015527,24.5149868 7.33764111,24.5516136 6.94580127,24.5516136 L4.95482959,24.5516136 L4.95482959,19.3086888 L4.95482959,19.3086888 Z M6.01318945,20.1961412 L6.01318945,23.6678247 L6.80297754,23.6678247 C7.09839697,23.6678247 7.3120166,23.6519594 7.44385254,23.617772 C7.61475439,23.5750551 7.75757666,23.5030296 7.8710918,23.4004844 C7.98462305,23.2979568 8.07618164,23.1282652 8.14818896,22.8939019 C8.21898589,22.659521 8.25561284,22.3384771 8.25561284,21.9331944 C8.25561284,21.5279278 8.21898589,21.2178716 8.14818896,21.000584 C8.07618091,20.7832964 7.97607568,20.6136221 7.84790771,20.4927725 C7.71851118,20.3706945 7.55492725,20.2889117 7.35717334,20.2461939 C7.20947168,20.2120065 6.92015918,20.1961412 6.48804199,20.1961412 L6.01318945,20.1961412 L6.01318945,20.1961412 Z M10.0329551,21.9625122 C10.0329551,21.4278325 10.1122989,20.9798496 10.2722153,20.6173008 C10.3918367,20.3511899 10.5541919,20.1107007 10.7604932,19.8982925 C10.9667944,19.6871133 11.1926279,19.5296528 11.4379775,19.4271079 C11.7651284,19.2879535 12.1411025,19.2195952 12.5683594,19.2195952 C13.3410542,19.2195952 13.9587275,19.4588379 14.4226172,19.9385859 C14.8864834,20.4171064 15.1184063,21.0836045 15.1184063,21.9368672 C15.1184063,22.7840435 14.8876934,23.4456562 14.4274951,23.9241621 C13.9672808,24.4014712 13.3520449,24.6407314 12.5830078,24.6407314 C11.8029785,24.6407314 11.1828647,24.4026826 10.7226709,23.9278301 C10.2624565,23.45175 10.0329551,22.7962368 10.0329551,21.9625078 L10.0329551,21.9625122 Z M11.123042,21.9271137 C11.123042,22.5203754 11.2609854,22.9708163 11.5344155,23.2772045 C11.8090737,23.5835941 12.1569858,23.7361913 12.5793457,23.7361913 C13.0004766,23.7361913 13.3471611,23.5848217 13.6181514,23.2796435 C13.8879302,22.9756942 14.0234341,22.5203754 14.0234341,21.9124594 C14.0234341,21.3118793 13.891598,20.8638788 13.6291377,20.5672479 C13.3654834,20.2718285 13.0151309,20.1241269 12.5793457,20.1241269 C12.1423315,20.1241269 11.790769,20.2742851 11.5234292,20.5733549 C11.2573184,20.8724262 11.123042,21.3228656 11.123042,21.9271137 L11.123042,21.9271137 Z M19.2993164,22.6241317 L20.3247129,22.9488422 C20.1672363,23.5213427 19.9060034,23.9461415 19.5398042,24.2244677 C19.1748149,24.5015648 18.7097212,24.6407367 18.1469795,24.6407367 C17.4511729,24.6407367 16.8786724,24.4026879 16.430666,23.9278354 C15.9826655,23.4517553 15.7580596,22.8011215 15.7580596,21.9771469 C15.7580596,21.1043476 15.9838931,20.4268588 16.434334,19.9434604 C16.8847559,19.4612895 17.4768076,19.2195902 18.2116582,19.2195902 C18.8525332,19.2195902 19.37377,19.4087968 19.7741631,19.7884228 C20.0134233,20.0118173 20.1916436,20.3340888 20.3112832,20.7540097 L19.2627026,21.0042563 C19.2016636,20.732037 19.0722671,20.5171898 18.8745132,20.3597133 C18.6779868,20.2022543 18.438728,20.124121 18.1579614,20.124121 C17.769772,20.124121 17.4536074,20.2632927 17.2119082,20.5428305 C16.970209,20.8211391 16.8493594,21.2728075 16.8493594,21.8978007 C16.8493594,22.5606483 16.9677696,23.0330619 17.2070288,23.3138271 C17.4450601,23.5958036 17.7551353,23.7361869 18.1359888,23.7361869 C18.4179653,23.7361869 18.6596646,23.6470679 18.8622979,23.4676356 C19.0649487,23.2894154 19.21021,23.0074213 19.299312,22.6241273 L19.2993164,22.6241317 Z M20.7006885,24.5516171 L22.4926758,21.8160214 L20.8691602,19.3086923 L22.1057197,19.3086923 L23.1579683,20.9932626 L24.1870327,19.3086923 L25.413835,19.3086923 L23.7829805,21.8550888 L25.5749678,24.5516171 L24.2981133,24.5516171 L23.1360015,22.7388729 L21.9702393,24.5516171 L20.7006885,24.5516171 L20.7006885,24.5516171 Z" id="Shape" fill="#FFFFFF" fill-rule="nonzero"></path>
            </g>
        </g>
    </g>
</svg>