<?xml version="1.0" encoding="UTF-8"?>
<svg width="48px" height="48px" viewBox="0 0 48 48" version="1.1" xmlns="http://www.w3.org/2000/svg" xmlns:xlink="http://www.w3.org/1999/xlink">
    <!-- Generator: Sketch 59.1 (86144) - https://sketch.com -->
    <title>1768 - EXE</title>
    <desc>Created with Sketch.</desc>
    <g id="File-type-Icon-Set" stroke="none" stroke-width="1" fill="none" fill-rule="evenodd">
        <g id="1743---AAC" transform="translate(-1.000000, -1.000000)">
            <rect id="Rectangle" x="0" y="0" width="50" height="50"></rect>
            <rect id="Rectangle" x="6.24997559" y="6.24997559" width="37.5" height="37.5"></rect>
            <path d="M31.8161621,6.44527832 L39.8425049,14.4813721 L33.2511475,14.4813721 C32.4618896,14.4813721 31.8161621,13.8356592 31.8161621,13.0464014 L31.8161621,6.44527832 L31.8161621,6.44527832 Z" id="Path" fill="#81D4FA"></path>
            <path d="M11.1047607,6.44528809 L31.8175293,6.44528809 L31.8175293,13.0064941 C31.8175293,13.8177246 32.4812085,14.4813745 33.2924097,14.4813745 L39.8437769,14.4813745 L39.8437769,34.3750024 C39.8437769,34.9121216 39.404353,35.3515454 38.8672339,35.3515454 L11.1047827,35.3515454 C10.5676636,35.3515454 10.1282397,34.9121216 10.1282397,34.3750024 L10.1282397,7.42187744 C10.1282397,6.8847583 10.5676636,6.44528809 11.1047827,6.44528809 L11.1047607,6.44528809 Z" id="Path" fill="#B3E5FC"></path>
            <path d="M20.865918,24.9719238 L20.865918,15.4584961 C23.6124756,17.0441626 26.3596436,18.6287598 29.1061279,20.2144775 L20.865918,24.9719238 L20.865918,24.9719238 Z" id="Path" fill="#039BE5" fill-rule="nonzero"></path>
            <path d="M8.23720703,29.9362793 L41.7628418,29.9362793 C42.3091016,29.9362793 42.8061694,30.1617156 43.1669019,30.5248413 C43.5267114,30.8870435 43.7500708,31.3851489 43.7500708,31.9315527 L43.7500708,41.5593115 C43.7500708,42.1057153 43.5266819,42.6037915 43.1669019,42.9659961 C42.8061401,43.3291211 42.3090747,43.5545874 41.7628418,43.5545874 L8.23720703,43.5545874 C7.69100342,43.5545874 7.19387939,43.3291223 6.83311768,42.9659961 C6.4733374,42.6038501 6.24997559,42.1057739 6.24997559,41.5593115 L6.24997559,31.9315527 C6.24997559,31.3851196 6.47333569,30.8870435 6.83311768,30.5248413 C7.1938208,30.1617163 7.69094482,29.9362793 8.23720703,29.9362793 Z" id="Path" fill="#039BE5"></path>
            <path d="M20.8587646,41.114502 L18.9382031,41.114502 L18.1752734,39.1288306 L14.6820117,39.1288306 L13.9617871,41.114502 L12.0900439,41.114502 L15.4937549,32.3762939 L17.3594141,32.3762939 L20.8587646,41.114502 L20.8587646,41.114502 Z M17.609668,37.6578613 L16.4052368,34.4148682 L15.2252295,37.6578613 L17.609668,37.6578613 L17.609668,37.6578613 Z M29.674292,41.114502 L27.7537305,41.114502 L26.9908008,39.1288306 L23.4975391,39.1288306 L22.7773145,41.114502 L20.9055713,41.114502 L24.3092822,32.3762939 L26.1749414,32.3762939 L29.674292,41.114502 L29.674292,41.114502 Z M26.4251953,37.6578613 L25.2207642,34.4148682 L24.0407568,37.6578613 L26.4251953,37.6578613 Z M36.2009766,37.9020117 L37.9099707,38.4431958 C37.6475098,39.3973633 37.2121216,40.1053613 36.6017896,40.5692383 C35.9934741,41.0310669 35.2183179,41.26302 34.280415,41.26302 C33.1207373,41.26302 32.1665698,40.866272 31.4198926,40.0748511 C30.6732251,39.2813843 30.2988818,38.1969946 30.2988818,36.8237036 C30.2988818,35.3690381 30.675271,34.2398901 31.4260059,33.4342261 C32.176709,32.6306079 33.1634619,32.2277759 34.3882129,32.2277759 C35.4563379,32.2277759 36.3250659,32.5431201 36.9923877,33.1758301 C37.3911548,33.5481543 37.6881885,34.0852734 37.8875879,34.7851416 L36.1399536,35.2022192 C36.0382219,34.7485205 35.822561,34.3904419 35.4929712,34.127981 C35.1654272,33.8655493 34.7666626,33.7353271 34.2987183,33.7353271 C33.6517358,33.7353271 33.1247949,33.96728 32.7219629,34.4331763 C32.3191309,34.8970239 32.1177148,35.6498047 32.1177148,36.69146 C32.1177148,37.7962061 32.3150652,38.583562 32.7138306,39.0515039 C33.1105493,39.5214648 33.6273413,39.755437 34.2620972,39.755437 C34.7320581,39.755437 35.1348901,39.6069053 35.4726123,39.3078516 C35.8103638,39.0108179 36.0524658,38.5408276 36.2009692,37.9020044 L36.2009766,37.9020117 Z" id="Shape" fill="#FFFFFF" fill-rule="nonzero"></path>
        </g>
    </g>
</svg>