<?xml version="1.0" encoding="UTF-8"?>
<svg width="48px" height="48px" viewBox="0 0 48 48" version="1.1" xmlns="http://www.w3.org/2000/svg" xmlns:xlink="http://www.w3.org/1999/xlink">
    <!-- Generator: Sketch 59.1 (86144) - https://sketch.com -->
    <title>1768 - EXE</title>
    <desc>Created with Sketch.</desc>
    <g id="File-type-Icon-Set" stroke="none" stroke-width="1" fill="none" fill-rule="evenodd">
        <g id="1723---AI" transform="translate(-1.000000, -1.000000)">
            <rect id="Rectangle" x="0" y="0" width="50" height="50"></rect>
            <rect id="Rectangle" x="6.24997559" y="6.24997559" width="37.5" height="37.5"></rect>
            <path d="M11.1047607,6.24997559 L31.8175293,6.24997559 L31.8175293,12.8111816 C31.8175293,13.6224121 32.4812085,14.286062 33.2924097,14.286062 L39.8437769,14.286062 L39.8437769,34.1796899 C39.8437769,34.7168091 39.404353,35.1562329 38.8672339,35.1562329 L11.1047827,35.1562329 C10.5676636,35.1562329 10.1282397,34.7168091 10.1282397,34.1796899 L10.1282397,7.22656494 C10.1282397,6.6894458 10.5676636,6.24997559 11.1047827,6.24997559 L11.1047607,6.24997559 Z" id="Path" fill="#FFCC80"></path>
            <path d="M31.8161621,6.24996582 L39.8425049,14.2860596 L33.2511475,14.2860596 C32.4618896,14.2860596 31.8161621,13.6403467 31.8161621,12.8510889 L31.8161621,6.24996582 L31.8161621,6.24996582 Z" id="Path" fill="#FFB74D"></path>
            <polygon id="Path" fill="#EF6C00" fill-rule="nonzero" points="16.4062256 18.4409912 34.375 18.4409912 34.375 20.0035156 16.4062256 20.0035156"></polygon>
            <polygon id="Path" fill="#EF6C00" fill-rule="nonzero" points="16.4062256 23.9096191 34.375 23.9096191 34.375 25.472168 16.4062256 25.472168"></polygon>
            <path d="M8.23720703,29.7409668 L41.7628418,29.7409668 C42.3091016,29.7409668 42.8061694,29.9664031 43.1669019,30.3295288 C43.5267114,30.691731 43.7500708,31.1898364 43.7500708,31.7362402 L43.7500708,41.363999 C43.7500708,41.9104028 43.5266819,42.408479 43.1669019,42.7706836 C42.8061401,43.1338086 42.3090747,43.3592749 41.7628418,43.3592749 L8.23720703,43.3592749 C7.69100342,43.3592749 7.19387939,43.1338098 6.83311768,42.7706836 C6.4733374,42.4085376 6.24997559,41.9104614 6.24997559,41.363999 L6.24997559,31.7362402 C6.24997559,31.1898071 6.47333569,30.691731 6.83311768,30.3295288 C7.1938208,29.9664038 7.69094482,29.7409668 8.23720703,29.7409668 Z" id="Path" fill="#EF6C00"></path>
            <path d="M28.0852051,40.9194336 L26.1646436,40.9194336 L25.4017139,38.9337622 L21.9084521,38.9337622 L21.1882275,40.9194336 L19.3164844,40.9194336 L22.7201953,32.1812256 L24.5858545,32.1812256 L28.0852051,40.9194336 L28.0852051,40.9194336 Z M24.8361084,37.462793 L23.6316772,34.2197998 L22.4516699,37.462793 L24.8361084,37.462793 L24.8361084,37.462793 Z M29.0088623,33.7314941 L29.0088623,32.1812085 L30.6832837,32.1812085 L30.6832837,33.7314941 L29.0088623,33.7314941 Z M29.0088623,40.9194092 L29.0088623,34.5900635 L30.6832837,34.5900635 L30.6832837,40.9194092 L29.0088623,40.9194092 Z" id="Shape" fill="#FFCC80" fill-rule="nonzero"></path>
        </g>
    </g>
</svg>