<?xml version="1.0" encoding="UTF-8"?>
<svg width="48px" height="48px" viewBox="0 0 48 48" version="1.1" xmlns="http://www.w3.org/2000/svg" xmlns:xlink="http://www.w3.org/1999/xlink">
    <!-- Generator: Sketch 59.1 (86144) - https://sketch.com -->
    <title>1768 - EXE</title>
    <desc>Created with Sketch.</desc>
    <g id="File-type-Icon-Set" stroke="none" stroke-width="1" fill="none" fill-rule="evenodd">
        <g id="1770---AUT" transform="translate(-1.000000, -1.000000)">
            <rect id="Rectangle" x="0" y="0" width="50" height="50"></rect>
            <rect id="Rectangle" x="6.24997559" y="6.24997559" width="37.5" height="37.5"></rect>
            <path d="M31.8161621,6.44527832 L39.8425049,14.4813721 L33.2511475,14.4813721 C32.4618896,14.4813721 31.8161621,13.8356592 31.8161621,13.0464014 L31.8161621,6.44527832 L31.8161621,6.44527832 Z" id="Path" fill="#EF9A9A"></path>
            <path d="M11.1047607,6.44528809 L31.8175293,6.44528809 L31.8175293,13.0064941 C31.8175293,13.8177246 32.4812085,14.4813745 33.2924097,14.4813745 L39.8437769,14.4813745 L39.8437769,34.3750024 C39.8437769,34.9121216 39.404353,35.3515454 38.8672339,35.3515454 L11.1047827,35.3515454 C10.5676636,35.3515454 10.1282397,34.9121216 10.1282397,34.3750024 L10.1282397,7.42187744 C10.1282397,6.8847583 10.5676636,6.44528809 11.1047827,6.44528809 L11.1047607,6.44528809 Z" id="Path" fill="#FFCDD2"></path>
            <polygon id="Path" fill="#D32F2F" fill-rule="nonzero" points="16.4062256 18.6362793 34.375 18.6362793 34.375 20.1988281 16.4062256 20.1988281"></polygon>
            <polygon id="Path" fill="#D32F2F" fill-rule="nonzero" points="16.4062256 24.1049072 34.375 24.1049072 34.375 25.6674805 16.4062256 25.6674805"></polygon>
            <path d="M8.23720703,29.9362793 L41.7628418,29.9362793 C42.3091016,29.9362793 42.8061694,30.1617156 43.1669019,30.5248413 C43.5267114,30.8870435 43.7500708,31.3851489 43.7500708,31.9315527 L43.7500708,41.5593115 C43.7500708,42.1057153 43.5266819,42.6037915 43.1669019,42.9659961 C42.8061401,43.3291211 42.3090747,43.5545874 41.7628418,43.5545874 L8.23720703,43.5545874 C7.69100342,43.5545874 7.19387939,43.3291223 6.83311768,42.9659961 C6.4733374,42.6038501 6.24997559,42.1057739 6.24997559,41.5593115 L6.24997559,31.9315527 C6.24997559,31.3851196 6.47333569,30.8870435 6.83311768,30.5248413 C7.1938208,30.1617163 7.69094482,29.9362793 8.23720703,29.9362793 Z" id="Path" fill="#D32F2F"></path>
            <path d="M21.3500732,41.0402832 L19.4295117,41.0402832 L18.666582,39.0546118 L15.1733203,39.0546118 L14.4530957,41.0402832 L12.5813525,41.0402832 L15.9850635,32.3020752 L17.8507227,32.3020752 L21.3500732,41.0402832 L21.3500732,41.0402832 Z M18.1009766,37.5836426 L16.8965454,34.3406494 L15.7165381,37.5836426 L18.1009766,37.5836426 L18.1009766,37.5836426 Z M22.2737305,32.3020728 L24.0376563,32.3020728 L24.0376563,37.0343262 C24.0376563,37.7850586 24.0600326,38.2733594 24.1027668,38.495105 C24.1780276,38.8531836 24.3591145,39.1400415 24.641905,39.3557007 C24.9267415,39.5733801 25.3153303,39.6812256 25.8076667,39.6812256 C26.3081648,39.6812256 26.686573,39.5794939 26.9409041,39.3740112 C27.1952034,39.1705479 27.347801,38.9182935 27.3986677,38.6212598 C27.451552,38.3221777 27.4759758,37.827793 27.4759758,37.1360571 L27.4759758,32.3020728 L29.2398748,32.3020728 L29.2398748,36.8919165 C29.2398748,37.941731 29.1931035,38.6822852 29.0974849,39.115625 C29.0018374,39.5489941 28.8268916,39.9131592 28.5705439,40.2122412 C28.3141963,40.5092749 27.9703608,40.7473145 27.543105,40.9243066 C27.1138301,41.1013279 26.5523164,41.1888159 25.8605806,41.1888159 C25.0264253,41.1888159 24.3936885,41.0931685 23.9623677,40.8999121 C23.5310737,40.7066274 23.1913057,40.456394 22.9410713,40.1491797 C22.6908076,39.8419653 22.5260127,39.5184595 22.4466865,39.1807373 C22.33071,38.6802686 22.2737305,37.9417334 22.2737305,36.9631421 L22.2737305,32.3020728 L22.2737305,32.3020728 Z M33.0667725,41.0402832 L33.0667725,33.7811768 L30.4748291,33.7811768 L30.4748291,32.3020874 L37.4186035,32.3020874 L37.4186035,33.7811768 L34.8327393,33.7811768 L34.8327393,41.0402832 L33.0667651,41.0402832 L33.0667725,41.0402832 Z" id="Shape" fill="#FFFFFF" fill-rule="nonzero"></path>
        </g>
    </g>
</svg>