<?xml version="1.0" encoding="UTF-8"?>
<svg width="48px" height="48px" viewBox="0 0 48 48" version="1.1" xmlns="http://www.w3.org/2000/svg" xmlns:xlink="http://www.w3.org/1999/xlink">
    <!-- Generator: Sketch 59.1 (86144) - https://sketch.com -->
    <title>1768 - EXE</title>
    <desc>Created with Sketch.</desc>
    <g id="File-type-Icon-Set" stroke="none" stroke-width="1" fill="none" fill-rule="evenodd">
        <g id="1748---AVI" transform="translate(-1.000000, -1.000000)">
            <rect id="Rectangle" x="0" y="0" width="50" height="50"></rect>
            <rect id="Rectangle" x="6.24997559" y="6.24997559" width="37.5" height="37.5"></rect>
            <path d="M31.8161621,6.44527832 L39.8425049,14.4813721 L33.2511475,14.4813721 C32.4618896,14.4813721 31.8161621,13.8356592 31.8161621,13.0464014 L31.8161621,6.44527832 L31.8161621,6.44527832 Z" id="Path" fill="#FFB300"></path>
            <path d="M11.1047363,6.44528809 L31.8175049,6.44528809 L31.8175049,13.0064941 C31.8175049,13.8177246 32.4811841,14.4813745 33.2923853,14.4813745 L39.8437524,14.4813745 L39.8437524,34.3750024 C39.8437524,34.9121216 39.4043286,35.3515454 38.8672095,35.3515454 L11.1047583,35.3515454 C10.5676392,35.3515454 10.1282153,34.9121216 10.1282153,34.3750024 L10.1282153,7.42187744 C10.1282153,6.8847583 10.5676392,6.44528809 11.1047583,6.44528809 L11.1047363,6.44528809 Z" id="Path" fill="#FFE082"></path>
            <path d="M20.8658691,24.9719238 L20.8658691,15.4584961 C23.6124268,17.0441626 26.3595947,18.6287598 29.1060791,20.2144775 L20.8658691,24.9719238 L20.8658691,24.9719238 Z" id="Path" fill="#FFA000" fill-rule="nonzero"></path>
            <path d="M8.23718262,29.9362793 L41.7628174,29.9362793 C42.3090771,29.9362793 42.806145,30.1617156 43.1668774,30.5248413 C43.526687,30.8870435 43.7500464,31.3851489 43.7500464,31.9315527 L43.7500464,41.5593115 C43.7500464,42.1057153 43.5266575,42.6037915 43.1668774,42.9659961 C42.8061157,43.3291211 42.3090503,43.5545874 41.7628174,43.5545874 L8.23718262,43.5545874 C7.690979,43.5545874 7.19385498,43.3291223 6.83309326,42.9659961 C6.47331299,42.6038501 6.24995117,42.1057739 6.24995117,41.5593115 L6.24995117,31.9315527 C6.24995117,31.3851196 6.47331128,30.8870435 6.83309326,30.5248413 C7.19379639,30.1617163 7.69092041,29.9362793 8.23718262,29.9362793 Z" id="Path" fill="#FFA000"></path>
            <path d="M24.4436035,41.114502 L22.523042,41.114502 L21.7601123,39.1288306 L18.2668506,39.1288306 L17.546626,41.114502 L15.6748828,41.114502 L19.0785937,32.3762939 L20.9442529,32.3762939 L24.4436035,41.114502 L24.4436035,41.114502 Z M21.1945068,37.6578613 L19.9900757,34.4148682 L18.8100684,37.6578613 L21.1945068,37.6578613 L21.1945068,37.6578613 Z M26.7019287,41.114502 L23.5789551,32.3762939 L25.4934326,32.3762939 L27.7028979,38.8439941 L29.8432153,32.3762939 L31.7149585,32.3762939 L28.5858813,41.114502 L26.7019409,41.114502 L26.7019287,41.114502 Z M32.5613037,41.114502 L32.5613037,32.3762939 L34.3252026,32.3762939 L34.3252026,41.114502 L32.5613037,41.114502 Z" id="Shape" fill="#FFFFFF" fill-rule="nonzero"></path>
        </g>
    </g>
</svg>