<?xml version="1.0" encoding="UTF-8"?>
<svg width="48px" height="48px" viewBox="0 0 48 48" version="1.1" xmlns="http://www.w3.org/2000/svg" xmlns:xlink="http://www.w3.org/1999/xlink">
    <!-- Generator: Sketch 59.1 (86144) - https://sketch.com -->
    <title>1768 - EXE</title>
    <desc>Created with Sketch.</desc>
    <g id="File-type-Icon-Set" stroke="none" stroke-width="1" fill="none" fill-rule="evenodd">
        <g id="1762---BIN" transform="translate(-1.000000, -1.000000)">
            <rect id="Rectangle" x="0" y="0" width="50" height="50"></rect>
            <rect id="Rectangle" x="6.24997559" y="6.24997559" width="37.5" height="37.5"></rect>
            <path d="M31.8161621,6.44527832 L39.8425049,14.4813721 L33.2511475,14.4813721 C32.4618896,14.4813721 31.8161621,13.8356592 31.8161621,13.0464014 L31.8161621,6.44527832 L31.8161621,6.44527832 Z" id="Path" fill="#78909C"></path>
            <path d="M11.1047607,6.44528809 L31.8175293,6.44528809 L31.8175293,13.0064941 C31.8175293,13.8177246 32.4812085,14.4813745 33.2924097,14.4813745 L39.8437769,14.4813745 L39.8437769,34.3750024 C39.8437769,34.9121216 39.404353,35.3515454 38.8672339,35.3515454 L11.1047827,35.3515454 C10.5676636,35.3515454 10.1282397,34.9121216 10.1282397,34.3750024 L10.1282397,7.42187744 C10.1282397,6.8847583 10.5676636,6.44528809 11.1047827,6.44528809 L11.1047607,6.44528809 Z" id="Path" fill="#CFD8DC"></path>
            <polygon id="Path" fill="#546E7A" fill-rule="nonzero" points="16.4062256 18.6362793 34.375 18.6362793 34.375 20.1988281 16.4062256 20.1988281"></polygon>
            <polygon id="Path" fill="#546E7A" fill-rule="nonzero" points="16.4062256 24.1049072 34.375 24.1049072 34.375 25.6674805 16.4062256 25.6674805"></polygon>
            <path d="M8.23720703,29.9362793 L41.7628418,29.9362793 C42.3091016,29.9362793 42.8061694,30.1617156 43.1669019,30.5248413 C43.5267114,30.8870435 43.7500708,31.3851489 43.7500708,31.9315527 L43.7500708,41.5593115 C43.7500708,42.1057153 43.5266819,42.6037915 43.1669019,42.9659961 C42.8061401,43.3291211 42.3090747,43.5545874 41.7628418,43.5545874 L8.23720703,43.5545874 C7.69100342,43.5545874 7.19387939,43.3291223 6.83311768,42.9659961 C6.4733374,42.6038501 6.24997559,42.1057739 6.24997559,41.5593115 L6.24997559,31.9315527 C6.24997559,31.3851196 6.47333569,30.8870435 6.83311768,30.5248413 C7.1938208,30.1617163 7.69094482,29.9362793 8.23720703,29.9362793 Z" id="Path" fill="#546E7A"></path>
            <path d="M15.8701416,32.3764578 L19.3634033,32.3764578 C20.0551392,32.3764578 20.5718994,32.4049543 20.9116406,32.4639519 C21.2514087,32.5209309 21.5545581,32.6409443 21.823103,32.8240496 C22.0916772,33.0071553 22.3134229,33.2492571 22.4924634,33.5544524 C22.6715032,33.8575994 22.7610083,34.1993889 22.7610083,34.5757781 C22.7610083,34.9846941 22.651145,35.3610857 22.4314185,35.7028728 C22.2096733,36.0446892 21.9105908,36.3010369 21.5342017,36.4719158 C22.0652075,36.6265608 22.4762012,36.8910393 22.7610083,37.2633367 C23.0478931,37.6377092 23.1903125,38.0771624 23.1903125,38.581696 C23.1903125,38.9784441 23.0987598,39.3649846 22.913606,39.7413738 C22.7284531,40.115717 22.4761987,40.4168181 22.1567603,40.6406389 C21.8373486,40.8644314 21.4426489,41.0027556 20.972688,41.0556682 C20.6797192,41.0861763 19.9696729,41.1065342 18.8445972,41.1146658 L15.8701416,41.1146658 L15.8701416,32.3764578 L15.8701416,32.3764578 Z M17.6360864,33.8311304 L17.6360864,35.8514063 L18.7916992,35.8514063 C19.4793408,35.8514063 19.9065967,35.8412273 20.0734375,35.8208982 C20.3745386,35.7862957 20.6125757,35.6825454 20.7855029,35.5096189 C20.9584297,35.3366633 21.0438989,35.1088059 21.0438989,34.8260154 C21.0438989,34.5554221 20.9706567,34.3356956 20.8221248,34.1668357 C20.6715745,33.9979749 20.4498005,33.8962424 20.1568318,33.8616697 C19.9818867,33.8413118 19.4793416,33.8311304 18.6492805,33.8311304 L17.6360864,33.8311304 L17.6360864,33.8311304 Z M17.6360845,37.3060793 L17.6360845,39.6417017 L19.2677734,39.6417017 C19.9045483,39.6417017 20.3073804,39.6254096 20.4782886,39.5887886 C20.7407495,39.5420173 20.9543628,39.4239934 21.1191577,39.2408882 C21.2839529,39.0557642 21.367373,38.8075483 21.367373,38.4983149 C21.367373,38.235854 21.3022625,38.0140791 21.1761357,37.8309736 C21.0479619,37.6478679 20.8648564,37.5136104 20.624771,37.4301875 C20.3847153,37.3467664 19.8618413,37.3060793 19.0602422,37.3060793 L17.6360845,37.3060793 L17.6360845,37.3060793 Z M24.6266626,41.1146753 L24.6266626,32.3764673 L26.3905615,32.3764673 L26.3905615,41.1146753 L24.6266626,41.1146753 Z M28.0893823,41.1146753 L28.0893823,32.3764673 L29.8065088,32.3764673 L33.3831934,38.2114282 L33.3831934,32.3764673 L35.0229834,32.3764673 L35.0229834,41.1146753 L33.2509546,41.1146753 L29.7292017,35.4160181 L29.7292017,41.1146753 L28.0893823,41.1146753 Z" id="Shape" fill="#FFFFFF" fill-rule="nonzero"></path>
        </g>
    </g>
</svg>