<?xml version="1.0" encoding="UTF-8"?>
<svg width="48px" height="48px" viewBox="0 0 48 48" version="1.1" xmlns="http://www.w3.org/2000/svg" xmlns:xlink="http://www.w3.org/1999/xlink">
    <!-- Generator: Sketch 59.1 (86144) - https://sketch.com -->
    <title>1768 - EXE</title>
    <desc>Created with Sketch.</desc>
    <g id="File-type-Icon-Set" stroke="none" stroke-width="1" fill="none" fill-rule="evenodd">
        <g id="1735---BMP" transform="translate(-1.000000, -1.000000)">
            <rect id="Rectangle" x="0" y="0" width="50" height="50"></rect>
            <rect id="Rectangle" x="6.24997559" y="6.24997559" width="37.5" height="37.5"></rect>
            <path d="M31.8161621,6.24996582 L39.8425049,14.2860596 L33.2511475,14.2860596 C32.4618896,14.2860596 31.8161621,13.6403467 31.8161621,12.8510889 L31.8161621,6.24996582 L31.8161621,6.24996582 Z" id="Path" fill="#FFA726"></path>
            <path d="M11.1047607,6.24997559 L31.8175293,6.24997559 L31.8175293,12.8111816 C31.8175293,13.6224121 32.4812085,14.286062 33.2924097,14.286062 L39.8437769,14.286062 L39.8437769,34.1796899 C39.8437769,34.7168091 39.404353,35.1562329 38.8672339,35.1562329 L11.1047827,35.1562329 C10.5676636,35.1562329 10.1282397,34.7168091 10.1282397,34.1796899 L10.1282397,7.22656494 C10.1282397,6.6894458 10.5676636,6.24997559 11.1047827,6.24997559 L11.1047607,6.24997559 Z" id="Path" fill="#FFCC80"></path>
            <polygon id="Path" fill="#F57C00" fill-rule="nonzero" points="16.4062256 18.4409912 34.375 18.4409912 34.375 20.0035156 16.4062256 20.0035156"></polygon>
            <polygon id="Path" fill="#F57C00" fill-rule="nonzero" points="16.4062256 23.9096191 34.375 23.9096191 34.375 25.472168 16.4062256 25.472168"></polygon>
            <path d="M8.23720703,29.7409668 L41.7628418,29.7409668 C42.3091016,29.7409668 42.8061694,29.9664031 43.1669019,30.3295288 C43.5267114,30.691731 43.7500708,31.1898364 43.7500708,31.7362402 L43.7500708,41.363999 C43.7500708,41.9104028 43.5266819,42.408479 43.1669019,42.7706836 C42.8061401,43.1338086 42.3090747,43.3592749 41.7628418,43.3592749 L8.23720703,43.3592749 C7.69100342,43.3592749 7.19387939,43.1338098 6.83311768,42.7706836 C6.4733374,42.4085376 6.24997559,41.9104614 6.24997559,41.363999 L6.24997559,31.7362402 C6.24997559,31.1898071 6.47333569,30.691731 6.83311768,30.3295288 C7.1938208,29.9664038 7.69094482,29.7409668 8.23720703,29.7409668 Z" id="Path" fill="#F57C00"></path>
            <path d="M12.6098633,32.1811453 L16.103125,32.1811453 C16.7948608,32.1811453 17.3116211,32.2096418 17.6513623,32.2686394 C17.9911304,32.3256184 18.2942798,32.4456318 18.5628247,32.6287371 C18.8313989,32.8118428 19.0531445,33.0539446 19.2321851,33.3591399 C19.4112249,33.6622869 19.50073,34.0040764 19.50073,34.3804656 C19.50073,34.7893816 19.3908667,35.1657732 19.1711401,35.5075603 C18.949395,35.8493767 18.6503125,36.1057244 18.2739233,36.2766033 C18.8049292,36.4312483 19.2159229,36.6957268 19.50073,37.0680242 C19.7876147,37.4423967 19.9300342,37.8818499 19.9300342,38.3863835 C19.9300342,38.7831316 19.8384814,39.1696721 19.6533276,39.5460613 C19.4681748,39.9204045 19.2159204,40.2215056 18.8964819,40.4453264 C18.5770703,40.6691189 18.1823706,40.8074431 17.7124097,40.8603557 C17.4194409,40.8908638 16.7093945,40.9112217 15.5843188,40.9193533 L12.6098633,40.9193533 L12.6098633,32.1811453 L12.6098633,32.1811453 Z M14.3758081,33.6358179 L14.3758081,35.6560938 L15.5314209,35.6560938 C16.2190625,35.6560938 16.6463184,35.6459148 16.8131592,35.6255857 C17.1142603,35.5909832 17.3522974,35.4872329 17.5252246,35.3143064 C17.6981514,35.1413508 17.7836206,34.9134934 17.7836206,34.6307029 C17.7836206,34.3601096 17.7103784,34.1403831 17.5618464,33.9715232 C17.4112961,33.8026624 17.1895222,33.7009299 16.8965535,33.6663572 C16.7216084,33.6459993 16.2190632,33.6358179 15.3890022,33.6358179 L14.3758081,33.6358179 L14.3758081,33.6358179 Z M14.3758062,37.1107668 L14.3758062,39.4463892 L16.0074951,39.4463892 C16.64427,39.4463892 17.0471021,39.4300971 17.2180103,39.3934761 C17.4804712,39.3467048 17.6940845,39.2286809 17.8588794,39.0455757 C18.0236746,38.8604517 18.1070947,38.6122358 18.1070947,38.3030024 C18.1070947,38.0405415 18.0419841,37.8187666 17.9158574,37.6356611 C17.7876836,37.4525554 17.6045781,37.3182979 17.3644927,37.234875 C17.124437,37.1514539 16.601563,37.1107668 15.7999639,37.1107668 L14.3758062,37.1107668 L14.3758062,37.1107668 Z M21.3968774,40.9193628 L21.3968774,32.1811548 L24.0376733,32.1811548 L25.622561,38.1422632 L27.1891382,32.1811548 L29.8360132,32.1811548 L29.8360132,40.9193628 L28.1982422,40.9193628 L28.1982422,34.0407007 L26.4628052,40.9193628 L24.7639893,40.9193628 L23.0346655,34.0407007 L23.0346655,40.9193628 L21.3968774,40.9193628 L21.3968774,40.9193628 Z M31.5897485,40.9193628 L31.5897485,32.1811548 L34.419729,32.1811548 C35.4919214,32.1811548 36.1917871,32.2259075 36.517312,32.3133945 C37.0178101,32.4436157 37.4389526,32.7284531 37.7766748,33.1679063 C38.114397,33.6073594 38.2832568,34.1749863 38.2832568,34.8687412 C38.2832568,35.4058604 38.1856196,35.8575107 37.9902881,36.2216758 C37.7949851,36.5878867 37.5488159,36.8747715 37.2477148,37.0843198 C36.9486328,37.2918491 36.6434668,37.4301743 36.3342041,37.4973301 C35.9130615,37.5807224 35.3027295,37.6234568 34.503147,37.6234568 L33.3536475,37.6234568 L33.3536475,40.9193628 L31.5897485,40.9193628 L31.5897485,40.9193628 Z M33.3536475,33.6602441 L33.3536475,36.1382837 L34.3180225,36.1382837 C35.0138232,36.1382837 35.4797192,36.0935022 35.7136914,36.0019492 C35.9476628,35.9103965 36.130769,35.7679778 36.2650269,35.5726743 C36.3972666,35.3773713 36.4644246,35.1515317 36.4644246,34.893165 C36.4644246,34.5757725 36.3708245,34.3133115 36.1836531,34.1058115 C35.9985291,33.9003296 35.7604915,33.7701084 35.475655,33.7192417 C35.2640598,33.6785547 34.8408699,33.6602441 34.206114,33.6602441 L33.3536475,33.6602441 L33.3536475,33.6602441 Z" id="Shape" fill="#FFFFFF" fill-rule="nonzero"></path>
        </g>
    </g>
</svg>