<?xml version="1.0" encoding="UTF-8"?>
<svg width="48px" height="48px" viewBox="0 0 48 48" version="1.1" xmlns="http://www.w3.org/2000/svg" xmlns:xlink="http://www.w3.org/1999/xlink">
    <!-- Generator: Sketch 59.1 (86144) - https://sketch.com -->
    <title>1768 - EXE</title>
    <desc>Created with Sketch.</desc>
    <g id="File-type-Icon-Set" stroke="none" stroke-width="1" fill="none" fill-rule="evenodd">
        <g id="1771---CAD" transform="translate(-1.000000, -1.000000)">
            <rect id="Rectangle" x="0" y="0" width="50" height="50"></rect>
            <rect id="Rectangle" x="6.24997559" y="6.24997559" width="37.5" height="37.5"></rect>
            <path d="M31.8161621,6.44527832 L39.8425049,14.4813721 L33.2511475,14.4813721 C32.4618896,14.4813721 31.8161621,13.8356592 31.8161621,13.0464014 L31.8161621,6.44527832 L31.8161621,6.44527832 Z" id="Path" fill="#81D4FA"></path>
            <path d="M11.1047607,6.44528809 L31.8175293,6.44528809 L31.8175293,13.0064941 C31.8175293,13.8177246 32.4812085,14.4813745 33.2924097,14.4813745 L39.8437769,14.4813745 L39.8437769,34.3750024 C39.8437769,34.9121216 39.404353,35.3515454 38.8672339,35.3515454 L11.1047827,35.3515454 C10.5676636,35.3515454 10.1282397,34.9121216 10.1282397,34.3750024 L10.1282397,7.42187744 C10.1282397,6.8847583 10.5676636,6.44528809 11.1047827,6.44528809 L11.1047607,6.44528809 Z" id="Path" fill="#B3E5FC"></path>
            <polygon id="Path" fill="#039BE5" fill-rule="nonzero" points="16.4062256 18.6362793 34.375 18.6362793 34.375 20.1988281 16.4062256 20.1988281"></polygon>
            <polygon id="Path" fill="#039BE5" fill-rule="nonzero" points="16.4062256 24.1049072 34.375 24.1049072 34.375 25.6674805 16.4062256 25.6674805"></polygon>
            <path d="M8.23720703,29.9362793 L41.7628418,29.9362793 C42.3091016,29.9362793 42.8061694,30.1617156 43.1669019,30.5248413 C43.5267114,30.8870435 43.7500708,31.3851489 43.7500708,31.9315527 L43.7500708,41.5593115 C43.7500708,42.1057153 43.5266819,42.6037915 43.1669019,42.9659961 C42.8061401,43.3291211 42.3090747,43.5545874 41.7628418,43.5545874 L8.23720703,43.5545874 C7.69100342,43.5545874 7.19387939,43.3291223 6.83311768,42.9659961 C6.4733374,42.6038501 6.24997559,42.1057739 6.24997559,41.5593115 L6.24997559,31.9315527 C6.24997559,31.3851196 6.47333569,30.8870435 6.83311768,30.5248413 C7.1938208,30.1617163 7.69094482,29.9362793 8.23720703,29.9362793 Z" id="Path" fill="#039BE5"></path>
            <path d="M18.5607666,37.9020996 L20.2697607,38.4432837 C20.0072998,39.3974512 19.5719116,40.1054492 18.9615796,40.5693262 C18.3532642,41.0311548 17.5781079,41.2631079 16.6402051,41.2631079 C15.4805273,41.2631079 14.5263599,40.8663599 13.7796826,40.074939 C13.0330151,39.2814722 12.6586719,38.1970825 12.6586719,36.8237915 C12.6586719,35.369126 13.035061,34.239978 13.7857959,33.434314 C14.536499,32.6306958 15.523252,32.2278638 16.7480029,32.2278638 C17.8161279,32.2278638 18.684856,32.543208 19.3521777,33.175918 C19.7509448,33.5482422 20.0479785,34.0853613 20.2473779,34.7852295 L18.4997437,35.2023071 C18.398012,34.7486084 18.1823511,34.3905298 17.8527612,34.1280688 C17.5252173,33.8656372 17.1264526,33.735415 16.6585083,33.735415 C16.0115259,33.735415 15.484585,33.9673679 15.0817529,34.4332642 C14.6789209,34.8971118 14.4775049,35.6498926 14.4775049,36.6915479 C14.4775049,37.7962939 14.6748552,38.5836499 15.0736206,39.0515918 C15.4703394,39.5215527 15.9871313,39.7555249 16.6218872,39.7555249 C17.0918481,39.7555249 17.4946802,39.6069932 17.8324023,39.3079395 C18.1701538,39.0109058 18.4122559,38.5409155 18.5607593,37.9020923 L18.5607666,37.9020996 Z M29.6650879,41.1145752 L27.7445264,41.1145752 L26.9815967,39.1289038 L23.488335,39.1289038 L22.7681104,41.1145752 L20.8963672,41.1145752 L24.3000781,32.3763672 L26.1657373,32.3763672 L29.6650879,41.1145752 L29.6650879,41.1145752 Z M26.4159912,37.6579346 L25.2115601,34.4149414 L24.0315527,37.6579346 L26.4159912,37.6579346 Z M30.5948657,32.3763628 L33.8195801,32.3763628 C34.5458887,32.3763628 35.0992725,32.4312988 35.4817456,32.5432095 C35.9944409,32.6937598 36.433894,32.9623062 36.7980884,33.3488735 C37.1642993,33.733395 37.4430249,34.2054043 37.6342603,34.762853 C37.823479,35.3223208 37.9190967,36.0099893 37.9190967,36.8298989 C37.9190967,37.5480776 37.8295623,38.1686172 37.6505518,38.6894448 C37.4328435,39.3242007 37.1215649,39.8389443 36.7146655,40.2315981 C36.4094995,40.5306802 35.9964868,40.762604 35.4756616,40.929418 C35.0870752,41.0535261 34.5662183,41.1145708 33.9131519,41.1145708 L30.5948657,41.1145708 L30.5948657,32.3763628 L30.5948657,32.3763628 Z M32.3587988,33.8554502 L32.3587988,39.6415894 L33.6751123,39.6415894 C34.167478,39.6415894 34.5235107,39.6151472 34.7432373,39.5581682 C35.0280737,39.4869734 35.2661108,39.3669309 35.4553027,39.1960222 C35.6445215,39.0251428 35.7971191,38.7423235 35.9171313,38.351718 C36.0351262,37.9610833 36.0961711,37.42601 36.0961711,36.7505388 C36.0961711,36.0750945 36.0351262,35.5583342 35.9171313,35.1961882 C35.7971179,34.8340422 35.6302759,34.5512517 35.4166626,34.3498357 C35.2010017,34.1463723 34.9283618,34.0100676 34.598772,33.9388713 C34.3526025,33.8818923 33.870415,33.8554502 33.1502197,33.8554502 L32.3587988,33.8554502 L32.3587988,33.8554502 Z" id="Shape" fill="#FFFFFF" fill-rule="nonzero"></path>
        </g>
    </g>
</svg>