<?xml version="1.0" encoding="UTF-8"?>
<svg width="48px" height="48px" viewBox="0 0 48 48" version="1.1" xmlns="http://www.w3.org/2000/svg" xmlns:xlink="http://www.w3.org/1999/xlink">
    <!-- Generator: Sketch 59.1 (86144) - https://sketch.com -->
    <title>1768 - EXE</title>
    <desc>Created with Sketch.</desc>
    <g id="File-type-Icon-Set" stroke="none" stroke-width="1" fill="none" fill-rule="evenodd">
        <g id="1725---CDR" transform="translate(-1.000000, -1.000000)">
            <rect id="_185238304" x="0" y="0" width="50" height="50"></rect>
            <rect id="_185238184" x="6.24997559" y="6.24997559" width="37.5" height="37.5"></rect>
            <path d="M31.8161621,6.24996582 L39.8425049,14.2860596 L33.2511475,14.2860596 C32.4618896,14.2860596 31.8161621,13.6403467 31.8161621,12.8510889 L31.8161621,6.24996582 L31.8161621,6.24996582 Z" id="_185238016" fill="#A5D6A7"></path>
            <path d="M11.1047607,6.24997559 L31.8175293,6.24997559 L31.8175293,12.8111816 C31.8175293,13.6224121 32.4812085,14.286062 33.2924097,14.286062 L39.8437769,14.286062 L39.8437769,34.1796899 C39.8437769,34.7168091 39.404353,35.1562329 38.8672339,35.1562329 L11.1047827,35.1562329 C10.5676636,35.1562329 10.1282397,34.7168091 10.1282397,34.1796899 L10.1282397,7.22656494 C10.1282397,6.6894458 10.5676636,6.24997559 11.1047827,6.24997559 L11.1047607,6.24997559 Z" id="_185237848" fill="#C8E6C9"></path>
            <polygon id="_185237632" fill="#43A047" fill-rule="nonzero" points="16.4062256 18.4409912 34.375 18.4409912 34.375 20.0035156 16.4062256 20.0035156"></polygon>
            <polygon id="_185237704" fill="#43A047" fill-rule="nonzero" points="16.4062256 23.9096191 34.375 23.9096191 34.375 25.472168 16.4062256 25.472168"></polygon>
            <path d="M8.23720703,29.7409668 L41.7628418,29.7409668 C42.3091016,29.7409668 42.8061694,29.9664031 43.1669019,30.3295288 C43.5267114,30.691731 43.7500708,31.1898364 43.7500708,31.7362402 L43.7500708,41.363999 C43.7500708,41.9104028 43.5266819,42.408479 43.1669019,42.7706836 C42.8061401,43.1338086 42.3090747,43.3592749 41.7628418,43.3592749 L8.23720703,43.3592749 C7.69100342,43.3592749 7.19387939,43.1338098 6.83311768,42.7706836 C6.4733374,42.4085376 6.24997559,41.9104614 6.24997559,41.363999 L6.24997559,31.7362402 C6.24997559,31.1898071 6.47333569,30.691731 6.83311768,30.3295288 C7.1938208,29.9664038 7.69094482,29.7409668 8.23720703,29.7409668 Z" id="_187054448" fill="#43A047"></path>
            <path d="M18.2891846,37.7038574 L19.9981787,38.2450415 C19.7357178,39.199209 19.3003296,39.907207 18.6899976,40.371084 C18.0816821,40.8329126 17.3065259,41.0648657 16.368623,41.0648657 C15.2089453,41.0648657 14.2547778,40.6681177 13.5081006,39.8766968 C12.7614331,39.08323 12.3870898,37.9988403 12.3870898,36.6255493 C12.3870898,35.1708838 12.763479,34.0417358 13.5142139,33.2360718 C14.264917,32.4324536 15.2516699,32.0296216 16.4764209,32.0296216 C17.5445459,32.0296216 18.4132739,32.3449658 19.0805957,32.9776758 C19.4793628,33.35 19.7763965,33.8871191 19.9757959,34.5869873 L18.2281616,35.0040649 C18.1264299,34.5503662 17.910769,34.1922876 17.5811792,33.9298267 C17.2536353,33.667395 16.8548706,33.5371729 16.3869263,33.5371729 C15.7399438,33.5371729 15.2130029,33.7691257 14.8101709,34.235022 C14.4073389,34.6988696 14.2059229,35.4516504 14.2059229,36.4933057 C14.2059229,37.5980518 14.4032732,38.3854077 14.8020386,38.8533496 C15.1987573,39.3233105 15.7155493,39.5572827 16.3503052,39.5572827 C16.8202661,39.5572827 17.2230981,39.408751 17.5608203,39.1096973 C17.8985718,38.8126636 18.1406738,38.3426733 18.2891772,37.7038501 L18.2891846,37.7038574 Z M21.5077808,32.1781206 L24.7324951,32.1781206 C25.4588037,32.1781206 26.0121875,32.2330566 26.3946606,32.3449673 C26.907356,32.4955176 27.3468091,32.764064 27.7110034,33.1506313 C28.0772144,33.5351528 28.3559399,34.0071621 28.5471753,34.5646108 C28.736394,35.1240786 28.8320117,35.8117471 28.8320117,36.6316567 C28.8320117,37.3498354 28.7424773,37.970375 28.5634668,38.4912026 C28.3457585,39.1259585 28.03448,39.6407021 27.6275806,40.033356 C27.3224146,40.332438 26.9094019,40.5643618 26.3885767,40.7311758 C25.9999902,40.8552839 25.4791333,40.9163286 24.8260669,40.9163286 L21.5077808,40.9163286 L21.5077808,32.1781206 L21.5077808,32.1781206 Z M23.2717139,33.657208 L23.2717139,39.4433472 L24.5880273,39.4433472 C25.0803931,39.4433472 25.4364258,39.416905 25.6561523,39.359926 C25.9409888,39.2887312 26.1790259,39.1686887 26.3682178,38.99778 C26.5574365,38.8269006 26.7100342,38.5440813 26.8300464,38.1534758 C26.9480413,37.7628411 27.0090862,37.2277678 27.0090862,36.5522966 C27.0090862,35.8768523 26.9480413,35.360092 26.8300464,34.997946 C26.710033,34.6358 26.5431909,34.3530095 26.3295776,34.1515935 C26.1139167,33.9481301 25.8412769,33.8118254 25.511687,33.7406292 C25.2655176,33.6836501 24.7833301,33.657208 24.0631348,33.657208 L23.2717139,33.657208 L23.2717139,33.657208 Z M30.3334741,40.9163215 L30.3334741,32.1781128 L34.0484717,32.1781128 C34.9823096,32.1781128 35.6598022,32.2574683 36.0829907,32.4141316 C36.5061523,32.5707661 36.8459204,32.8494905 37.1002222,33.2503035 C37.3545508,33.6531355 37.4806787,34.1108992 37.4806787,34.6276619 C37.4806787,35.2827766 37.2874231,35.8259797 36.9029004,36.2532356 C36.5183789,36.6784431 35.9405713,36.9490364 35.1735474,37.0588997 C35.5560498,37.2826921 35.8713965,37.5268416 36.1196118,37.7933406 C36.3678003,38.0598665 36.7014844,38.5318757 37.122627,39.211385 L38.1907227,40.9163215 L36.0809424,40.9163215 L34.8053174,39.0140632 C34.3516187,38.3345247 34.0423877,37.9072688 33.8755444,37.7302766 C33.7087021,37.5532842 33.531709,37.4332429 33.3445386,37.3661116 C33.1573672,37.301001 32.8623511,37.2684456 32.4554517,37.2684456 L32.0994189,37.2684456 L32.0994189,40.9163215 L30.3334741,40.9163215 L30.3334741,40.9163215 Z M32.0994263,35.8727905 L33.4035425,35.8727905 C34.249895,35.8727905 34.7788818,35.838188 34.9904492,35.7669929 C35.2000259,35.6957981 35.3648218,35.5716899 35.484834,35.396717 C35.6028579,35.2217432 35.6638738,35.0040632 35.6638738,34.7416023 C35.6638738,34.4466145 35.5845471,34.2105964 35.4278838,34.0295369 C35.2712205,33.8484497 35.0494756,33.7345198 34.7625908,33.6857014 C34.6201721,33.6673908 34.1908965,33.6572119 33.4747661,33.6572119 L32.0994263,33.6572119 L32.0994263,35.8727905 L32.0994263,35.8727905 Z" id="_187054376" fill="#FFFFFF" fill-rule="nonzero"></path>
        </g>
    </g>
</svg>