<?xml version="1.0" encoding="UTF-8"?>
<svg width="48px" height="48px" viewBox="0 0 48 48" version="1.1" xmlns="http://www.w3.org/2000/svg" xmlns:xlink="http://www.w3.org/1999/xlink">
    <!-- Generator: Sketch 59.1 (86144) - https://sketch.com -->
    <title>1768 - EXE</title>
    <desc>Created with Sketch.</desc>
    <g id="File-type-Icon-Set" stroke="none" stroke-width="1" fill="none" fill-rule="evenodd">
        <g id="1772---CSV" transform="translate(-1.000000, -1.000000)">
            <rect id="Rectangle" x="0" y="0" width="50" height="50"></rect>
            <rect id="Rectangle" x="6.24997559" y="6.24997559" width="37.5" height="37.5"></rect>
            <path d="M31.8161621,6.44527832 L39.8425049,14.4813721 L33.2511475,14.4813721 C32.4618896,14.4813721 31.8161621,13.8356592 31.8161621,13.0464014 L31.8161621,6.44527832 L31.8161621,6.44527832 Z" id="Path" fill="#7986CB"></path>
            <path d="M11.1047607,6.44528809 L31.8175293,6.44528809 L31.8175293,13.0064941 C31.8175293,13.8177246 32.4812085,14.4813745 33.2924097,14.4813745 L39.8437769,14.4813745 L39.8437769,34.3750024 C39.8437769,34.9121216 39.404353,35.3515454 38.8672339,35.3515454 L11.1047827,35.3515454 C10.5676636,35.3515454 10.1282397,34.9121216 10.1282397,34.3750024 L10.1282397,7.42187744 C10.1282397,6.8847583 10.5676636,6.44528809 11.1047827,6.44528809 L11.1047607,6.44528809 Z" id="Path" fill="#C5CAE9"></path>
            <polygon id="Path" fill="#3949AB" fill-rule="nonzero" points="16.4062256 18.6362793 34.375 18.6362793 34.375 20.1988281 16.4062256 20.1988281"></polygon>
            <polygon id="Path" fill="#3949AB" fill-rule="nonzero" points="16.4062256 24.1049072 34.375 24.1049072 34.375 25.6674805 16.4062256 25.6674805"></polygon>
            <path d="M8.23720703,29.9362793 L41.7628418,29.9362793 C42.3091016,29.9362793 42.8061694,30.1617156 43.1669019,30.5248413 C43.5267114,30.8870435 43.7500708,31.3851489 43.7500708,31.9315527 L43.7500708,41.5593115 C43.7500708,42.1057153 43.5266819,42.6037915 43.1669019,42.9659961 C42.8061401,43.3291211 42.3090747,43.5545874 41.7628418,43.5545874 L8.23720703,43.5545874 C7.69100342,43.5545874 7.19387939,43.3291223 6.83311768,42.9659961 C6.4733374,42.6038501 6.24997559,42.1057739 6.24997559,41.5593115 L6.24997559,31.9315527 C6.24997559,31.3851196 6.47333569,30.8870435 6.83311768,30.5248413 C7.1938208,30.1617163 7.69094482,29.9362793 8.23720703,29.9362793 Z" id="Path" fill="#3949AB"></path>
            <path d="M18.9361572,37.8991699 L20.6451514,38.440354 C20.3826904,39.3945215 19.9473022,40.1025195 19.3369702,40.5663965 C18.7286548,41.0282251 17.9534985,41.2601782 17.0155957,41.2601782 C15.855918,41.2601782 14.9017505,40.8634302 14.1550732,40.0720093 C13.4084058,39.2785425 13.0340625,38.1941528 13.0340625,36.8208618 C13.0340625,35.3661963 13.4104517,34.2370483 14.1611865,33.4313843 C14.9118896,32.6277661 15.8986426,32.2249341 17.1233936,32.2249341 C18.1915186,32.2249341 19.0602466,32.5402783 19.7275684,33.1729883 C20.1263354,33.5453125 20.4233691,34.0824316 20.6227686,34.7822998 L18.8751343,35.1993774 C18.7734026,34.7456787 18.5577417,34.3876001 18.2281519,34.1251392 C17.9006079,33.8627075 17.5018433,33.7324854 17.0338989,33.7324854 C16.3869165,33.7324854 15.8599756,33.9644382 15.4571436,34.4303345 C15.0543115,34.8941821 14.8528955,35.6469629 14.8528955,36.6886182 C14.8528955,37.7933643 15.0502458,38.5807202 15.4490112,39.0486621 C15.84573,39.518623 16.362522,39.7525952 16.9972778,39.7525952 C17.4672388,39.7525952 17.8700708,39.6040635 18.207793,39.3050098 C18.5455444,39.0079761 18.7876465,38.5379858 18.9361499,37.8991626 L18.9361572,37.8991699 Z M21.7132712,38.2694458 L23.4303784,38.100585 C23.5321101,38.6783901 23.7416577,39.1015518 24.0590503,39.372145 C24.3743945,39.6406899 24.7996045,39.7770254 25.3367236,39.7770254 C25.9043506,39.7770254 26.3336255,39.6569832 26.620481,39.4148794 C26.9093848,39.1747947 27.0538501,38.8940518 27.0538501,38.5725942 C27.0538501,38.3650649 26.9928052,38.1900918 26.8707444,38.0456533 C26.7507021,37.8991689 26.5391062,37.7730142 26.2359592,37.6672451 C26.0304773,37.5940029 25.558469,37.4678474 24.8240281,37.2847427 C23.8779929,37.0507712 23.2147458,36.7618691 22.8342893,36.4200796 C22.2971702,35.939938 22.0286252,35.3540005 22.0286252,34.6622646 C22.0286252,34.2166982 22.154752,33.8016689 22.4070334,33.4130801 C22.6593162,33.0265103 23.0234788,32.7315225 23.4975364,32.5280605 C23.9736106,32.3266443 24.5453049,32.2249404 25.2166819,32.2249404 C26.3153147,32.2249404 27.1392917,32.4649961 27.6947092,32.9451357 C28.248093,33.4273232 28.5390134,34.0681924 28.5675022,34.8718105 L26.8035764,34.9491187 C26.7283157,34.4995142 26.5655391,34.1760083 26.3173508,33.9807056 C26.0691355,33.7833552 25.6968113,33.6856885 25.2004075,33.6856885 C24.6877122,33.6856885 24.2848801,33.7894675 23.9959763,34.001062 C23.8088049,34.1353203 23.7152048,34.3164062 23.7152048,34.5422192 C23.7152048,34.7497485 23.8026919,34.9267407 23.9776658,35.0732251 C24.1994109,35.2603965 24.7405955,35.4557275 25.5991746,35.6571436 C26.4577244,35.8605781 27.0924802,36.070127 27.5034446,36.2857861 C27.9144382,36.5034944 28.2358665,36.7984814 28.4698386,37.174873 C28.7017915,37.5512622 28.817739,38.0151392 28.817739,38.5664746 C28.817739,39.0669727 28.679415,39.5369336 28.4006614,39.9723218 C28.1219382,40.409729 27.7292844,40.7352515 27.2206541,40.9468481 C26.7120237,41.1604617 26.0772678,41.2662598 25.3184031,41.2662598 C24.213657,41.2662598 23.3652854,41.0119604 22.7732371,40.5012817 C22.1811863,39.9906323 21.8272019,39.2460132 21.7132712,38.2694409 L21.7132712,38.2694458 Z M32.5307373,41.1116577 L29.4077637,32.3734497 L31.3222412,32.3734497 L33.5317065,38.8411499 L35.6720239,32.3734497 L37.5437671,32.3734497 L34.4146899,41.1116577 L32.5307495,41.1116577 L32.5307373,41.1116577 Z" id="Shape" fill="#FFFFFF" fill-rule="nonzero"></path>
        </g>
    </g>
</svg>