<?xml version="1.0" encoding="UTF-8"?>
<svg width="48px" height="48px" viewBox="0 0 48 48" version="1.1" xmlns="http://www.w3.org/2000/svg" xmlns:xlink="http://www.w3.org/1999/xlink">
    <!-- Generator: Sketch 59.1 (86144) - https://sketch.com -->
    <title>1768 - EXE</title>
    <desc>Created with Sketch.</desc>
    <g id="File-type-Icon-Set" stroke="none" stroke-width="1" fill="none" fill-rule="evenodd">
        <g id="1755---CSS" transform="translate(-1.000000, -1.000000)">
            <rect id="Rectangle" x="0" y="0" width="50" height="50"></rect>
            <rect id="Rectangle" x="6.24997559" y="6.24997559" width="37.5" height="37.5"></rect>
            <path d="M31.8161621,6.44527832 L39.8425049,14.4813721 L33.2511475,14.4813721 C32.4618896,14.4813721 31.8161621,13.8356592 31.8161621,13.0464014 L31.8161621,6.44527832 L31.8161621,6.44527832 Z" id="Path" fill="#81D4FA"></path>
            <path d="M11.1047607,6.44528809 L31.8175293,6.44528809 L31.8175293,13.0064941 C31.8175293,13.8177246 32.4812085,14.4813745 33.2924097,14.4813745 L39.8437769,14.4813745 L39.8437769,34.3750024 C39.8437769,34.9121216 39.404353,35.3515454 38.8672339,35.3515454 L11.1047827,35.3515454 C10.5676636,35.3515454 10.1282397,34.9121216 10.1282397,34.3750024 L10.1282397,7.42187744 C10.1282397,6.8847583 10.5676636,6.44528809 11.1047827,6.44528809 L11.1047607,6.44528809 Z" id="Path" fill="#B3E5FC"></path>
            <polygon id="Path" fill="#039BE5" fill-rule="nonzero" points="16.4062256 18.6362793 34.375 18.6362793 34.375 20.1988281 16.4062256 20.1988281"></polygon>
            <polygon id="Path" fill="#039BE5" fill-rule="nonzero" points="16.4062256 24.1049072 34.375 24.1049072 34.375 25.6674805 16.4062256 25.6674805"></polygon>
            <path d="M8.23720703,29.9362793 L41.7628418,29.9362793 C42.3091016,29.9362793 42.8061694,30.1617156 43.1669019,30.5248413 C43.5267114,30.8870435 43.7500708,31.3851489 43.7500708,31.9315527 L43.7500708,41.5593115 C43.7500708,42.1057153 43.5266819,42.6037915 43.1669019,42.9659961 C42.8061401,43.3291211 42.3090747,43.5545874 41.7628418,43.5545874 L8.23720703,43.5545874 C7.69100342,43.5545874 7.19387939,43.3291223 6.83311768,42.9659961 C6.4733374,42.6038501 6.24997559,42.1057739 6.24997559,41.5593115 L6.24997559,31.9315527 C6.24997559,31.3851196 6.47333569,30.8870435 6.83311768,30.5248413 C7.1938208,30.1617163 7.69094482,29.9362793 8.23720703,29.9362793 Z" id="Path" fill="#039BE5"></path>
            <path d="M19.2281006,37.8991699 L20.9370947,38.440354 C20.6746338,39.3945215 20.2392456,40.1025195 19.6289136,40.5663965 C19.0205981,41.0282251 18.2454419,41.2601782 17.3075391,41.2601782 C16.1478613,41.2601782 15.1936938,40.8634302 14.4470166,40.0720093 C13.7003491,39.2785425 13.3260059,38.1941528 13.3260059,36.8208618 C13.3260059,35.3661963 13.702395,34.2370483 14.4531299,33.4313843 C15.203833,32.6277661 16.1905859,32.2249341 17.4153369,32.2249341 C18.4834619,32.2249341 19.3521899,32.5402783 20.0195117,33.1729883 C20.4182788,33.5453125 20.7153125,34.0824316 20.9147119,34.7822998 L19.1670776,35.1993774 C19.0653459,34.7456787 18.8496851,34.3876001 18.5200952,34.1251392 C18.1925513,33.8627075 17.7937866,33.7324854 17.3258423,33.7324854 C16.6788599,33.7324854 16.1519189,33.9644382 15.7490869,34.4303345 C15.3462549,34.8941821 15.1448389,35.6469629 15.1448389,36.6886182 C15.1448389,37.7933643 15.3421892,38.5807202 15.7409546,39.0486621 C16.1376733,39.518623 16.6544653,39.7525952 17.2892212,39.7525952 C17.7591821,39.7525952 18.1620142,39.6040635 18.4997363,39.3050098 C18.8374878,39.0079761 19.0795898,38.5379858 19.2280933,37.8991626 L19.2281006,37.8991699 Z M22.0052146,38.2694458 L23.7223218,38.100585 C23.8240535,38.6783901 24.0336011,39.1015518 24.3509937,39.372145 C24.6663379,39.6406899 25.0915479,39.7770254 25.628667,39.7770254 C26.1962939,39.7770254 26.6255688,39.6569832 26.9124243,39.4148794 C27.2013281,39.1747947 27.3457935,38.8940518 27.3457935,38.5725942 C27.3457935,38.3650649 27.2847485,38.1900918 27.1626877,38.0456533 C27.0426455,37.8991689 26.8310496,37.7730142 26.5279026,37.6672451 C26.3224207,37.5940029 25.8504124,37.4678474 25.1159714,37.2847427 C24.1699363,37.0507712 23.5066892,36.7618691 23.1262327,36.4200796 C22.5891135,35.939938 22.3205686,35.3540005 22.3205686,34.6622646 C22.3205686,34.2166982 22.4466953,33.8016689 22.6989768,33.4130801 C22.9512595,33.0265103 23.3154221,32.7315225 23.7894797,32.5280605 C24.265554,32.3266443 24.8372483,32.2249404 25.5086252,32.2249404 C26.6072581,32.2249404 27.4312351,32.4649961 27.9866526,32.9451357 C28.5400364,33.4273232 28.8309568,34.0681924 28.8594456,34.8718105 L27.0955198,34.9491187 C27.020259,34.4995142 26.8574824,34.1760083 26.6092942,33.9807056 C26.3610789,33.7833552 25.9887546,33.6856885 25.4923508,33.6856885 C24.9796555,33.6856885 24.5768235,33.7894675 24.2879197,34.001062 C24.1007483,34.1353203 24.0071482,34.3164062 24.0071482,34.5422192 C24.0071482,34.7497485 24.0946353,34.9267407 24.2696091,35.0732251 C24.4913542,35.2603965 25.0325388,35.4557275 25.8911179,35.6571436 C26.7496677,35.8605781 27.3844236,36.070127 27.7953879,36.2857861 C28.2063816,36.5034944 28.5278098,36.7984814 28.761782,37.174873 C28.9937349,37.5512622 29.1096824,38.0151392 29.1096824,38.5664746 C29.1096824,39.0669727 28.9713584,39.5369336 28.6926047,39.9723218 C28.4138816,40.409729 28.0212278,40.7352515 27.5125974,40.9468481 C27.003967,41.1604617 26.3692112,41.2662598 25.6103464,41.2662598 C24.5056003,41.2662598 23.6572288,41.0119604 23.0651804,40.5012817 C22.4731296,39.9906323 22.1191453,39.2460132 22.0052146,38.2694409 L22.0052146,38.2694458 Z M30.1473044,38.2694458 L31.8644116,38.100585 C31.9661433,38.6783901 32.1756909,39.1015518 32.4930835,39.372145 C32.8084277,39.6406899 33.2336377,39.7770254 33.7707568,39.7770254 C34.3383838,39.7770254 34.7676587,39.6569832 35.0545142,39.4148794 C35.343418,39.1747947 35.4878833,38.8940518 35.4878833,38.5725942 C35.4878833,38.3650649 35.4268384,38.1900918 35.3047776,38.0456533 C35.1847354,37.8991689 34.9731394,37.7730142 34.6699924,37.6672451 C34.4645105,37.5940029 33.9925022,37.4678474 33.2580613,37.2847427 C32.3120261,37.0507712 31.6487791,36.7618691 31.2683225,36.4200796 C30.7312034,35.939938 30.4626584,35.3540005 30.4626584,34.6622646 C30.4626584,34.2166982 30.5887852,33.8016689 30.8410667,33.4130801 C31.0933494,33.0265103 31.457512,32.7315225 31.9315696,32.5280605 C32.4076438,32.3266443 32.9793381,32.2249404 33.6507151,32.2249404 C34.7493479,32.2249404 35.573325,32.4649961 36.1287424,32.9451357 C36.6821262,33.4273232 36.9730466,34.0681924 37.0015354,34.8718105 L35.2376096,34.9491187 C35.1623489,34.4995142 34.9995723,34.1760083 34.751384,33.9807056 C34.5031687,33.7833552 34.1308445,33.6856885 33.6344407,33.6856885 C33.1217454,33.6856885 32.7189133,33.7894675 32.4300095,34.001062 C32.2428381,34.1353203 32.149238,34.3164062 32.149238,34.5422192 C32.149238,34.7497485 32.2367251,34.9267407 32.411699,35.0732251 C32.6334441,35.2603965 33.1746287,35.4557275 34.0332078,35.6571436 C34.8917576,35.8605781 35.5265134,36.070127 35.9374778,36.2857861 C36.3484714,36.5034944 36.6698997,36.7984814 36.9038718,37.174873 C37.1358247,37.5512622 37.2517722,38.0151392 37.2517722,38.5664746 C37.2517722,39.0669727 37.1134482,39.5369336 36.8346946,39.9723218 C36.5559714,40.409729 36.1633176,40.7352515 35.6546873,40.9468481 C35.1460569,41.1604617 34.511301,41.2662598 33.7524363,41.2662598 C32.6476902,41.2662598 31.7993186,41.0119604 31.2072703,40.5012817 C30.6152195,39.9906323 30.2612351,39.2460132 30.1473044,38.2694409 L30.1473044,38.2694458 Z" id="Shape" fill="#FFFFFF" fill-rule="nonzero"></path>
        </g>
    </g>
</svg>