<?xml version="1.0" encoding="UTF-8"?>
<svg width="48px" height="48px" viewBox="0 0 48 48" version="1.1" xmlns="http://www.w3.org/2000/svg" xmlns:xlink="http://www.w3.org/1999/xlink">
    <!-- Generator: Sketch 59.1 (86144) - https://sketch.com -->
    <title>1768 - EXE</title>
    <desc>Created with Sketch.</desc>
    <g id="File-type-Icon-Set" stroke="none" stroke-width="1" fill="none" fill-rule="evenodd">
        <g id="1767---DB" transform="translate(-1.000000, -1.000000)">
            <rect id="Rectangle" x="0" y="0" width="50" height="50"></rect>
            <rect id="Rectangle" x="6.24997559" y="6.24997559" width="37.5" height="37.5"></rect>
            <path d="M31.8161621,6.44527832 L39.8425049,14.4813721 L33.2511475,14.4813721 C32.4618896,14.4813721 31.8161621,13.8356592 31.8161621,13.0464014 L31.8161621,6.44527832 L31.8161621,6.44527832 Z" id="Path" fill="#F4511E"></path>
            <path d="M11.1047607,6.44528809 L31.8175293,6.44528809 L31.8175293,13.0064941 C31.8175293,13.8177246 32.4812085,14.4813745 33.2924097,14.4813745 L39.8437769,14.4813745 L39.8437769,34.3750024 C39.8437769,34.9121216 39.404353,35.3515454 38.8672339,35.3515454 L11.1047827,35.3515454 C10.5676636,35.3515454 10.1282397,34.9121216 10.1282397,34.3750024 L10.1282397,7.42187744 C10.1282397,6.8847583 10.5676636,6.44528809 11.1047827,6.44528809 L11.1047607,6.44528809 Z" id="Path" fill="#FFAB91"></path>
            <polygon id="Path" fill="#F4511E" fill-rule="nonzero" points="16.4062256 18.6362793 34.375 18.6362793 34.375 20.1988281 16.4062256 20.1988281"></polygon>
            <polygon id="Path" fill="#F4511E" fill-rule="nonzero" points="16.4062256 24.1049072 34.375 24.1049072 34.375 25.6674805 16.4062256 25.6674805"></polygon>
            <path d="M8.23720703,29.9362793 L41.7628418,29.9362793 C42.3091016,29.9362793 42.8061694,30.1617156 43.1669019,30.5248413 C43.5267114,30.8870435 43.7500708,31.3851489 43.7500708,31.9315527 L43.7500708,41.5593115 C43.7500708,42.1057153 43.5266819,42.6037915 43.1669019,42.9659961 C42.8061401,43.3291211 42.3090747,43.5545874 41.7628418,43.5545874 L8.23720703,43.5545874 C7.69100342,43.5545874 7.19387939,43.3291223 6.83311768,42.9659961 C6.4733374,42.6038501 6.24997559,42.1057739 6.24997559,41.5593115 L6.24997559,31.9315527 C6.24997559,31.3851196 6.47333569,30.8870435 6.83311768,30.5248413 C7.1938208,30.1617163 7.69094482,29.9362793 8.23720703,29.9362793 Z" id="Path" fill="#F4511E"></path>
            <path d="M17.3685474,32.3764604 L20.5932617,32.3764604 C21.3195703,32.3764604 21.8729541,32.4313965 22.2554272,32.5433071 C22.7681226,32.6938574 23.2075757,32.9624038 23.57177,33.3489712 C23.937981,33.7334927 24.2167065,34.205502 24.4079419,34.7629507 C24.5971606,35.3224185 24.6927783,36.0100869 24.6927783,36.8299966 C24.6927783,37.5481753 24.6032439,38.1687148 24.4242334,38.6895425 C24.2065251,39.3242983 23.8952466,39.839042 23.4883472,40.2316958 C23.1831812,40.5307778 22.7701685,40.7627017 22.2493433,40.9295156 C21.8607568,41.0536238 21.3398999,41.1146685 20.6868335,41.1146685 L17.3685474,41.1146685 L17.3685474,32.3764604 L17.3685474,32.3764604 Z M19.1324805,33.8555479 L19.1324805,39.641687 L20.4487939,39.641687 C20.9411597,39.641687 21.2971924,39.6152449 21.5169189,39.5582659 C21.8017554,39.487071 22.0397925,39.3670286 22.2289844,39.1961199 C22.4182031,39.0252405 22.5708008,38.7424211 22.690813,38.3518157 C22.8088079,37.9611809 22.8698528,37.4261077 22.8698528,36.7506365 C22.8698528,36.0751921 22.8088079,35.5584319 22.690813,35.1962859 C22.5707996,34.8341399 22.4039575,34.5513494 22.1903442,34.3499333 C21.9746833,34.14647 21.7020435,34.0101653 21.3724536,33.938969 C21.1262842,33.88199 20.6440967,33.8555479 19.9239014,33.8555479 L19.1324805,33.8555479 L19.1324805,33.8555479 Z M26.194248,32.3764578 L29.6875098,32.3764578 C30.3792456,32.3764578 30.8960059,32.4049543 31.2357471,32.4639519 C31.5755151,32.5209309 31.8786646,32.6409443 32.1472095,32.8240496 C32.4157837,33.0071553 32.6375293,33.2492571 32.8165698,33.5544524 C32.9956096,33.8575994 33.0851147,34.1993889 33.0851147,34.5757781 C33.0851147,34.9846941 32.9752515,35.3610857 32.7555249,35.7028728 C32.5337798,36.0446892 32.2346973,36.3010369 31.8583081,36.4719158 C32.389314,36.6265608 32.8003076,36.8910393 33.0851147,37.2633367 C33.3719995,37.6377092 33.5144189,38.0771624 33.5144189,38.581696 C33.5144189,38.9784441 33.4228662,39.3649846 33.2377124,39.7413738 C33.0525596,40.115717 32.8003052,40.4168181 32.4808667,40.6406389 C32.1614551,40.8644314 31.7667554,41.0027556 31.2967944,41.0556682 C31.0038257,41.0861763 30.2937793,41.1065342 29.1687036,41.1146658 L26.194248,41.1146658 L26.194248,32.3764578 L26.194248,32.3764578 Z M27.9601929,33.8311304 L27.9601929,35.8514063 L29.1158057,35.8514063 C29.8034473,35.8514063 30.2307031,35.8412273 30.3975439,35.8208982 C30.698645,35.7862957 30.9366821,35.6825454 31.1096094,35.5096189 C31.2825361,35.3366633 31.3680054,35.1088059 31.3680054,34.8260154 C31.3680054,34.5554221 31.2947632,34.3356956 31.1462312,34.1668357 C30.9956809,33.9979749 30.773907,33.8962424 30.4809382,33.8616697 C30.3059932,33.8413118 29.803448,33.8311304 28.973387,33.8311304 L27.9601929,33.8311304 L27.9601929,33.8311304 Z M27.9601909,37.3060793 L27.9601909,39.6417017 L29.5918799,39.6417017 C30.2286548,39.6417017 30.6314868,39.6254096 30.802395,39.5887886 C31.064856,39.5420173 31.2784692,39.4239934 31.4432642,39.2408882 C31.6080593,39.0557642 31.6914795,38.8075483 31.6914795,38.4983149 C31.6914795,38.235854 31.6263689,38.0140791 31.5002422,37.8309736 C31.3720684,37.6478679 31.1889629,37.5136104 30.9488774,37.4301875 C30.7088218,37.3467664 30.1859478,37.3060793 29.3843486,37.3060793 L27.9601909,37.3060793 L27.9601909,37.3060793 Z" id="Shape" fill="#FFFFFF" fill-rule="nonzero"></path>
        </g>
    </g>
</svg>