<?xml version="1.0" encoding="UTF-8"?>
<svg width="48px" height="48px" viewBox="0 0 48 48" version="1.1" xmlns="http://www.w3.org/2000/svg" xmlns:xlink="http://www.w3.org/1999/xlink">
    <!-- Generator: Sketch 59.1 (86144) - https://sketch.com -->
    <title>1768 - EXE</title>
    <desc>Created with Sketch.</desc>
    <g id="File-type-Icon-Set" stroke="none" stroke-width="1" fill="none" fill-rule="evenodd">
        <g id="1728---DOC" transform="translate(-1.000000, -1.000000)">
            <rect id="Rectangle" x="0" y="0" width="50" height="50"></rect>
            <rect id="Rectangle" x="6.24997559" y="6.24997559" width="37.5" height="37.5"></rect>
            <path d="M31.8161621,6.24996582 L39.8425049,14.2860596 L33.2511475,14.2860596 C32.4618896,14.2860596 31.8161621,13.6403467 31.8161621,12.8510889 L31.8161621,6.24996582 L31.8161621,6.24996582 Z" id="Path" fill="#81D4FA"></path>
            <path d="M11.1047607,6.24997559 L31.8175293,6.24997559 L31.8175293,12.8111816 C31.8175293,13.6224121 32.4812085,14.286062 33.2924097,14.286062 L39.8437769,14.286062 L39.8437769,34.1796899 C39.8437769,34.7168091 39.404353,35.1562329 38.8672339,35.1562329 L11.1047827,35.1562329 C10.5676636,35.1562329 10.1282397,34.7168091 10.1282397,34.1796899 L10.1282397,7.22656494 C10.1282397,6.6894458 10.5676636,6.24997559 11.1047827,6.24997559 L11.1047607,6.24997559 Z" id="Path" fill="#B3E5FC"></path>
            <polygon id="Path" fill="#039BE5" fill-rule="nonzero" points="16.4062256 18.4409912 34.375 18.4409912 34.375 20.0035156 16.4062256 20.0035156"></polygon>
            <polygon id="Path" fill="#039BE5" fill-rule="nonzero" points="16.4062256 23.9096191 34.375 23.9096191 34.375 25.472168 16.4062256 25.472168"></polygon>
            <path d="M8.23720703,29.7409668 L41.7628418,29.7409668 C42.3091016,29.7409668 42.8061694,29.9664031 43.1669019,30.3295288 C43.5267114,30.691731 43.7500708,31.1898364 43.7500708,31.7362402 L43.7500708,41.363999 C43.7500708,41.9104028 43.5266819,42.408479 43.1669019,42.7706836 C42.8061401,43.1338086 42.3090747,43.3592749 41.7628418,43.3592749 L8.23720703,43.3592749 C7.69100342,43.3592749 7.19387939,43.1338098 6.83311768,42.7706836 C6.4733374,42.4085376 6.24997559,41.9104614 6.24997559,41.363999 L6.24997559,31.7362402 C6.24997559,31.1898071 6.47333569,30.691731 6.83311768,30.3295288 C7.1938208,29.9664038 7.69094482,29.7409668 8.23720703,29.7409668 Z" id="Path" fill="#039BE5"></path>
            <path d="M12.6332446,32.1811479 L15.857959,32.1811479 C16.5842676,32.1811479 17.1376514,32.236084 17.5201245,32.3479946 C18.0328198,32.4985449 18.4722729,32.7670913 18.8364673,33.1536587 C19.2026782,33.5381802 19.4814038,34.0101895 19.6726392,34.5676382 C19.8618579,35.127106 19.9574756,35.8147744 19.9574756,36.6346841 C19.9574756,37.3528628 19.8679412,37.9734023 19.6889307,38.49423 C19.4712224,39.1289858 19.1599438,39.6437295 18.7530444,40.0363833 C18.4478784,40.3354653 18.0348657,40.5673892 17.5140405,40.7342031 C17.1254541,40.8583113 16.6045972,40.919356 15.9515308,40.919356 L12.6332446,40.919356 L12.6332446,32.1811479 L12.6332446,32.1811479 Z M14.3971777,33.6602354 L14.3971777,39.4463745 L15.7134912,39.4463745 C16.2058569,39.4463745 16.5618896,39.4199324 16.7816162,39.3629534 C17.0664526,39.2917585 17.3044897,39.1717161 17.4936816,39.0008074 C17.6829004,38.829928 17.835498,38.5471086 17.9555103,38.1565032 C18.0735051,37.7658684 18.13455,37.2307952 18.13455,36.555324 C18.13455,35.8798796 18.0735051,35.3631194 17.9555103,35.0009734 C17.8354968,34.6388274 17.6686548,34.3560369 17.4550415,34.1546208 C17.2393806,33.9511575 16.9667407,33.8148528 16.6371509,33.7436565 C16.3909814,33.6866775 15.9087939,33.6602354 15.1885986,33.6602354 L14.3971777,33.6602354 L14.3971777,33.6602354 Z M21.0967871,36.604187 C21.0967871,35.7130542 21.2290269,34.966416 21.4955542,34.362168 C21.6949231,33.9186499 21.9655151,33.5178345 22.3093506,33.1638208 C22.653186,32.8118555 23.0295752,32.5494214 23.4384912,32.3785132 C23.9837427,32.1465891 24.6103662,32.0326587 25.3224609,32.0326587 C26.6102856,32.0326587 27.6397412,32.4313965 28.4128906,33.2309766 C29.186001,34.0285107 29.5725391,35.1393408 29.5725391,36.5614453 C29.5725391,37.9734058 29.1880176,39.0760937 28.4210205,39.8736035 C27.6539966,40.6691187 26.6286035,41.0678857 25.346875,41.0678857 C24.0468262,41.0678857 23.0133032,40.6711377 22.2463135,39.8797168 C21.4792896,39.08625 21.0967871,37.993728 21.0967871,36.6041797 L21.0967871,36.604187 Z M22.9135986,36.5451895 C22.9135986,37.533959 23.1435044,38.2846938 23.5992212,38.7953408 C24.0569849,39.3059902 24.6368384,39.5603188 25.3407715,39.5603188 C26.0426563,39.5603188 26.6204639,39.3080361 27.0721143,38.7994058 C27.5217456,38.2928237 27.7475854,37.533959 27.7475854,36.5207656 C27.7475854,35.5197988 27.5278586,34.7731313 27.0904248,34.2787466 C26.651001,33.7863809 26.0670801,33.5402114 25.3407715,33.5402114 C24.6124146,33.5402114 24.0264771,33.7904751 23.5809106,34.2889248 C23.1373926,34.787377 22.9135986,35.5381094 22.9135986,36.5451895 L22.9135986,36.5451895 Z M36.5407227,37.7068862 L38.2497168,38.2480703 C37.9872559,39.2022378 37.5518677,39.9102358 36.9415356,40.3741128 C36.3332202,40.8359414 35.558064,41.0678945 34.6201611,41.0678945 C33.4604834,41.0678945 32.5063159,40.6711465 31.7596387,39.8797256 C31.0129712,39.0862588 30.6386279,38.0018691 30.6386279,36.6285781 C30.6386279,35.1739126 31.0150171,34.0447646 31.765752,33.2391006 C32.5164551,32.4354824 33.503208,32.0326504 34.727959,32.0326504 C35.796084,32.0326504 36.664812,32.3479946 37.3321338,32.9807046 C37.7309009,33.3530288 38.0279346,33.8901479 38.227334,34.5900161 L36.4796997,35.0070938 C36.377968,34.553395 36.1623071,34.1953164 35.8327173,33.9328555 C35.5051733,33.6704238 35.1064087,33.5402017 34.6384644,33.5402017 C33.9914819,33.5402017 33.464541,33.7721545 33.061709,34.2380508 C32.658877,34.7018984 32.4574609,35.4546792 32.4574609,36.4963345 C32.4574609,37.6010806 32.6548113,38.3884365 33.0535767,38.8563784 C33.4502954,39.3263394 33.9670874,39.5603115 34.6018433,39.5603115 C35.0718042,39.5603115 35.4746362,39.4117798 35.8123584,39.1127261 C36.1501099,38.8156924 36.3922119,38.3457021 36.5407153,37.7068789 L36.5407227,37.7068862 Z" id="Shape" fill="#FFFFFF" fill-rule="nonzero"></path>
        </g>
    </g>
</svg>