<?xml version="1.0" encoding="UTF-8"?>
<svg width="48px" height="48px" viewBox="0 0 48 48" version="1.1" xmlns="http://www.w3.org/2000/svg" xmlns:xlink="http://www.w3.org/1999/xlink">
    <!-- Generator: Sketch 59.1 (86144) - https://sketch.com -->
    <title>1768 - EXE</title>
    <desc>Created with Sketch.</desc>
    <g id="File-type-Icon-Set" stroke="none" stroke-width="1" fill="none" fill-rule="evenodd">
        <g id="1729---DOCX" transform="translate(-1.000000, -1.000000)">
            <rect id="Rectangle" x="0" y="0" width="50" height="50"></rect>
            <rect id="Rectangle" x="6.24997559" y="6.24997559" width="37.5" height="37.5"></rect>
            <path d="M31.8161621,6.24996582 L39.8425049,14.2860596 L33.2511475,14.2860596 C32.4618896,14.2860596 31.8161621,13.6403467 31.8161621,12.8510889 L31.8161621,6.24996582 L31.8161621,6.24996582 Z" id="Path" fill="#A5D6A7"></path>
            <path d="M11.1047607,6.24997559 L31.8175293,6.24997559 L31.8175293,12.8111816 C31.8175293,13.6224121 32.4812085,14.286062 33.2924097,14.286062 L39.8437769,14.286062 L39.8437769,34.1796899 C39.8437769,34.7168091 39.404353,35.1562329 38.8672339,35.1562329 L11.1047827,35.1562329 C10.5676636,35.1562329 10.1282397,34.7168091 10.1282397,34.1796899 L10.1282397,7.22656494 C10.1282397,6.6894458 10.5676636,6.24997559 11.1047827,6.24997559 L11.1047607,6.24997559 Z" id="Path" fill="#C8E6C9"></path>
            <polygon id="Path" fill="#43A047" fill-rule="nonzero" points="16.4062256 18.4409912 34.375 18.4409912 34.375 20.0035156 16.4062256 20.0035156"></polygon>
            <polygon id="Path" fill="#43A047" fill-rule="nonzero" points="16.4062256 23.9096191 34.375 23.9096191 34.375 25.472168 16.4062256 25.472168"></polygon>
            <path d="M8.23720703,29.7409668 L41.7628418,29.7409668 C42.3091016,29.7409668 42.8061694,29.9664031 43.1669019,30.3295288 C43.5267114,30.691731 43.7500708,31.1898364 43.7500708,31.7362402 L43.7500708,41.363999 C43.7500708,41.9104028 43.5266819,42.408479 43.1669019,42.7706836 C42.8061401,43.1338086 42.3090747,43.3592749 41.7628418,43.3592749 L8.23720703,43.3592749 C7.69100342,43.3592749 7.19387939,43.1338098 6.83311768,42.7706836 C6.4733374,42.4085376 6.24997559,41.9104614 6.24997559,41.363999 L6.24997559,31.7362402 C6.24997559,31.1898071 6.47333569,30.691731 6.83311768,30.3295288 C7.1938208,29.9664038 7.69094482,29.7409668 8.23720703,29.7409668 Z" id="Path" fill="#43A047"></path>
            <path d="M8.25804932,32.1811479 L11.4827637,32.1811479 C12.2090723,32.1811479 12.7624561,32.236084 13.1449292,32.3479946 C13.6576245,32.4985449 14.0970776,32.7670913 14.461272,33.1536587 C14.8274829,33.5381802 15.1062085,34.0101895 15.2974438,34.5676382 C15.4866626,35.127106 15.5822803,35.8147744 15.5822803,36.6346841 C15.5822803,37.3528628 15.4927458,37.9734023 15.3137354,38.49423 C15.0960271,39.1289858 14.7847485,39.6437295 14.3778491,40.0363833 C14.0726831,40.3354653 13.6596704,40.5673892 13.1388452,40.7342031 C12.7502588,40.8583113 12.2294019,40.919356 11.5763354,40.919356 L8.25804932,40.919356 L8.25804932,32.1811479 L8.25804932,32.1811479 Z M10.0219824,33.6602354 L10.0219824,39.4463745 L11.3382959,39.4463745 C11.8306616,39.4463745 12.1866943,39.4199324 12.4064209,39.3629534 C12.6912573,39.2917585 12.9292944,39.1717161 13.1184863,39.0008074 C13.3077051,38.829928 13.4603027,38.5471086 13.5803149,38.1565032 C13.6983098,37.7658684 13.7593547,37.2307952 13.7593547,36.555324 C13.7593547,35.8798796 13.6983098,35.3631194 13.5803149,35.0009734 C13.4603015,34.6388274 13.2934595,34.3560369 13.0798462,34.1546208 C12.8641853,33.9511575 12.5915454,33.8148528 12.2619556,33.7436565 C12.0157861,33.6866775 11.5335986,33.6602354 10.8134033,33.6602354 L10.0219824,33.6602354 L10.0219824,33.6602354 Z M16.7215918,36.604187 C16.7215918,35.7130542 16.8538315,34.966416 17.1203589,34.362168 C17.3197278,33.9186499 17.5903198,33.5178345 17.9341553,33.1638208 C18.2779907,32.8118555 18.6543799,32.5494214 19.0632959,32.3785132 C19.6085474,32.1465891 20.2351709,32.0326587 20.9472656,32.0326587 C22.2350903,32.0326587 23.2645459,32.4313965 24.0376953,33.2309766 C24.8108057,34.0285107 25.1973438,35.1393408 25.1973438,36.5614453 C25.1973438,37.9734058 24.8128223,39.0760937 24.0458252,39.8736035 C23.2788013,40.6691187 22.2534082,41.0678857 20.9716797,41.0678857 C19.6716309,41.0678857 18.6381079,40.6711377 17.8711182,39.8797168 C17.1040942,39.08625 16.7215918,37.993728 16.7215918,36.6041797 L16.7215918,36.604187 Z M18.5384033,36.5451895 C18.5384033,37.533959 18.7683091,38.2846938 19.2240259,38.7953408 C19.6817896,39.3059902 20.2616431,39.5603188 20.9655762,39.5603188 C21.6674609,39.5603188 22.2452686,39.3080361 22.6969189,38.7994058 C23.1465503,38.2928237 23.3723901,37.533959 23.3723901,36.5207656 C23.3723901,35.5197988 23.1526633,34.7731313 22.7152295,34.2787466 C22.2758057,33.7863809 21.6918848,33.5402114 20.9655762,33.5402114 C20.2372192,33.5402114 19.6512817,33.7904751 19.2057153,34.2889248 C18.7621973,34.787377 18.5384033,35.5381094 18.5384033,36.5451895 L18.5384033,36.5451895 Z M32.1655273,37.7068862 L33.8745215,38.2480703 C33.6120605,39.2022378 33.1766724,39.9102358 32.5663403,40.3741128 C31.9580249,40.8359414 31.1828687,41.0678945 30.2449658,41.0678945 C29.0852881,41.0678945 28.1311206,40.6711465 27.3844434,39.8797256 C26.6377759,39.0862588 26.2634326,38.0018691 26.2634326,36.6285781 C26.2634326,35.1739126 26.6398218,34.0447646 27.3905566,33.2391006 C28.1412598,32.4354824 29.1280127,32.0326504 30.3527637,32.0326504 C31.4208887,32.0326504 32.2896167,32.3479946 32.9569385,32.9807046 C33.3557056,33.3530288 33.6527393,33.8901479 33.8521387,34.5900161 L32.1045044,35.0070938 C32.0027727,34.553395 31.7871118,34.1953164 31.457522,33.9328555 C31.129978,33.6704238 30.7312134,33.5402017 30.263269,33.5402017 C29.6162866,33.5402017 29.0893457,33.7721545 28.6865137,34.2380508 C28.2836816,34.7018984 28.0822656,35.4546792 28.0822656,36.4963345 C28.0822656,37.6010806 28.279616,38.3884365 28.6783813,38.8563784 C29.0751001,39.3263394 29.5918921,39.5603115 30.2266479,39.5603115 C30.6966089,39.5603115 31.0994409,39.4117798 31.4371631,39.1127261 C31.7749146,38.8156924 32.0170166,38.3457021 32.16552,37.7068789 L32.1655273,37.7068862 Z M34.5011475,40.9193618 L37.487793,36.3600356 L34.7819336,32.1811538 L36.8428662,32.1811538 L38.5966138,34.988771 L40.3117212,32.1811538 L42.3563916,32.1811538 L39.6383008,36.4251479 L42.6249463,40.9193618 L40.4968555,40.9193618 L38.5600024,37.8981216 L36.6170654,40.9193618 L34.5011475,40.9193618 L34.5011475,40.9193618 Z" id="Shape" fill="#FFFFFF" fill-rule="nonzero"></path>
        </g>
    </g>
</svg>