<?xml version="1.0" encoding="UTF-8"?>
<svg width="48px" height="48px" viewBox="0 0 48 48" version="1.1" xmlns="http://www.w3.org/2000/svg" xmlns:xlink="http://www.w3.org/1999/xlink">
    <!-- Generator: Sketch 59.1 (86144) - https://sketch.com -->
    <title>1768 - EXE</title>
    <desc>Created with Sketch.</desc>
    <g id="File-type-Icon-Set" stroke="none" stroke-width="1" fill="none" fill-rule="evenodd">
        <g id="1724---EPS" transform="translate(-1.000000, -1.000000)">
            <rect id="Rectangle" x="0" y="0" width="50" height="50"></rect>
            <rect id="Rectangle" x="6.24997559" y="6.24997559" width="37.5" height="37.5"></rect>
            <g id="_297523408" transform="translate(6.225586, 6.225586)">
                <g id="Group" transform="translate(3.881836, 0.000000)">
                    <path d="M0.997338867,0.0243896484 L21.7101074,0.0243896484 L21.7101074,6.5855957 C21.7101074,7.39682617 22.3737866,8.06047607 23.1849878,8.06047607 L29.736355,8.06047607 L29.736355,27.954104 C29.736355,28.4912231 29.2969312,28.930647 28.759812,28.930647 L0.99736084,28.930647 C0.460241699,28.930647 0.0208178711,28.4912231 0.0208178711,27.954104 L0.0208178711,1.000979 C0.0208178711,0.463859863 0.460241699,0.0243896484 0.99736084,0.0243896484 L0.997338867,0.0243896484 Z" id="_297524152" fill="#D7CCC8"></path>
                    <g transform="translate(6.274414, 0.000000)">
                        <path d="M15.4343262,0.0243798828 L23.4606689,8.06047363 L16.8693115,8.06047363 C16.0800537,8.06047363 15.4343262,7.41476074 15.4343262,6.62550293 L15.4343262,0.0243798828 L15.4343262,0.0243798828 Z" id="_297524056" fill="#A1887F"></path>
                        <g transform="translate(0.000000, 12.207031)" fill="#8D6E63" fill-rule="nonzero">
                            <polygon id="_297523960" points="0.0243896484 0.00837402344 17.9931641 0.00837402344 17.9931641 1.57089844 0.0243896484 1.57089844"></polygon>
                            <polygon id="_297523936" points="0.0243896484 5.47700195 17.9931641 5.47700195 17.9931641 7.03955078 0.0243896484 7.03955078"></polygon>
                        </g>
                    </g>
                </g>
                <g id="Group" transform="translate(0.000000, 23.510742)">
                    <path d="M2.01162109,0.00463867188 L35.5372559,0.00463867188 C36.0835156,0.00463867188 36.5805835,0.230074951 36.9413159,0.593200684 C37.3011255,0.955402832 37.5244849,1.4535083 37.5244849,1.99991211 L37.5244849,11.6276709 C37.5244849,12.1740747 37.3010959,12.6721509 36.9413159,13.0343555 C36.5805542,13.3974805 36.0834888,13.6229468 35.5372559,13.6229468 L2.01162109,13.6229468 C1.46541748,13.6229468 0.968293457,13.3974817 0.607531738,13.0343555 C0.247751465,12.6722095 0.0243896484,12.1741333 0.0243896484,11.6276709 L0.0243896484,1.99991211 C0.0243896484,1.453479 0.247749756,0.955402832 0.607531738,0.593200684 C0.968234863,0.230075684 1.46535889,0.00463867188 2.01162109,0.00463867188 Z" id="_297523576" fill="#8D6E63"></path>
                    <path d="M7.7484375,11.1799316 L7.7484375,2.44172363 L14.2262695,2.44172363 L14.2262695,3.92081299 L9.5123291,3.92081299 L9.5123291,5.85766602 L13.8987305,5.85766602 L13.8987305,7.32859619 L9.5123291,7.32859619 L9.5123291,9.70695068 L14.3931152,9.70695068 L14.3931152,11.1799316 L7.7484375,11.1799316 L7.7484375,11.1799316 Z M15.8905273,11.1799316 L15.8905273,2.44172363 L18.7205078,2.44172363 C19.7927002,2.44172363 20.4925659,2.48647632 20.8180908,2.57396338 C21.3185889,2.70418457 21.7397314,2.98902197 22.0774536,3.4284751 C22.4151758,3.86792822 22.5840356,4.43555518 22.5840356,5.12931006 C22.5840356,5.6664292 22.4863984,6.11807959 22.2910669,6.48224463 C22.0957639,6.84845557 21.8495947,7.13534033 21.5484937,7.34488867 C21.2494116,7.55241797 20.9442456,7.69074316 20.6349829,7.75789893 C20.2138403,7.84129126 19.6035083,7.88402563 18.8039258,7.88402563 L17.6544263,7.88402563 L17.6544263,11.1799316 L15.8905273,11.1799316 L15.8905273,11.1799316 Z M17.6544263,3.92081299 L17.6544263,6.39885254 L18.6188013,6.39885254 C19.3146021,6.39885254 19.780498,6.35407104 20.0144702,6.26251807 C20.2484417,6.17096533 20.4315479,6.02854663 20.5658057,5.83324316 C20.6980454,5.63794019 20.7652034,5.41210059 20.7652034,5.15373389 C20.7652034,4.83634131 20.6716033,4.57388037 20.4844319,4.36638037 C20.2993079,4.16089844 20.0612703,4.03067725 19.7764338,3.97981055 C19.5648386,3.93912354 19.1416487,3.92081299 18.5068928,3.92081299 L17.6544263,3.92081299 L17.6544263,3.92081299 Z M23.5850315,8.33774414 L25.3021387,8.1688833 C25.4038704,8.74668848 25.613418,9.1698501 25.9308105,9.44044336 C26.2461548,9.70898828 26.6713647,9.84532373 27.2084839,9.84532373 C27.7761108,9.84532373 28.2053857,9.72528149 28.4922412,9.48317773 C28.781145,9.24309302 28.9256104,8.9623501 28.9256104,8.64089258 C28.9256104,8.43336328 28.8645654,8.25839014 28.7425046,8.11395166 C28.6224624,7.96746729 28.4108665,7.8413125 28.1077195,7.73554346 C27.9022375,7.66230127 27.4302292,7.53614575 26.6957883,7.35304102 C25.7497532,7.11906958 25.0865061,6.83016748 24.7060496,6.48837793 C24.1689304,6.00823633 23.9003855,5.42229883 23.9003855,4.73056299 C23.9003855,4.28499658 24.0265122,3.86996729 24.2787937,3.48137842 C24.5310764,3.09480859 24.895239,2.7998208 25.3692966,2.59635889 C25.8453708,2.39494263 26.4170652,2.29323877 27.0884421,2.29323877 C28.187075,2.29323877 29.011052,2.53329443 29.5664695,3.01343408 C30.1198533,3.49562158 30.4107737,4.13649072 30.4392625,4.94010889 L28.6753367,5.01741699 C28.6000759,4.5678125 28.4372993,4.24430664 28.1891111,4.04900391 C27.9408958,3.85165356 27.5685715,3.75398682 27.0721677,3.75398682 C26.5594724,3.75398682 26.1566404,3.85776587 25.8677366,4.06936035 C25.6805652,4.20361865 25.5869651,4.38470459 25.5869651,4.61051758 C25.5869651,4.81804687 25.6744521,4.99503906 25.849426,5.14152344 C26.0711711,5.32869482 26.6123557,5.52402588 27.4709348,5.72544189 C28.3294846,5.92887646 28.9642405,6.13842529 29.3752048,6.35408447 C29.7861985,6.57179272 30.1076267,6.86677979 30.3415989,7.24317139 C30.5735518,7.61956055 30.6894993,8.0834375 30.6894993,8.63477295 C30.6894993,9.135271 30.5511753,9.60523193 30.2724216,10.0406201 C29.9936985,10.4780273 29.6010447,10.8035498 29.0924143,11.0151465 C28.5837839,11.22876 27.9490281,11.3345581 27.1901633,11.3345581 C26.0854172,11.3345581 25.2370457,11.0802588 24.6449973,10.5695801 C24.0529465,10.0589307 23.6989622,9.31431152 23.5850315,8.33773926 L23.5850315,8.33774414 Z" id="_297523504" fill="#FFFFFF" fill-rule="nonzero"></path>
                </g>
            </g>
        </g>
    </g>
</svg>