<?xml version="1.0" encoding="UTF-8"?>
<svg width="48px" height="48px" viewBox="0 0 48 48" version="1.1" xmlns="http://www.w3.org/2000/svg" xmlns:xlink="http://www.w3.org/1999/xlink">
    <!-- Generator: Sketch 59.1 (86144) - https://sketch.com -->
    <title>1768 - EXE</title>
    <desc>Created with Sketch.</desc>
    <g id="File-type-Icon-Set" stroke="none" stroke-width="1" fill="none" fill-rule="evenodd">
        <g id="1750---FLV" transform="translate(-1.000000, -1.000000)">
            <rect id="Rectangle" x="0" y="0" width="50" height="50"></rect>
            <rect id="Rectangle" x="6.24997559" y="6.24997559" width="37.5" height="37.5"></rect>
            <path d="M31.8161621,6.44527832 L39.8425049,14.4813721 L33.2511475,14.4813721 C32.4618896,14.4813721 31.8161621,13.8356592 31.8161621,13.0464014 L31.8161621,6.44527832 L31.8161621,6.44527832 Z" id="Path" fill="#FFB74D"></path>
            <path d="M11.1047363,6.44528809 L31.8175049,6.44528809 L31.8175049,13.0064941 C31.8175049,13.8177246 32.4811841,14.4813745 33.2923853,14.4813745 L39.8437524,14.4813745 L39.8437524,34.3750024 C39.8437524,34.9121216 39.4043286,35.3515454 38.8672095,35.3515454 L11.1047583,35.3515454 C10.5676392,35.3515454 10.1282153,34.9121216 10.1282153,34.3750024 L10.1282153,7.42187744 C10.1282153,6.8847583 10.5676392,6.44528809 11.1047583,6.44528809 L11.1047363,6.44528809 Z" id="Path" fill="#FFCC80"></path>
            <path d="M20.8658691,24.9719238 L20.8658691,15.4584961 C23.6124268,17.0441626 26.3595947,18.6287598 29.1060791,20.2144775 L20.8658691,24.9719238 L20.8658691,24.9719238 Z" id="Path" fill="#EF6C00" fill-rule="nonzero"></path>
            <path d="M8.23718262,29.9362793 L41.7628174,29.9362793 C42.3090771,29.9362793 42.806145,30.1617156 43.1668774,30.5248413 C43.526687,30.8870435 43.7500464,31.3851489 43.7500464,31.9315527 L43.7500464,41.5593115 C43.7500464,42.1057153 43.5266575,42.6037915 43.1668774,42.9659961 C42.8061157,43.3291211 42.3090503,43.5545874 41.7628174,43.5545874 L8.23718262,43.5545874 C7.690979,43.5545874 7.19385498,43.3291223 6.83309326,42.9659961 C6.47331299,42.6038501 6.24995117,42.1057739 6.24995117,41.5593115 L6.24995117,31.9315527 C6.24995117,31.3851196 6.47331128,30.8870435 6.83309326,30.5248413 C7.19379639,30.1617163 7.69092041,29.9362793 8.23718262,29.9362793 Z" id="Path" fill="#EF6C00"></path>
            <path d="M14.8305176,41.1145068 L14.8305176,32.3762939 L20.8221191,32.3762939 L20.8221191,33.8553833 L16.5964844,33.8553833 L16.5964844,35.9224292 L20.2443604,35.9224292 L20.2443604,37.4015186 L16.5964844,37.4015186 L16.5964844,41.1145068 L14.8305176,41.1145068 L14.8305176,41.1145068 Z M22.3236084,41.1145044 L22.3236084,32.4475342 L24.0875073,32.4475342 L24.0875073,39.6415283 L28.4739087,39.6415283 L28.4739087,41.1145044 L22.3236084,41.1145044 L22.3236084,41.1145044 Z M31.0556885,41.114502 L27.9327148,32.3762939 L29.8471924,32.3762939 L32.0566577,38.8439941 L34.1969751,32.3762939 L36.0687183,32.3762939 L32.9396411,41.114502 L31.0557007,41.114502 L31.0556885,41.114502 Z" id="Shape" fill="#FFFFFF" fill-rule="nonzero"></path>
        </g>
    </g>
</svg>