<?xml version="1.0" encoding="UTF-8"?>
<svg width="48px" height="48px" viewBox="0 0 48 48" version="1.1" xmlns="http://www.w3.org/2000/svg" xmlns:xlink="http://www.w3.org/1999/xlink">
    <!-- Generator: Sketch 59.1 (86144) - https://sketch.com -->
    <title>1768 - EXE</title>
    <desc>Created with Sketch.</desc>
    <g id="File-type-Icon-Set" stroke="none" stroke-width="1" fill="none" fill-rule="evenodd">
        <g id="1734---GIF" transform="translate(-1.000000, -1.000000)">
            <rect id="Rectangle" x="0" y="0" width="50" height="50"></rect>
            <rect id="Rectangle" x="6.24997559" y="6.24997559" width="37.5" height="37.5"></rect>
            <path d="M31.8161621,6.24996582 L39.8425049,14.2860596 L33.2511475,14.2860596 C32.4618896,14.2860596 31.8161621,13.6403467 31.8161621,12.8510889 L31.8161621,6.24996582 L31.8161621,6.24996582 Z" id="Path" fill="#EF9A9A"></path>
            <path d="M11.1047607,6.24997559 L31.8175293,6.24997559 L31.8175293,12.8111816 C31.8175293,13.6224121 32.4812085,14.286062 33.2924097,14.286062 L39.8437769,14.286062 L39.8437769,34.1796899 C39.8437769,34.7168091 39.404353,35.1562329 38.8672339,35.1562329 L11.1047827,35.1562329 C10.5676636,35.1562329 10.1282397,34.7168091 10.1282397,34.1796899 L10.1282397,7.22656494 C10.1282397,6.6894458 10.5676636,6.24997559 11.1047827,6.24997559 L11.1047607,6.24997559 Z" id="Path" fill="#FFCDD2"></path>
            <polygon id="Path" fill="#D32F2F" fill-rule="nonzero" points="16.4062256 18.4409912 34.375 18.4409912 34.375 20.0035156 16.4062256 20.0035156"></polygon>
            <polygon id="Path" fill="#D32F2F" fill-rule="nonzero" points="16.4062256 23.9096191 34.375 23.9096191 34.375 25.472168 16.4062256 25.472168"></polygon>
            <path d="M8.23720703,29.7409668 L41.7628418,29.7409668 C42.3091016,29.7409668 42.8061694,29.9664031 43.1669019,30.3295288 C43.5267114,30.691731 43.7500708,31.1898364 43.7500708,31.7362402 L43.7500708,41.363999 C43.7500708,41.9104028 43.5266819,42.408479 43.1669019,42.7706836 C42.8061401,43.1338086 42.3090747,43.3592749 41.7628418,43.3592749 L8.23720703,43.3592749 C7.69100342,43.3592749 7.19387939,43.1338098 6.83311768,42.7706836 C6.4733374,42.4085376 6.24997559,41.9104614 6.24997559,41.363999 L6.24997559,31.7362402 C6.24997559,31.1898071 6.47333569,30.691731 6.83311768,30.3295288 C7.1938208,29.9664038 7.69094482,29.7409668 8.23720703,29.7409668 Z" id="Path" fill="#D32F2F"></path>
            <path d="M20.0653076,37.7067871 L20.0653076,36.233811 L23.8677979,36.233811 L23.8677979,39.7148413 C23.497522,40.0729199 22.9624487,40.3882666 22.2605347,40.6608765 C21.5586206,40.9314697 20.8486035,41.0678027 20.1303955,41.0678027 C19.2169141,41.0678027 18.4193823,40.8765366 17.739873,40.4940625 C17.0603345,40.109541 16.5496875,39.5622412 16.2078711,38.8481592 C15.866084,38.1340479 15.6951758,37.3588916 15.6951758,36.5206714 C15.6951758,35.6112573 15.8864419,34.8015259 16.266897,34.0934985 C16.6493726,33.3875464 17.2068188,32.844314 17.9433081,32.4679248 C18.5028027,32.177002 19.2006519,32.0325659 20.0347778,32.0325659 C21.1191675,32.0325659 21.9675659,32.2604243 22.5758911,32.7141235 C23.1862524,33.1698413 23.5789062,33.7985132 23.7538794,34.6021289 L22.0021509,34.9296997 C21.8780715,34.5003955 21.6461182,34.1606567 21.3063501,33.912439 C20.9666089,33.6642236 20.5434204,33.5401147 20.03479,33.5401147 C19.263728,33.5401147 18.6513477,33.7842651 18.195603,34.2725366 C17.7398853,34.7628564 17.5140454,35.487146 17.5140454,36.4494751 C17.5140454,37.4850171 17.7439512,38.2642383 18.2057812,38.7830469 C18.665564,39.3018262 19.269812,39.5602222 20.0164795,39.5602222 C20.3867554,39.5602222 20.757063,39.48698 21.1293579,39.3425139 C21.4996338,39.1980767 21.8190454,39.0210833 22.0855737,38.8156023 L22.0855737,37.7067888 L20.0653271,37.7067888 L20.0653076,37.7067871 Z M25.4404785,40.9192627 L25.4404785,32.1810547 L27.2043774,32.1810547 L27.2043774,40.9192627 L25.4404785,40.9192627 Z M28.8971191,40.9192676 L28.8971191,32.1810547 L34.8887207,32.1810547 L34.8887207,33.660144 L30.6630859,33.660144 L30.6630859,35.7271899 L34.3109619,35.7271899 L34.3109619,37.2062793 L30.6630859,37.2062793 L30.6630859,40.9192676 L28.8971191,40.9192676 L28.8971191,40.9192676 Z" id="Shape" fill="#FFFFFF" fill-rule="nonzero"></path>
        </g>
    </g>
</svg>