<?xml version="1.0" encoding="UTF-8"?>
<svg width="48px" height="48px" viewBox="0 0 48 48" version="1.1" xmlns="http://www.w3.org/2000/svg" xmlns:xlink="http://www.w3.org/1999/xlink">
    <!-- Generator: Sketch 59.1 (86144) - https://sketch.com -->
    <title>1768 - EXE</title>
    <desc>Created with Sketch.</desc>
    <g id="File-type-Icon-Set" stroke="none" stroke-width="1" fill="none" fill-rule="evenodd">
        <g id="1765---HLP" transform="translate(-1.000000, -1.000000)">
            <rect id="Rectangle" x="0" y="0" width="50" height="50"></rect>
            <rect id="Rectangle" x="6.24997559" y="6.24997559" width="37.5" height="37.5"></rect>
            <path d="M31.8161621,6.44527832 L39.8425049,14.4813721 L33.2511475,14.4813721 C32.4618896,14.4813721 31.8161621,13.8356592 31.8161621,13.0464014 L31.8161621,6.44527832 L31.8161621,6.44527832 Z" id="Path" fill="#EF9A9A"></path>
            <path d="M11.1047607,6.44528809 L31.8175293,6.44528809 L31.8175293,13.0064941 C31.8175293,13.8177246 32.4812085,14.4813745 33.2924097,14.4813745 L39.8437769,14.4813745 L39.8437769,34.3750024 C39.8437769,34.9121216 39.404353,35.3515454 38.8672339,35.3515454 L11.1047827,35.3515454 C10.5676636,35.3515454 10.1282397,34.9121216 10.1282397,34.3750024 L10.1282397,7.42187744 C10.1282397,6.8847583 10.5676636,6.44528809 11.1047827,6.44528809 L11.1047607,6.44528809 Z" id="Path" fill="#FFCDD2"></path>
            <polygon id="Path" fill="#D32F2F" fill-rule="nonzero" points="16.4062256 18.6362793 34.375 18.6362793 34.375 20.1988281 16.4062256 20.1988281"></polygon>
            <polygon id="Path" fill="#D32F2F" fill-rule="nonzero" points="16.4062256 24.1049072 34.375 24.1049072 34.375 25.6674805 16.4062256 25.6674805"></polygon>
            <path d="M8.23720703,29.9362793 L41.7628418,29.9362793 C42.3091016,29.9362793 42.8061694,30.1617156 43.1669019,30.5248413 C43.5267114,30.8870435 43.7500708,31.3851489 43.7500708,31.9315527 L43.7500708,41.5593115 C43.7500708,42.1057153 43.5266819,42.6037915 43.1669019,42.9659961 C42.8061401,43.3291211 42.3090747,43.5545874 41.7628418,43.5545874 L8.23720703,43.5545874 C7.69100342,43.5545874 7.19387939,43.3291223 6.83311768,42.9659961 C6.4733374,42.6038501 6.24997559,42.1057739 6.24997559,41.5593115 L6.24997559,31.9315527 C6.24997559,31.3851196 6.47333569,30.8870435 6.83311768,30.5248413 C7.1938208,30.1617163 7.69094482,29.9362793 8.23720703,29.9362793 Z" id="Path" fill="#D32F2F"></path>
            <path d="M13.9658447,41.114502 L13.9658447,32.3762939 L15.7317896,32.3762939 L15.7317896,35.814624 L19.1884302,35.814624 L19.1884302,32.3762939 L20.9523291,32.3762939 L20.9523291,41.114502 L19.1884302,41.114502 L19.1884302,37.2937012 L15.7317896,37.2937012 L15.7317896,41.114502 L13.9658447,41.114502 L13.9658447,41.114502 Z M22.8240967,41.1145044 L22.8240967,32.4475342 L24.5879956,32.4475342 L24.5879956,39.6415283 L28.974397,39.6415283 L28.974397,41.1145044 L22.8240967,41.1145044 L22.8240967,41.1145044 Z M30.2337646,41.114502 L30.2337646,32.3762939 L33.0637451,32.3762939 C34.1359375,32.3762939 34.8358032,32.4210466 35.1613281,32.5085337 C35.6618262,32.6387549 36.0829687,32.9235923 36.4206909,33.3630454 C36.7584131,33.8024985 36.9272729,34.3701255 36.9272729,35.0638804 C36.9272729,35.6009995 36.8296357,36.0526499 36.6343042,36.4168149 C36.4390012,36.7830259 36.192832,37.0699106 35.891731,37.279459 C35.5926489,37.4869883 35.2874829,37.6253135 34.9782202,37.6924692 C34.5570776,37.7758616 33.9467456,37.8185959 33.1471631,37.8185959 L31.9976636,37.8185959 L31.9976636,41.114502 L30.2337646,41.114502 L30.2337646,41.114502 Z M31.9976636,33.8553833 L31.9976636,36.3334229 L32.9620386,36.3334229 C33.6578394,36.3334229 34.1237354,36.2886414 34.3577075,36.1970884 C34.591679,36.1055356 34.7747852,35.9631169 34.909043,35.7678135 C35.0412827,35.5725105 35.1084407,35.3466709 35.1084407,35.0883042 C35.1084407,34.7709116 35.0148406,34.5084507 34.8276692,34.3009507 C34.6425452,34.0954687 34.4045076,33.9652476 34.1196711,33.9143809 C33.9080759,33.8736938 33.484886,33.8553833 32.8501301,33.8553833 L31.9976636,33.8553833 L31.9976636,33.8553833 Z" id="Shape" fill="#FFFFFF" fill-rule="nonzero"></path>
        </g>
    </g>
</svg>