<?xml version="1.0" encoding="UTF-8"?>
<svg width="48px" height="48px" viewBox="0 0 48 48" version="1.1" xmlns="http://www.w3.org/2000/svg" xmlns:xlink="http://www.w3.org/1999/xlink">
    <!-- Generator: Sketch 59.1 (86144) - https://sketch.com -->
    <title>1768 - EXE</title>
    <desc>Created with Sketch.</desc>
    <g id="File-type-Icon-Set" stroke="none" stroke-width="1" fill="none" fill-rule="evenodd">
        <g id="1751---HTML" transform="translate(-1.000000, -1.000000)">
            <rect id="Rectangle" x="0" y="0" width="50" height="50"></rect>
            <rect id="Rectangle" x="6.24997559" y="6.24997559" width="37.5" height="37.5"></rect>
            <g id="_187797600" transform="translate(6.225586, 6.420898)">
                <path d="M25.5905762,0.0243798828 L33.6169189,8.06047363 L27.0255615,8.06047363 C26.2363037,8.06047363 25.5905762,7.41476074 25.5905762,6.62550293 L25.5905762,0.0243798828 L25.5905762,0.0243798828 Z" id="_187798416" fill="#81D4FA"></path>
                <g id="Group">
                    <path d="M4.8791748,0.0243896484 L25.5919434,0.0243896484 L25.5919434,6.5855957 C25.5919434,7.39682617 26.2556226,8.06047607 27.0668237,8.06047607 L33.6181909,8.06047607 L33.6181909,27.954104 C33.6181909,28.4912231 33.1787671,28.930647 32.6416479,28.930647 L4.87919678,28.930647 C4.34207764,28.930647 3.90265381,28.4912231 3.90265381,27.954104 L3.90265381,1.000979 C3.90265381,0.463859863 4.34207764,0.0243896484 4.87919678,0.0243896484 L4.8791748,0.0243896484 Z" id="_187798248" fill="#B3E5FC"></path>
                    <g transform="translate(0.000000, 12.207031)">
                        <polygon id="_187798032" fill="#039BE5" fill-rule="nonzero" points="10.1806396 0.00834960937 28.1494141 0.00834960937 28.1494141 1.57089844 10.1806396 1.57089844"></polygon>
                        <g transform="translate(0.000000, 5.468750)">
                            <polygon id="_187798104" fill="#039BE5" fill-rule="nonzero" points="10.1806396 0.00822753906 28.1494141 0.00822753906 28.1494141 1.57080078 10.1806396 1.57080078"></polygon>
                            <g transform="translate(0.000000, 5.834961)">
                                <path d="M2.01162109,0.00463867188 L35.5372559,0.00463867188 C36.0835156,0.00463867188 36.5805835,0.230074951 36.9413159,0.593200684 C37.3011255,0.955402832 37.5244849,1.4535083 37.5244849,1.99991211 L37.5244849,11.6276709 C37.5244849,12.1740747 37.3010959,12.6721509 36.9413159,13.0343555 C36.5805542,13.3974805 36.0834888,13.6229468 35.5372559,13.6229468 L2.01162109,13.6229468 C1.46541748,13.6229468 0.968293457,13.3974817 0.607531738,13.0343555 C0.247751465,12.6722095 0.0243896484,12.1741333 0.0243896484,11.6276709 L0.0243896484,1.99991211 C0.0243896484,1.453479 0.247749756,0.955402832 0.607531738,0.593200684 C0.968234863,0.230075684 1.46535889,0.00463867188 2.01162109,0.00463867188 Z" id="_187797912" fill="#039BE5"></path>
                                <path d="M3.73535156,11.1828613 L3.73535156,2.44465332 L5.50129639,2.44465332 L5.50129639,5.8829834 L8.95793701,5.8829834 L8.95793701,2.44465332 L10.7218359,2.44465332 L10.7218359,11.1828613 L8.95793701,11.1828613 L8.95793701,7.36206055 L5.50129639,7.36206055 L5.50129639,11.1828613 L3.73535156,11.1828613 L3.73535156,11.1828613 Z M14.5121094,11.1828613 L14.5121094,3.92375488 L11.920166,3.92375488 L11.920166,2.44466553 L18.8639404,2.44466553 L18.8639404,3.92375488 L16.2780762,3.92375488 L16.2780762,11.1828613 L14.5121021,11.1828613 L14.5121094,11.1828613 Z M19.978833,11.1828613 L19.978833,2.44465332 L22.6196289,2.44465332 L24.2045166,8.40576172 L25.7710937,2.44465332 L28.4179687,2.44465332 L28.4179687,11.1828613 L26.7801978,11.1828613 L26.7801978,4.30419922 L25.0447607,11.1828613 L23.3459448,11.1828613 L21.6166211,4.30419922 L21.6166211,11.1828613 L19.978833,11.1828613 L19.978833,11.1828613 Z M30.2185059,11.1828638 L30.2185059,2.51589355 L31.9824048,2.51589355 L31.9824048,9.7098877 L36.3688062,9.7098877 L36.3688062,11.1828638 L30.2185059,11.1828638 L30.2185059,11.1828638 Z" id="_187797888" fill="#FFFFFF" fill-rule="nonzero"></path>
                            </g>
                        </g>
                    </g>
                </g>
            </g>
        </g>
    </g>
</svg>