<?xml version="1.0" encoding="UTF-8"?>
<svg width="48px" height="48px" viewBox="0 0 48 48" version="1.1" xmlns="http://www.w3.org/2000/svg" xmlns:xlink="http://www.w3.org/1999/xlink">
    <!-- Generator: Sketch 59.1 (86144) - https://sketch.com -->
    <title>1768 - EXE</title>
    <desc>Created with Sketch.</desc>
    <g id="File-type-Icon-Set" stroke="none" stroke-width="1" fill="none" fill-rule="evenodd">
        <g id="1758---ISO" transform="translate(-1.000000, -1.000000)">
            <rect id="Rectangle" x="0" y="0" width="50" height="50"></rect>
            <rect id="Rectangle" x="6.24997559" y="6.24997559" width="37.5" height="37.5"></rect>
            <path d="M31.8161621,6.44527832 L39.8425049,14.4813721 L33.2511475,14.4813721 C32.4618896,14.4813721 31.8161621,13.8356592 31.8161621,13.0464014 L31.8161621,6.44527832 L31.8161621,6.44527832 Z" id="Path" fill="#546E7A"></path>
            <path d="M11.1047607,6.44528809 L31.8175293,6.44528809 L31.8175293,13.0064941 C31.8175293,13.8177246 32.4812085,14.4813745 33.2924097,14.4813745 L39.8437769,14.4813745 L39.8437769,34.3750024 C39.8437769,34.9121216 39.404353,35.3515454 38.8672339,35.3515454 L11.1047827,35.3515454 C10.5676636,35.3515454 10.1282397,34.9121216 10.1282397,34.3750024 L10.1282397,7.42187744 C10.1282397,6.8847583 10.5676636,6.44528809 11.1047827,6.44528809 L11.1047607,6.44528809 Z" id="Path" fill="#CFD8DC"></path>
            <polygon id="Path" fill="#546E7A" fill-rule="nonzero" points="16.4062256 18.6362793 34.375 18.6362793 34.375 20.1988281 16.4062256 20.1988281"></polygon>
            <polygon id="Path" fill="#546E7A" fill-rule="nonzero" points="16.4062256 24.1049072 34.375 24.1049072 34.375 25.6674805 16.4062256 25.6674805"></polygon>
            <path d="M8.23720703,29.9362793 L41.7628418,29.9362793 C42.3091016,29.9362793 42.8061694,30.1617156 43.1669019,30.5248413 C43.5267114,30.8870435 43.7500708,31.3851489 43.7500708,31.9315527 L43.7500708,41.5593115 C43.7500708,42.1057153 43.5266819,42.6037915 43.1669019,42.9659961 C42.8061401,43.3291211 42.3090747,43.5545874 41.7628418,43.5545874 L8.23720703,43.5545874 C7.69100342,43.5545874 7.19387939,43.3291223 6.83311768,42.9659961 C6.4733374,42.6038501 6.24997559,42.1057739 6.24997559,41.5593115 L6.24997559,31.9315527 C6.24997559,31.3851196 6.47333569,30.8870435 6.83311768,30.5248413 C7.1938208,30.1617163 7.69094482,29.9362793 8.23720703,29.9362793 Z" id="Path" fill="#546E7A"></path>
            <path d="M15.5639648,41.1115723 L15.5639648,32.3733643 L17.3278638,32.3733643 L17.3278638,41.1115723 L15.5639648,41.1115723 Z M18.5628318,38.2693604 L20.279939,38.1004995 C20.3816707,38.6783047 20.5912183,39.1014663 20.9086108,39.3720596 C21.2239551,39.6406045 21.649165,39.7769399 22.1862842,39.7769399 C22.7539111,39.7769399 23.183186,39.6568977 23.4700415,39.4147939 C23.7589453,39.1747092 23.9034106,38.8939663 23.9034106,38.5725088 C23.9034106,38.3649795 23.8423657,38.1900063 23.7203049,38.0455679 C23.6002627,37.8990835 23.3886667,37.7729287 23.0855198,37.6671597 C22.8800378,37.5939175 22.4080295,37.467762 21.6735886,37.2846572 C20.7275535,37.0506858 20.0643064,36.7617837 19.6838499,36.4199941 C19.1467307,35.9398525 18.8781858,35.353915 18.8781858,34.6621792 C18.8781858,34.2166128 19.0043125,33.8015835 19.256594,33.4129946 C19.5088767,33.0264248 19.8730393,32.731437 20.3470969,32.5279751 C20.8231711,32.3265588 21.3948655,32.224855 22.0662424,32.224855 C23.1648752,32.224855 23.9888523,32.4649106 24.5442698,32.9450503 C25.0976536,33.4272378 25.388574,34.0681069 25.4170627,34.8717251 L23.653137,34.9490332 C23.5778762,34.4994287 23.4150996,34.1759229 23.1669114,33.9806201 C22.918696,33.7832698 22.5463718,33.685603 22.049968,33.685603 C21.5372727,33.685603 21.1344407,33.7893821 20.8455369,34.0009766 C20.6583655,34.1352349 20.5647654,34.3163208 20.5647654,34.5421338 C20.5647654,34.7496631 20.6522524,34.9266553 20.8272263,35.0731396 C21.0489714,35.260311 21.590156,35.4556421 22.4487351,35.6570581 C23.3072849,35.8604927 23.9420408,36.0700415 24.3530051,36.2857007 C24.7639988,36.5034089 25.085427,36.798396 25.3193992,37.1747876 C25.5513521,37.5511768 25.6672996,38.0150537 25.6672996,38.5663892 C25.6672996,39.0668872 25.5289756,39.5368481 25.2502219,39.9722363 C24.9714988,40.4096436 24.578845,40.735166 24.0702146,40.9467627 C23.5615842,41.1603762 22.9268284,41.2661743 22.1679636,41.2661743 C21.0632175,41.2661743 20.2148459,41.011875 19.6227976,40.5011963 C19.0307468,39.9905469 18.6767625,39.2459277 18.5628318,38.2693555 L18.5628318,38.2693604 Z M26.7944336,36.7963843 C26.7944336,35.9052515 26.9266733,35.1586133 27.1932007,34.5543652 C27.3925696,34.1108472 27.6631616,33.7100317 28.0069971,33.3560181 C28.3508325,33.0040527 28.7272217,32.7416187 29.1361377,32.5707104 C29.6813892,32.3387864 30.3080127,32.224856 31.0201074,32.224856 C32.3079321,32.224856 33.3373877,32.6235938 34.1105371,33.4231738 C34.8836475,34.220708 35.2701855,35.3315381 35.2701855,36.7536426 C35.2701855,38.165603 34.8856641,39.268291 34.118667,40.0658008 C33.3516431,40.8613159 32.32625,41.260083 31.0445215,41.260083 C29.7444727,41.260083 28.7109497,40.863335 27.94396,40.0719141 C27.176936,39.2784473 26.7944336,38.1859253 26.7944336,36.796377 L26.7944336,36.7963843 Z M28.6112451,36.7373867 C28.6112451,37.7261563 28.8411509,38.4768911 29.2968677,38.9875381 C29.7546313,39.4981875 30.3344849,39.7525161 31.038418,39.7525161 C31.7403027,39.7525161 32.3181104,39.5002334 32.7697607,38.991603 C33.2193921,38.485021 33.4452319,37.7261563 33.4452319,36.7129629 C33.4452319,35.7119961 33.2255051,34.9653286 32.7880713,34.4709438 C32.3486475,33.9785781 31.7647266,33.7324087 31.038418,33.7324087 C30.310061,33.7324087 29.7241235,33.9826724 29.2785571,34.4811221 C28.8350391,34.9795742 28.6112451,35.7303066 28.6112451,36.7373867 Z" id="Shape" fill="#FFFFFF" fill-rule="nonzero"></path>
        </g>
    </g>
</svg>