<?xml version="1.0" encoding="UTF-8"?>
<svg width="48px" height="48px" viewBox="0 0 48 48" version="1.1" xmlns="http://www.w3.org/2000/svg" xmlns:xlink="http://www.w3.org/1999/xlink">
    <!-- Generator: Sketch 59.1 (86144) - https://sketch.com -->
    <title>1768 - EXE</title>
    <desc>Created with Sketch.</desc>
    <g id="File-type-Icon-Set" stroke="none" stroke-width="1" fill="none" fill-rule="evenodd">
        <g id="1752---JAVA" transform="translate(-1.000000, -1.000000)">
            <rect id="Rectangle" x="0" y="0" width="50" height="50"></rect>
            <rect id="Rectangle" x="6.24997559" y="6.24997559" width="37.5" height="37.5"></rect>
            <path d="M31.8161621,6.44527832 L39.8425049,14.4813721 L33.2511475,14.4813721 C32.4618896,14.4813721 31.8161621,13.8356592 31.8161621,13.0464014 L31.8161621,6.44527832 L31.8161621,6.44527832 Z" id="Path" fill="#A5D6A7"></path>
            <path d="M11.1047607,6.44528809 L31.8175293,6.44528809 L31.8175293,13.0064941 C31.8175293,13.8177246 32.4812085,14.4813745 33.2924097,14.4813745 L39.8437769,14.4813745 L39.8437769,34.3750024 C39.8437769,34.9121216 39.404353,35.3515454 38.8672339,35.3515454 L11.1047827,35.3515454 C10.5676636,35.3515454 10.1282397,34.9121216 10.1282397,34.3750024 L10.1282397,7.42187744 C10.1282397,6.8847583 10.5676636,6.44528809 11.1047827,6.44528809 L11.1047607,6.44528809 Z" id="Path" fill="#C8E6C9"></path>
            <polygon id="Path" fill="#43A047" fill-rule="nonzero" points="16.4062256 18.6362793 34.375 18.6362793 34.375 20.1988281 16.4062256 20.1988281"></polygon>
            <polygon id="Path" fill="#43A047" fill-rule="nonzero" points="16.4062256 24.1049072 34.375 24.1049072 34.375 25.6674805 16.4062256 25.6674805"></polygon>
            <path d="M8.23720703,29.9362793 L41.7628418,29.9362793 C42.3091016,29.9362793 42.8061694,30.1617156 43.1669019,30.5248413 C43.5267114,30.8870435 43.7500708,31.3851489 43.7500708,31.9315527 L43.7500708,41.5593115 C43.7500708,42.1057153 43.5266819,42.6037915 43.1669019,42.9659961 C42.8061401,43.3291211 42.3090747,43.5545874 41.7628418,43.5545874 L8.23720703,43.5545874 C7.69100342,43.5545874 7.19387939,43.3291223 6.83311768,42.9659961 C6.4733374,42.6038501 6.24997559,42.1057739 6.24997559,41.5593115 L6.24997559,31.9315527 C6.24997559,31.3851196 6.47333569,30.8870435 6.83311768,30.5248413 C7.1938208,30.1617163 7.69094482,29.9362793 8.23720703,29.9362793 Z" id="Path" fill="#43A047"></path>
            <path d="M13.6881348,32.3022344 L15.4479956,32.3022344 L15.4479956,37.834082 C15.4479956,38.5563257 15.382885,39.1137744 15.2567583,39.5023608 C15.0858501,40.0109912 14.7765898,40.4199365 14.3269854,40.7271216 C13.877354,41.0363818 13.2853008,41.1889795 12.5508599,41.1889795 C11.6882158,41.1889795 11.0249712,40.9488948 10.5590752,40.4646875 C10.0951982,39.9825 9.85920703,39.274502 9.85716113,38.3406616 L11.519356,38.1494243 C11.5397138,38.6498931 11.6129561,39.0039067 11.7390828,39.211436 C11.9303201,39.5247344 12.2212703,39.681397 12.6098591,39.681397 C13.0025129,39.681397 13.2812361,39.5694863 13.4440144,39.3436748 C13.6067622,39.1198823 13.688136,38.653958 13.688136,37.94596 L13.688136,32.3022344 L13.6881348,32.3022344 Z M25.2054688,41.0404541 L23.2849072,41.0404541 L22.5219775,39.0547827 L19.0287158,39.0547827 L18.3084912,41.0404541 L16.436748,41.0404541 L19.840459,32.3022461 L21.7061182,32.3022461 L25.2054688,41.0404541 L25.2054688,41.0404541 Z M21.9563721,37.5838135 L20.7519409,34.3408203 L19.5719336,37.5838135 L21.9563721,37.5838135 L21.9563721,37.5838135 Z M27.4637939,41.0404541 L24.3408203,32.3022461 L26.2552979,32.3022461 L28.4647632,38.7699463 L30.6050806,32.3022461 L32.4768237,32.3022461 L29.3477466,41.0404541 L27.4638062,41.0404541 L27.4637939,41.0404541 Z M40.3523926,41.0404541 L38.4318311,41.0404541 L37.6689014,39.0547827 L34.1756396,39.0547827 L33.455415,41.0404541 L31.5836719,41.0404541 L34.9873828,32.3022461 L36.853042,32.3022461 L40.3523926,41.0404541 L40.3523926,41.0404541 Z M37.1032959,37.5838135 L35.8988647,34.3408203 L34.7188574,37.5838135 L37.1032959,37.5838135 Z" id="Shape" fill="#FFFFFF" fill-rule="nonzero"></path>
        </g>
    </g>
</svg>