<?xml version="1.0" encoding="UTF-8"?>
<svg width="48px" height="48px" viewBox="0 0 48 48" version="1.1" xmlns="http://www.w3.org/2000/svg" xmlns:xlink="http://www.w3.org/1999/xlink">
    <!-- Generator: Sketch 59.1 (86144) - https://sketch.com -->
    <title>1768 - EXE</title>
    <desc>Created with Sketch.</desc>
    <g id="File-type-Icon-Set" stroke="none" stroke-width="1" fill="none" fill-rule="evenodd">
        <g id="1737---JPG" transform="translate(-1.000000, -1.000000)">
            <rect id="Rectangle" x="0" y="0" width="50" height="50"></rect>
            <rect id="Rectangle" x="6.24997559" y="6.24997559" width="37.5" height="37.5"></rect>
            <path d="M31.8161621,6.44527832 L39.8425049,14.4813721 L33.2511475,14.4813721 C32.4618896,14.4813721 31.8161621,13.8356592 31.8161621,13.0464014 L31.8161621,6.44527832 L31.8161621,6.44527832 Z" id="Path" fill="#A5D6A7"></path>
            <path d="M11.1047607,6.44528809 L31.8175293,6.44528809 L31.8175293,13.0064941 C31.8175293,13.8177246 32.4812085,14.4813745 33.2924097,14.4813745 L39.8437769,14.4813745 L39.8437769,34.3750024 C39.8437769,34.9121216 39.404353,35.3515454 38.8672339,35.3515454 L11.1047827,35.3515454 C10.5676636,35.3515454 10.1282397,34.9121216 10.1282397,34.3750024 L10.1282397,7.42187744 C10.1282397,6.8847583 10.5676636,6.44528809 11.1047827,6.44528809 L11.1047607,6.44528809 Z" id="Path" fill="#C8E6C9"></path>
            <polygon id="Path" fill="#43A047" fill-rule="nonzero" points="16.4062256 18.6362793 34.375 18.6362793 34.375 20.1988281 16.4062256 20.1988281"></polygon>
            <polygon id="Path" fill="#43A047" fill-rule="nonzero" points="16.4062256 24.1049072 34.375 24.1049072 34.375 25.6674805 16.4062256 25.6674805"></polygon>
            <path d="M8.23720703,29.9362793 L41.7628418,29.9362793 C42.3091016,29.9362793 42.8061694,30.1617156 43.1669019,30.5248413 C43.5267114,30.8870435 43.7500708,31.3851489 43.7500708,31.9315527 L43.7500708,41.5593115 C43.7500708,42.1057153 43.5266819,42.6037915 43.1669019,42.9659961 C42.8061401,43.3291211 42.3090747,43.5545874 41.7628418,43.5545874 L8.23720703,43.5545874 C7.69100342,43.5545874 7.19387939,43.3291223 6.83311768,42.9659961 C6.4733374,42.6038501 6.24997559,42.1057739 6.24997559,41.5593115 L6.24997559,31.9315527 C6.24997559,31.3851196 6.47333569,30.8870435 6.83311768,30.5248413 C7.1938208,30.1617163 7.69094482,29.9362793 8.23720703,29.9362793 Z" id="Path" fill="#43A047"></path>
            <path d="M17.1967529,32.3764556 L18.9565576,32.3764556 L18.9565576,37.9082031 C18.9565576,38.6304468 18.8914758,39.1878955 18.7653203,39.5764819 C18.5944409,40.085083 18.2851787,40.4940283 17.8355767,40.8012427 C17.3859453,41.1104761 16.7939214,41.2630444 16.0594805,41.2630444 C15.1968364,41.2630444 14.5336187,41.0229888 14.0676958,40.5387817 C13.6038481,40.0566235 13.3678569,39.348623 13.365811,38.4147852 L15.0279766,38.2235479 C15.0483344,38.7240166 15.1215767,39.0780303 15.2477034,39.2855327 C15.4389407,39.5988604 15.7298909,39.7554937 16.1184797,39.7554937 C16.5111335,39.7554937 16.7898567,39.6436118 16.9526057,39.4177715 C17.1153535,39.193979 17.1967561,38.728084 17.1967561,38.0200835 L17.1967561,32.3764556 L17.1967529,32.3764556 Z M20.834375,41.114553 L20.834375,32.3764648 L23.6643555,32.3764648 C24.7365186,32.3764648 25.4363843,32.4212175 25.7619092,32.5087046 C26.2623779,32.638897 26.6835205,32.9237339 27.0212427,33.363187 C27.3589648,33.8026401 27.5278247,34.3702402 27.5278247,35.0639927 C27.5278247,35.6011118 27.4301875,36.0527622 27.234856,36.4169272 C27.039553,36.7831382 26.7933838,37.0699937 26.4922827,37.279542 C26.1932007,37.4870713 25.8880347,37.6254233 25.5788013,37.6925522 C25.1576587,37.7759734 24.5473267,37.818679 23.7477734,37.818679 L22.5982739,37.818679 L22.5982739,41.114553 L20.834375,41.114553 L20.834375,41.114553 Z M22.5982727,33.8555103 L22.5982727,36.3335205 L23.5626196,36.3335205 C24.2584204,36.3335205 24.7243164,36.288739 24.9582886,36.197186 C25.1922312,36.1056333 25.3753369,35.9632434 25.509624,35.7679111 C25.6418638,35.5726082 25.7089929,35.3467979 25.7089929,35.0884019 C25.7089929,34.7710386 25.6154216,34.5085776 25.4282507,34.3010483 C25.2430979,34.0955664 25.0050598,33.9653745 24.7202527,33.9145078 C24.5086575,33.8738208 24.0854968,33.8555103 23.4507385,33.8555103 L22.5982727,33.8555103 L22.5982727,33.8555103 Z M33.0412915,37.9020996 L33.0412915,36.4291528 L36.8437085,36.4291528 L36.8437085,39.9101587 C36.4734326,40.2682104 35.9383594,40.5835547 35.2364746,40.8561938 C34.5345898,41.1267578 33.8245435,41.263064 33.1063647,41.263064 C32.1928833,41.263064 31.3953809,41.0718267 30.7158716,40.689353 C30.036333,40.3048315 29.525686,39.757561 29.1838965,39.0434497 C28.8421094,38.3293677 28.6712012,37.554209 28.6712012,36.7160181 C28.6712012,35.806604 28.8624385,34.9968726 29.2428955,34.2888745 C29.6253711,33.5829224 30.1828174,33.0397192 30.9193066,32.6633301 C31.4788013,32.3724072 32.1766211,32.2279419 33.0107471,32.2279419 C34.0951367,32.2279419 34.9435059,32.4558003 35.5518115,32.9094995 C36.1621436,33.3652173 36.5548267,33.9938892 36.7297705,34.7975049 L34.9780981,35.1250488 C34.85399,34.6957739 34.6220654,34.3560059 34.2822974,34.1078174 C33.9425293,33.8596021 33.5193677,33.7354932 33.0107373,33.7354932 C32.2396753,33.7354932 31.6272949,33.9796436 31.1715796,34.467915 C30.7158618,34.9582349 30.490022,35.6824976 30.490022,36.6447949 C30.490022,37.6803662 30.7199277,38.4595581 31.1817578,38.9783667 C31.6415405,39.497146 32.2457886,39.7555127 32.9924268,39.7555127 C33.3627026,39.7555127 33.732981,39.6822993 34.1053052,39.5378333 C34.4755811,39.393396 34.7949927,39.2163757 35.0614917,39.0108923 L35.0614917,37.9021082 L33.0412744,37.9021082 L33.0412915,37.9020996 Z" id="Shape" fill="#FFFFFF" fill-rule="nonzero"></path>
        </g>
    </g>
</svg>