<?xml version="1.0" encoding="UTF-8"?>
<svg width="48px" height="48px" viewBox="0 0 48 48" version="1.1" xmlns="http://www.w3.org/2000/svg" xmlns:xlink="http://www.w3.org/1999/xlink">
    <!-- Generator: Sketch 59.1 (86144) - https://sketch.com -->
    <title>1768 - EXE</title>
    <desc>Created with Sketch.</desc>
    <g id="File-type-Icon-Set" stroke="none" stroke-width="1" fill="none" fill-rule="evenodd">
        <g id="1757---JS" transform="translate(-1.000000, -1.000000)">
            <rect id="Rectangle" x="0" y="0" width="50" height="50"></rect>
            <rect id="Rectangle" x="6.24997559" y="6.24997559" width="37.5" height="37.5"></rect>
            <path d="M31.8161621,6.44527832 L39.8425049,14.4813721 L33.2511475,14.4813721 C32.4618896,14.4813721 31.8161621,13.8356592 31.8161621,13.0464014 L31.8161621,6.44527832 L31.8161621,6.44527832 Z" id="Path" fill="#7986CB"></path>
            <path d="M11.1047607,6.44528809 L31.8175293,6.44528809 L31.8175293,13.0064941 C31.8175293,13.8177246 32.4812085,14.4813745 33.2924097,14.4813745 L39.8437769,14.4813745 L39.8437769,34.3750024 C39.8437769,34.9121216 39.404353,35.3515454 38.8672339,35.3515454 L11.1047827,35.3515454 C10.5676636,35.3515454 10.1282397,34.9121216 10.1282397,34.3750024 L10.1282397,7.42187744 C10.1282397,6.8847583 10.5676636,6.44528809 11.1047827,6.44528809 L11.1047607,6.44528809 Z" id="Path" fill="#C5CAE9"></path>
            <polygon id="Path" fill="#3949AB" fill-rule="nonzero" points="16.4062256 18.6362793 34.375 18.6362793 34.375 20.1988281 16.4062256 20.1988281"></polygon>
            <polygon id="Path" fill="#3949AB" fill-rule="nonzero" points="16.4062256 24.1049072 34.375 24.1049072 34.375 25.6674805 16.4062256 25.6674805"></polygon>
            <path d="M8.23720703,29.9362793 L41.7628418,29.9362793 C42.3091016,29.9362793 42.8061694,30.1617156 43.1669019,30.5248413 C43.5267114,30.8870435 43.7500708,31.3851489 43.7500708,31.9315527 L43.7500708,41.5593115 C43.7500708,42.1057153 43.5266819,42.6037915 43.1669019,42.9659961 C42.8061401,43.3291211 42.3090747,43.5545874 41.7628418,43.5545874 L8.23720703,43.5545874 C7.69100342,43.5545874 7.19387939,43.3291223 6.83311768,42.9659961 C6.4733374,42.6038501 6.24997559,42.1057739 6.24997559,41.5593115 L6.24997559,31.9315527 C6.24997559,31.3851196 6.47333569,30.8870435 6.83311768,30.5248413 C7.1938208,30.1617163 7.69094482,29.9362793 8.23720703,29.9362793 Z" id="Path" fill="#3949AB"></path>
            <path d="M21.8729492,32.3732793 L23.6328101,32.3732793 L23.6328101,37.905127 C23.6328101,38.6273706 23.5676995,39.1848193 23.4415728,39.5734058 C23.2706646,40.0820361 22.9614043,40.4909814 22.5117998,40.7981665 C22.0621685,41.1074268 21.4701152,41.2600244 20.7356743,41.2600244 C19.8730303,41.2600244 19.2097856,41.0199397 18.7438896,40.5357324 C18.2800127,40.0535449 18.0440215,39.3455469 18.0419756,38.4117065 L19.7041704,38.2204692 C19.7245283,38.720938 19.7977705,39.0749517 19.9238972,39.282481 C20.1151345,39.5957793 20.4060847,39.7524419 20.7946736,39.7524419 C21.1873274,39.7524419 21.4660505,39.6405312 21.6288289,39.4147197 C21.7915767,39.1909272 21.8729504,38.7250029 21.8729504,38.0170049 L21.8729504,32.3732793 L21.8729492,32.3732793 Z M25.0630759,38.2692871 L26.7801831,38.1004263 C26.8819148,38.6782314 27.0914624,39.1013931 27.408855,39.3719863 C27.7241992,39.6405312 28.1494092,39.7768667 28.6865283,39.7768667 C29.2541553,39.7768667 29.6834302,39.6568245 29.9702856,39.4147207 C30.2591895,39.174636 30.4036548,38.8938931 30.4036548,38.5724355 C30.4036548,38.3649063 30.3426099,38.1899331 30.2205491,38.0454946 C30.1005068,37.8990103 29.8889109,37.7728555 29.5857639,37.6670864 C29.380282,37.5938442 28.9082737,37.4676887 28.1738328,37.284584 C27.2277976,37.0506125 26.5645505,36.7617104 26.184094,36.4199209 C25.6469749,35.9397793 25.3784299,35.3538418 25.3784299,34.662106 C25.3784299,34.2165396 25.5045566,33.8015103 25.7568381,33.4129214 C26.0091208,33.0263516 26.3732834,32.7313638 26.8473411,32.5279019 C27.3234153,32.3264856 27.8951096,32.2247817 28.5664866,32.2247817 C29.6651194,32.2247817 30.4890964,32.4648374 31.0445139,32.9449771 C31.5978977,33.4271646 31.8888181,34.0680337 31.9173069,34.8716519 L30.1533811,34.94896 C30.0781204,34.4993555 29.9153438,34.1758496 29.6671555,33.9805469 C29.4189402,33.7831965 29.046616,33.6855298 28.5502122,33.6855298 C28.0375168,33.6855298 27.6346848,33.7893088 27.345781,34.0009033 C27.1586096,34.1351616 27.0650095,34.3162476 27.0650095,34.5420605 C27.0650095,34.7495898 27.1524966,34.926582 27.3274705,35.0730664 C27.5492156,35.2602378 28.0904001,35.4555688 28.9489792,35.6569849 C29.8075291,35.8604194 30.4422849,36.0699683 30.8532493,36.2856274 C31.2642429,36.5033357 31.5856711,36.7983228 31.8196433,37.1747144 C32.0515962,37.5511035 32.1675437,38.0149805 32.1675437,38.5663159 C32.1675437,39.066814 32.0292197,39.5367749 31.7504661,39.9721631 C31.4717429,40.4095703 31.0790891,40.7350928 30.5704587,40.9466895 C30.0618284,41.160303 29.4270725,41.2661011 28.6682078,41.2661011 C27.5634617,41.2661011 26.7150901,41.0118018 26.1230417,40.501123 C25.530991,39.9904736 25.1770066,39.2458545 25.0630759,38.2692822 L25.0630759,38.2692871 Z" id="Shape" fill="#FFFFFF" fill-rule="nonzero"></path>
        </g>
    </g>
</svg>