<?xml version="1.0" encoding="UTF-8"?>
<svg width="48px" height="48px" viewBox="0 0 48 48" version="1.1" xmlns="http://www.w3.org/2000/svg" xmlns:xlink="http://www.w3.org/1999/xlink">
    <!-- Generator: Sketch 59.1 (86144) - https://sketch.com -->
    <title>1768 - EXE</title>
    <desc>Created with Sketch.</desc>
    <g id="File-type-Icon-Set" stroke="none" stroke-width="1" fill="none" fill-rule="evenodd">
        <g id="1745---MOV" transform="translate(-1.000000, -1.000000)">
            <rect id="Rectangle" x="0" y="0" width="50" height="50"></rect>
            <rect id="Rectangle" x="6.24997559" y="6.24997559" width="37.5" height="37.5"></rect>
            <g id="_298037728" transform="translate(6.225586, 6.420898)">
                <g id="Group" transform="translate(3.881836, 0.000000)">
                    <g>
                        <path d="M21.7087402,0.0243798828 L29.735083,8.06047363 L23.1437256,8.06047363 C22.3544678,8.06047363 21.7087402,7.41476074 21.7087402,6.62550293 L21.7087402,0.0243798828 L21.7087402,0.0243798828 Z" id="_298038496" fill="#80CBC4"></path>
                        <path d="M0.997338867,0.0243896484 L21.7101074,0.0243896484 L21.7101074,6.5855957 C21.7101074,7.39682617 22.3737866,8.06047607 23.1849878,8.06047607 L29.736355,8.06047607 L29.736355,27.954104 C29.736355,28.4912231 29.2969312,28.930647 28.759812,28.930647 L0.99736084,28.930647 C0.460241699,28.930647 0.0208178711,28.4912231 0.0208178711,27.954104 L0.0208178711,1.000979 C0.0208178711,0.463859863 0.460241699,0.0243896484 0.99736084,0.0243896484 L0.997338867,0.0243896484 Z" id="_298038232" fill="#B2DFDB"></path>
                    </g>
                    <path d="M10.7584961,18.5510254 L10.7584961,9.03759766 C13.5050537,10.6232642 16.2522217,12.2078613 18.9987061,13.7935791 L10.7584961,18.5510254 L10.7584961,18.5510254 Z" id="_298038064" fill="#00897B" fill-rule="nonzero"></path>
                </g>
                <g id="Group" transform="translate(0.000000, 23.510742)">
                    <path d="M2.01162109,0.00463867188 L35.5372559,0.00463867188 C36.0835156,0.00463867188 36.5805835,0.230074951 36.9413159,0.593200684 C37.3011255,0.955402832 37.5244849,1.4535083 37.5244849,1.99991211 L37.5244849,11.6276709 C37.5244849,12.1740747 37.3010959,12.6721509 36.9413159,13.0343555 C36.5805542,13.3974805 36.0834888,13.6229468 35.5372559,13.6229468 L2.01162109,13.6229468 C1.46541748,13.6229468 0.968293457,13.3974817 0.607531738,13.0343555 C0.247751465,12.6722095 0.0243896484,12.1741333 0.0243896484,11.6276709 L0.0243896484,1.99991211 C0.0243896484,1.453479 0.247749756,0.955402832 0.607531738,0.593200684 C0.968234863,0.230075684 1.46535889,0.00463867188 2.01162109,0.00463867188 Z" id="_298037920" fill="#00897B"></path>
                    <path d="M5.74240723,11.1828613 L5.74240723,2.44465332 L8.38320312,2.44465332 L9.96809082,8.40576172 L11.534668,2.44465332 L14.181543,2.44465332 L14.181543,11.1828613 L12.543772,11.1828613 L12.543772,4.30419922 L10.808335,11.1828613 L9.10951904,11.1828613 L7.38019531,4.30419922 L7.38019531,11.1828613 L5.74240723,11.1828613 L5.74240723,11.1828613 Z M15.5771973,6.86767578 C15.5771973,5.97654297 15.709437,5.22990479 15.9759644,4.62565674 C16.1753333,4.18213867 16.4459253,3.78132324 16.7897607,3.42730957 C17.1335962,3.07534424 17.5099854,2.81291016 17.9189014,2.64200195 C18.4641528,2.41007788 19.0907764,2.29614746 19.8028711,2.29614746 C21.0906958,2.29614746 22.1201514,2.69488525 22.8933008,3.49446533 C23.6664111,4.29199951 24.0529492,5.40282959 24.0529492,6.82493408 C24.0529492,8.23689453 23.6684277,9.33958252 22.9014307,10.1370923 C22.1344067,10.9326074 21.1090137,11.3313745 19.8272852,11.3313745 C18.5272363,11.3313745 17.4937134,10.9346265 16.7267236,10.1432056 C15.9596997,9.34973877 15.5771973,8.2572168 15.5771973,6.86766846 L15.5771973,6.86767578 Z M17.3940088,6.80867822 C17.3940088,7.79744775 17.6239146,8.54818262 18.0796313,9.05882959 C18.537395,9.569479 19.1172485,9.82380762 19.8211816,9.82380762 C20.5230664,9.82380762 21.100874,9.5715249 21.5525244,9.06289453 C22.0021558,8.5563125 22.2279956,7.79744775 22.2279956,6.78425439 C22.2279956,5.7832876 22.0082688,5.03662012 21.570835,4.54223535 C21.1314111,4.04986963 20.5474902,3.8037002 19.8211816,3.8037002 C19.0928247,3.8037002 18.5068872,4.05396387 18.0613208,4.55241357 C17.6178027,5.05086572 17.3940088,5.80159814 17.3940088,6.80867822 L17.3940088,6.80867822 Z M27.6580957,11.1828481 L24.5351221,2.44464014 L26.4495996,2.44464014 L28.6590649,8.91234033 L30.7993823,2.44464014 L32.6711255,2.44464014 L29.5420483,11.1828481 L27.6581079,11.1828481 L27.6580957,11.1828481 Z" id="_298037824" fill="#FFFFFF" fill-rule="nonzero"></path>
                </g>
            </g>
        </g>
    </g>
</svg>