<?xml version="1.0" encoding="UTF-8"?>
<svg width="48px" height="48px" viewBox="0 0 48 48" version="1.1" xmlns="http://www.w3.org/2000/svg" xmlns:xlink="http://www.w3.org/1999/xlink">
    <!-- Generator: Sketch 59.1 (86144) - https://sketch.com -->
    <title>1768 - EXE</title>
    <desc>Created with Sketch.</desc>
    <g id="File-type-Icon-Set" stroke="none" stroke-width="1" fill="none" fill-rule="evenodd">
        <g id="1747---MPG" transform="translate(-1.000000, -1.000000)">
            <rect id="Rectangle" x="0" y="0" width="50" height="50"></rect>
            <rect id="Rectangle" x="6.24997559" y="6.24997559" width="37.5" height="37.5"></rect>
            <path d="M31.8161621,6.44527832 L39.8425049,14.4813721 L33.2511475,14.4813721 C32.4618896,14.4813721 31.8161621,13.8356592 31.8161621,13.0464014 L31.8161621,6.44527832 L31.8161621,6.44527832 Z" id="Path" fill="#CE93D8"></path>
            <path d="M11.1047363,6.44528809 L31.8175049,6.44528809 L31.8175049,13.0064941 C31.8175049,13.8177246 32.4811841,14.4813745 33.2923853,14.4813745 L39.8437524,14.4813745 L39.8437524,34.3750024 C39.8437524,34.9121216 39.4043286,35.3515454 38.8672095,35.3515454 L11.1047583,35.3515454 C10.5676392,35.3515454 10.1282153,34.9121216 10.1282153,34.3750024 L10.1282153,7.42187744 C10.1282153,6.8847583 10.5676392,6.44528809 11.1047583,6.44528809 L11.1047363,6.44528809 Z" id="Path" fill="#E1BEE7"></path>
            <path d="M20.8658691,24.9719238 L20.8658691,15.4584961 C23.6124268,17.0441626 26.3595947,18.6287598 29.1060791,20.2144775 L20.8658691,24.9719238 L20.8658691,24.9719238 Z" id="Path" fill="#8E24AA" fill-rule="nonzero"></path>
            <path d="M8.23718262,29.9362793 L41.7628174,29.9362793 C42.3090771,29.9362793 42.806145,30.1617156 43.1668774,30.5248413 C43.526687,30.8870435 43.7500464,31.3851489 43.7500464,31.9315527 L43.7500464,41.5593115 C43.7500464,42.1057153 43.5266575,42.6037915 43.1668774,42.9659961 C42.8061157,43.3291211 42.3090503,43.5545874 41.7628174,43.5545874 L8.23718262,43.5545874 C7.690979,43.5545874 7.19385498,43.3291223 6.83309326,42.9659961 C6.47331299,42.6038501 6.24995117,42.1057739 6.24995117,41.5593115 L6.24995117,31.9315527 C6.24995117,31.3851196 6.47331128,30.8870435 6.83309326,30.5248413 C7.19379639,30.1617163 7.69092041,29.9362793 8.23718262,29.9362793 Z" id="Path" fill="#8E24AA"></path>
            <path d="M12.3311279,41.114502 L12.3311279,32.3762939 L14.9719238,32.3762939 L16.5568115,38.3374023 L18.1233887,32.3762939 L20.7702637,32.3762939 L20.7702637,41.114502 L19.1324927,41.114502 L19.1324927,34.2358398 L17.3970557,41.114502 L15.6982397,41.114502 L13.968916,34.2358398 L13.968916,41.114502 L12.3311279,41.114502 L12.3311279,41.114502 Z M22.523999,41.114502 L22.523999,32.3762939 L25.3539795,32.3762939 C26.4261719,32.3762939 27.1260376,32.4210466 27.4515625,32.5085337 C27.9520605,32.6387549 28.3732031,32.9235923 28.7109253,33.3630454 C29.0486475,33.8024985 29.2175073,34.3701255 29.2175073,35.0638804 C29.2175073,35.6009995 29.1198701,36.0526499 28.9245386,36.4168149 C28.7292356,36.7830259 28.4830664,37.0699106 28.1819653,37.279459 C27.8828833,37.4869883 27.5777173,37.6253135 27.2684546,37.6924692 C26.847312,37.7758616 26.23698,37.8185959 25.4373975,37.8185959 L24.2878979,37.8185959 L24.2878979,41.114502 L22.523999,41.114502 L22.523999,41.114502 Z M24.2878979,33.8553833 L24.2878979,36.3334229 L25.2522729,36.3334229 C25.9480737,36.3334229 26.4139697,36.2886414 26.6479419,36.1970884 C26.8819133,36.1055356 27.0650195,35.9631169 27.1992773,35.7678135 C27.3315171,35.5725105 27.398675,35.3466709 27.398675,35.0883042 C27.398675,34.7709116 27.305075,34.5084507 27.1179036,34.3009507 C26.9327795,34.0954687 26.6947419,33.9652476 26.4099055,33.9143809 C26.1983103,33.8736938 25.7751204,33.8553833 25.1403645,33.8553833 L24.2878979,33.8553833 L24.2878979,33.8553833 Z M34.7310376,37.9020264 L34.7310376,36.4290503 L38.5335278,36.4290503 L38.5335278,39.9100806 C38.163252,40.2681592 37.6281787,40.5835059 36.9262646,40.8561157 C36.2243506,41.126709 35.5143335,41.263042 34.7961255,41.263042 C33.882644,41.263042 33.0851123,41.0717759 32.405603,40.6893018 C31.7260645,40.3047803 31.2154175,39.7574805 30.8736011,39.0433984 C30.531814,38.3292871 30.3609058,37.5541309 30.3609058,36.7159106 C30.3609058,35.8064966 30.5521719,34.9967651 30.932627,34.2887378 C31.3151025,33.5827856 31.8725488,33.0395532 32.6090381,32.6631641 C33.1685327,32.3722412 33.8663818,32.2278052 34.7005078,32.2278052 C35.7848975,32.2278052 36.6332959,32.4556636 37.2416211,32.9093628 C37.8519824,33.3650806 38.2446362,33.9937524 38.4196094,34.7973682 L36.6678809,35.124939 C36.5438015,34.6956348 36.3118481,34.355896 35.9720801,34.1076782 C35.6323389,33.8594629 35.2091504,33.735354 34.70052,33.735354 C33.929458,33.735354 33.3170776,33.9795044 32.861333,34.4677759 C32.4056152,34.9580957 32.1797754,35.6823853 32.1797754,36.6447144 C32.1797754,37.6802563 32.4096812,38.4594775 32.8715112,38.9782861 C33.3312939,39.4970654 33.935542,39.7554614 34.6822095,39.7554614 C35.0524854,39.7554614 35.422793,39.6822192 35.7950879,39.5377532 C36.1653638,39.3933159 36.4847754,39.2163225 36.7513037,39.0108416 L36.7513037,37.9020281 L34.7310571,37.9020281 L34.7310376,37.9020264 Z" id="Shape" fill="#FFFFFF" fill-rule="nonzero"></path>
        </g>
    </g>
</svg>