<?xml version="1.0" encoding="UTF-8"?>
<svg width="48px" height="48px" viewBox="0 0 48 48" version="1.1" xmlns="http://www.w3.org/2000/svg" xmlns:xlink="http://www.w3.org/1999/xlink">
    <!-- Generator: Sketch 59.1 (86144) - https://sketch.com -->
    <title>1768 - EXE</title>
    <desc>Created with Sketch.</desc>
    <g id="File-type-Icon-Set" stroke="none" stroke-width="1" fill="none" fill-rule="evenodd">
        <g id="1741---MPEG" transform="translate(-1.000000, -1.000000)">
            <path d="M31.8161621,6.44527832 L39.8425049,14.4813721 L33.2511475,14.4813721 C32.4618896,14.4813721 31.8161621,13.8356592 31.8161621,13.0464014 L31.8161621,6.44527832 L31.8161621,6.44527832 Z" id="Path" fill="#F4511E"></path>
            <path d="M11.1047607,6.44528809 L31.8175293,6.44528809 L31.8175293,13.0064941 C31.8175293,13.8177246 32.4812085,14.4813745 33.2924097,14.4813745 L39.8437769,14.4813745 L39.8437769,34.3750024 C39.8437769,34.9121216 39.404353,35.3515454 38.8672339,35.3515454 L11.1047827,35.3515454 C10.5676636,35.3515454 10.1282397,34.9121216 10.1282397,34.3750024 L10.1282397,7.42187744 C10.1282397,6.8847583 10.5676636,6.44528809 11.1047827,6.44528809 L11.1047607,6.44528809 Z" id="Path" fill="#FFAB91"></path>
            <path d="M20.865918,24.9719238 L20.865918,15.4584961 C23.6124756,17.0441626 26.3596436,18.6287598 29.1061279,20.2144775 L20.865918,24.9719238 L20.865918,24.9719238 Z" id="Path" fill="#F4511E" fill-rule="nonzero"></path>
            <path d="M8.23720703,29.9362793 L41.7628418,29.9362793 C42.3091016,29.9362793 42.8061694,30.1617156 43.1669019,30.5248413 C43.5267114,30.8870435 43.7500708,31.3851489 43.7500708,31.9315527 L43.7500708,41.5593115 C43.7500708,42.1057153 43.5266819,42.6037915 43.1669019,42.9659961 C42.8061401,43.3291211 42.3090747,43.5545874 41.7628418,43.5545874 L8.23720703,43.5545874 C7.69100342,43.5545874 7.19387939,43.3291223 6.83311768,42.9659961 C6.4733374,42.6038501 6.24997559,42.1057739 6.24997559,41.5593115 L6.24997559,31.9315527 C6.24997559,31.3851196 6.47333569,30.8870435 6.83311768,30.5248413 C7.1938208,30.1617163 7.69094482,29.9362793 8.23720703,29.9362793 Z" id="Path" fill="#F4511E"></path>
            <path d="M8.26010742,41.114502 L8.26010742,32.3762939 L10.9009033,32.3762939 L12.485791,38.3374023 L14.0523682,32.3762939 L16.6992432,32.3762939 L16.6992432,41.114502 L15.0614722,41.114502 L15.0614722,34.2358398 L13.3260352,41.114502 L11.6272192,41.114502 L9.89789551,34.2358398 L9.89789551,41.114502 L8.26010742,41.114502 L8.26010742,41.114502 Z M18.4529785,41.114502 L18.4529785,32.3762939 L21.282959,32.3762939 C22.3551514,32.3762939 23.0550171,32.4210466 23.380542,32.5085337 C23.88104,32.6387549 24.3021826,32.9235923 24.6399048,33.3630454 C24.977627,33.8024985 25.1464868,34.3701255 25.1464868,35.0638804 C25.1464868,35.6009995 25.0488496,36.0526499 24.8535181,36.4168149 C24.6582151,36.7830259 24.4120459,37.0699106 24.1109448,37.279459 C23.8118628,37.4869883 23.5066968,37.6253135 23.1974341,37.6924692 C22.7762915,37.7758616 22.1659595,37.8185959 21.366377,37.8185959 L20.2168774,37.8185959 L20.2168774,41.114502 L18.4529785,41.114502 L18.4529785,41.114502 Z M20.2168774,33.8553833 L20.2168774,36.3334229 L21.1812524,36.3334229 C21.8770532,36.3334229 22.3429492,36.2886414 22.5769214,36.1970884 C22.8108928,36.1055356 22.993999,35.9631169 23.1282568,35.7678135 C23.2604966,35.5725105 23.3276545,35.3466709 23.3276545,35.0883042 C23.3276545,34.7709116 23.2340544,34.5084507 23.0468831,34.3009507 C22.861759,34.0954687 22.6237214,33.9652476 22.338885,33.9143809 C22.1272898,33.8736938 21.7040999,33.8553833 21.069344,33.8553833 L20.2168774,33.8553833 L20.2168774,33.8553833 Z M26.5950757,41.114502 L26.5950757,32.3762939 L33.0729077,32.3762939 L33.0729077,33.8553833 L28.3589673,33.8553833 L28.3589673,35.7922363 L32.7453687,35.7922363 L32.7453687,37.2631665 L28.3589673,37.2631665 L28.3589673,39.641521 L33.2397534,39.641521 L33.2397534,41.114502 L26.5950757,41.114502 L26.5950757,41.114502 Z M38.8021069,37.9020264 L38.8021069,36.4290503 L42.6045972,36.4290503 L42.6045972,39.9100806 C42.2343213,40.2681592 41.699248,40.5835059 40.997334,40.8561157 C40.2954199,41.126709 39.5854028,41.263042 38.8671948,41.263042 C37.9537134,41.263042 37.1561816,41.0717759 36.4766724,40.6893018 C35.7971338,40.3047803 35.2864868,39.7574805 34.9446704,39.0433984 C34.6028833,38.3292871 34.4319751,37.5541309 34.4319751,36.7159106 C34.4319751,35.8064966 34.6232412,34.9967651 35.0036963,34.2887378 C35.3861719,33.5827856 35.9436182,33.0395532 36.6801074,32.6631641 C37.2396021,32.3722412 37.9374512,32.2278052 38.7715771,32.2278052 C39.8559668,32.2278052 40.7043652,32.4556636 41.3126904,32.9093628 C41.9230518,33.3650806 42.3157056,33.9937524 42.4906787,34.7973682 L40.7389502,35.124939 C40.6148708,34.6956348 40.3829175,34.355896 40.0431494,34.1076782 C39.7034082,33.8594629 39.2802197,33.735354 38.7715894,33.735354 C38.0005273,33.735354 37.388147,33.9795044 36.9324023,34.4677759 C36.4766846,34.9580957 36.2508447,35.6823853 36.2508447,36.6447144 C36.2508447,37.6802563 36.4807505,38.4594775 36.9425806,38.9782861 C37.4023633,39.4970654 38.0066113,39.7554614 38.7532788,39.7554614 C39.1235547,39.7554614 39.4938623,39.6822192 39.8661572,39.5377532 C40.2364331,39.3933159 40.5558447,39.2163225 40.822373,39.0108416 L40.822373,37.9020281 L38.8021265,37.9020281 L38.8021069,37.9020264 Z" id="Shape" fill="#FFFFFF" fill-rule="nonzero"></path>
            <rect id="Rectangle" x="0" y="0" width="50" height="50"></rect>
            <rect id="Rectangle" x="6.24997559" y="6.24997559" width="37.5" height="37.5"></rect>
        </g>
    </g>
</svg>