<?xml version="1.0" encoding="UTF-8"?>
<svg width="48px" height="48px" viewBox="0 0 48 48" version="1.1" xmlns="http://www.w3.org/2000/svg" xmlns:xlink="http://www.w3.org/1999/xlink">
    <!-- Generator: Sketch 59.1 (86144) - https://sketch.com -->
    <title>1768 - EXE</title>
    <desc>Created with Sketch.</desc>
    <g id="File-type-Icon-Set" stroke="none" stroke-width="1" fill="none" fill-rule="evenodd">
        <g id="1744---MP3" transform="translate(-1.000000, -1.000000)">
            <rect id="Rectangle" x="0" y="0" width="50" height="50"></rect>
            <rect id="Rectangle" x="6.24997559" y="6.24997559" width="37.5" height="37.5"></rect>
            <g id="_298036240" transform="translate(6.225586, 6.420898)">
                <g id="Group" transform="translate(3.881836, 0.000000)">
                    <g>
                        <path d="M21.7087402,0.0243798828 L29.735083,8.06047363 L23.1437256,8.06047363 C22.3544678,8.06047363 21.7087402,7.41476074 21.7087402,6.62550293 L21.7087402,0.0243798828 L21.7087402,0.0243798828 Z" id="_298037008" fill="#EF9A9A"></path>
                        <path d="M0.997338867,0.0243896484 L21.7101074,0.0243896484 L21.7101074,6.5855957 C21.7101074,7.39682617 22.3737866,8.06047607 23.1849878,8.06047607 L29.736355,8.06047607 L29.736355,27.954104 C29.736355,28.4912231 29.2969312,28.930647 28.759812,28.930647 L0.99736084,28.930647 C0.460241699,28.930647 0.0208178711,28.4912231 0.0208178711,27.954104 L0.0208178711,1.000979 C0.0208178711,0.463859863 0.460241699,0.0243896484 0.99736084,0.0243896484 L0.997338867,0.0243896484 Z" id="_298036744" fill="#FFCDD2"></path>
                    </g>
                    <path d="M10.7584961,18.5510254 L10.7584961,9.03759766 C13.5050537,10.6232642 16.2522217,12.2078613 18.9987061,13.7935791 L10.7584961,18.5510254 L10.7584961,18.5510254 Z" id="_298036576" fill="#D32F2F" fill-rule="nonzero"></path>
                </g>
                <g id="Group" transform="translate(0.000000, 23.510742)">
                    <path d="M2.01162109,0.00463867188 L35.5372559,0.00463867188 C36.0835156,0.00463867188 36.5805835,0.230074951 36.9413159,0.593200684 C37.3011255,0.955402832 37.5244849,1.4535083 37.5244849,1.99991211 L37.5244849,11.6276709 C37.5244849,12.1740747 37.3010959,12.6721509 36.9413159,13.0343555 C36.5805542,13.3974805 36.0834888,13.6229468 35.5372559,13.6229468 L2.01162109,13.6229468 C1.46541748,13.6229468 0.968293457,13.3974817 0.607531738,13.0343555 C0.247751465,12.6722095 0.0243896484,12.1741333 0.0243896484,11.6276709 L0.0243896484,1.99991211 C0.0243896484,1.453479 0.247749756,0.955402832 0.607531738,0.593200684 C0.968234863,0.230075684 1.46535889,0.00463867188 2.01162109,0.00463867188 Z" id="_298036432" fill="#D32F2F"></path>
                    <path d="M7.35170898,11.1269531 L7.35170898,2.38874512 L9.99250488,2.38874512 L11.5773926,8.34985352 L13.1439697,2.38874512 L15.7908447,2.38874512 L15.7908447,11.1269531 L14.1530737,11.1269531 L14.1530737,4.24829102 L12.4176367,11.1269531 L10.7188208,11.1269531 L8.98949707,4.24829102 L8.98949707,11.1269531 L7.35170898,11.1269531 L7.35170898,11.1269531 Z M17.5445801,11.1269531 L17.5445801,2.38874512 L20.3745605,2.38874512 C21.4467529,2.38874512 22.1466187,2.4334978 22.4721436,2.52098486 C22.9726416,2.65120605 23.3937842,2.93604346 23.7315063,3.37549658 C24.0692285,3.81494971 24.2380884,4.38257666 24.2380884,5.07633154 C24.2380884,5.61345068 24.1404512,6.06510107 23.9451196,6.42926611 C23.7498167,6.79547705 23.5036475,7.08236182 23.2025464,7.29191016 C22.9034644,7.49943945 22.5982983,7.63776465 22.2890356,7.70492041 C21.8678931,7.78831274 21.257561,7.83104712 20.4579785,7.83104712 L19.308479,7.83104712 L19.308479,11.1269531 L17.5445801,11.1269531 L17.5445801,11.1269531 Z M19.308479,3.86783447 L19.308479,6.34587402 L20.272854,6.34587402 C20.9686548,6.34587402 21.4345508,6.30109253 21.6685229,6.20953955 C21.9024944,6.11798682 22.0856006,5.97556812 22.2198584,5.78026465 C22.3520981,5.58496167 22.4192561,5.35912207 22.4192561,5.10075537 C22.4192561,4.78336279 22.325656,4.52090186 22.1384846,4.31340186 C21.9533606,4.10791992 21.715323,3.97769873 21.4304866,3.92683203 C21.2188914,3.88614502 20.7957014,3.86783447 20.1609456,3.86783447 L19.308479,3.86783447 L19.308479,3.86783447 Z M25.2574048,8.8076416 L26.8768652,8.61230981 C26.9297495,9.02532007 27.0681025,9.34066675 27.2959619,9.55837427 C27.5218018,9.77810107 27.79646,9.88796411 28.1179175,9.88796411 C28.463772,9.88796411 28.7546924,9.75572437 28.9907104,9.4932644 C29.2267004,9.23080347 29.3447241,8.87883813 29.3447241,8.43329858 C29.3447241,8.01215601 29.2328135,7.67847192 29.0049561,7.43230249 C28.7791162,7.18408716 28.502439,7.06202661 28.1769141,7.06202661 C27.9632717,7.06202661 27.7069238,7.10271362 27.4078711,7.18613477 L27.5929951,5.82302197 C28.0466938,5.8332009 28.3925752,5.73553491 28.6306123,5.52800488 C28.8686497,5.31845703 28.9886641,5.04175244 28.9886641,4.69589795 C28.9886641,4.40091016 28.901177,4.16693799 28.7262324,3.99196484 C28.5512585,3.81699097 28.3172871,3.72950391 28.0283833,3.72950391 C27.7415278,3.72950391 27.4973774,3.82918823 27.2959614,4.02858594 C27.0925269,4.22593628 26.9684175,4.51685742 26.9256855,4.89731396 L25.3814863,4.63690137 C25.4893313,4.10794141 25.6500605,3.68475293 25.8677388,3.36940625 C26.0833997,3.05406201 26.3865474,2.80584424 26.7730879,2.62478711 C27.1616743,2.44369995 27.5950435,2.35214795 28.0751851,2.35214795 C28.8991597,2.35214795 29.5583394,2.61460889 30.0547432,3.13950146 C30.4636885,3.56877637 30.6691694,4.05301221 30.6691694,4.59416699 C30.6691694,5.36119092 30.2500728,5.97357129 29.411855,6.42928906 C29.912353,6.53713403 30.3110908,6.77718945 30.6122212,7.15156201 C30.9112739,7.52385693 31.0618257,7.97553662 31.0618257,8.50449658 C31.0618257,9.27149365 30.7810835,9.92458936 30.2215864,10.4657441 C29.6620918,11.0049116 28.964272,11.2755024 28.1301167,11.2755024 C27.3386958,11.2755024 26.6835835,11.0476152 26.1627559,10.593918 C25.6419282,10.1382002 25.3408003,9.54413281 25.2574048,8.80764355 L25.2574048,8.8076416 Z" id="_298036336" fill="#FFFFFF" fill-rule="nonzero"></path>
                </g>
            </g>
        </g>
    </g>
</svg>