<?xml version="1.0" encoding="UTF-8"?>
<svg width="48px" height="48px" viewBox="0 0 48 48" version="1.1" xmlns="http://www.w3.org/2000/svg" xmlns:xlink="http://www.w3.org/1999/xlink">
    <!-- Generator: Sketch 59.1 (86144) - https://sketch.com -->
    <title>1768 - EXE</title>
    <desc>Created with Sketch.</desc>
    <g id="File-type-Icon-Set" stroke="none" stroke-width="1" fill="none" fill-rule="evenodd">
        <g id="1740---PDF" transform="translate(-1.000000, -1.000000)">
            <rect id="Rectangle" x="0" y="0" width="50" height="50"></rect>
            <rect id="Rectangle" x="6.24997559" y="6.24997559" width="37.5" height="37.5"></rect>
            <path d="M31.8161621,6.44527832 L39.8425049,14.4813721 L33.2511475,14.4813721 C32.4618896,14.4813721 31.8161621,13.8356592 31.8161621,13.0464014 L31.8161621,6.44527832 L31.8161621,6.44527832 Z" id="Path" fill="#EF9A9A"></path>
            <path d="M11.1047607,6.44528809 L31.8175293,6.44528809 L31.8175293,13.0064941 C31.8175293,13.8177246 32.4812085,14.4813745 33.2924097,14.4813745 L39.8437769,14.4813745 L39.8437769,34.3750024 C39.8437769,34.9121216 39.404353,35.3515454 38.8672339,35.3515454 L11.1047827,35.3515454 C10.5676636,35.3515454 10.1282397,34.9121216 10.1282397,34.3750024 L10.1282397,7.42187744 C10.1282397,6.8847583 10.5676636,6.44528809 11.1047827,6.44528809 L11.1047607,6.44528809 Z" id="Path" fill="#FFCDD2"></path>
            <polygon id="Path" fill="#D32F2F" fill-rule="nonzero" points="16.4062256 18.6362793 34.375 18.6362793 34.375 20.1988281 16.4062256 20.1988281"></polygon>
            <polygon id="Path" fill="#D32F2F" fill-rule="nonzero" points="16.4062256 24.1049072 34.375 24.1049072 34.375 25.6674805 16.4062256 25.6674805"></polygon>
            <path d="M8.23720703,29.9362793 L41.7628418,29.9362793 C42.3091016,29.9362793 42.8061694,30.1617156 43.1669019,30.5248413 C43.5267114,30.8870435 43.7500708,31.3851489 43.7500708,31.9315527 L43.7500708,41.5593115 C43.7500708,42.1057153 43.5266819,42.6037915 43.1669019,42.9659961 C42.8061401,43.3291211 42.3090747,43.5545874 41.7628418,43.5545874 L8.23720703,43.5545874 C7.69100342,43.5545874 7.19387939,43.3291223 6.83311768,42.9659961 C6.4733374,42.6038501 6.24997559,42.1057739 6.24997559,41.5593115 L6.24997559,31.9315527 C6.24997559,31.3851196 6.47333569,30.8870435 6.83311768,30.5248413 C7.1938208,30.1617163 7.69094482,29.9362793 8.23720703,29.9362793 Z" id="Path" fill="#D32F2F"></path>
            <path d="M13.9648438,41.114502 L13.9648438,32.3762939 L16.7948242,32.3762939 C17.8670166,32.3762939 18.5668823,32.4210466 18.8924072,32.5085337 C19.3929053,32.6387549 19.8140479,32.9235923 20.15177,33.3630454 C20.4894922,33.8024985 20.6583521,34.3701255 20.6583521,35.0638804 C20.6583521,35.6009995 20.5607148,36.0526499 20.3653833,36.4168149 C20.1700803,36.7830259 19.9239111,37.0699106 19.6228101,37.279459 C19.323728,37.4869883 19.018562,37.6253135 18.7092993,37.6924692 C18.2881567,37.7758616 17.6778247,37.8185959 16.8782422,37.8185959 L15.7287427,37.8185959 L15.7287427,41.114502 L13.9648438,41.114502 L13.9648438,41.114502 Z M15.7287427,33.8553833 L15.7287427,36.3334229 L16.6931177,36.3334229 C17.3889185,36.3334229 17.8548145,36.2886414 18.0887866,36.1970884 C18.3227581,36.1055356 18.5058643,35.9631169 18.6401221,35.7678135 C18.7723618,35.5725105 18.8395198,35.3466709 18.8395198,35.0883042 C18.8395198,34.7709116 18.7459197,34.5084507 18.5587483,34.3009507 C18.3736243,34.0954687 18.1355867,33.9652476 17.8507502,33.9143809 C17.639155,33.8736938 17.2159651,33.8553833 16.5812092,33.8553833 L15.7287427,33.8553833 L15.7287427,33.8553833 Z M22.1008057,32.3763018 L25.32552,32.3763018 C26.0518286,32.3763018 26.6052124,32.4312378 26.9876855,32.5431484 C27.5003809,32.6936987 27.939834,32.9622451 28.3040283,33.3488125 C28.6702393,33.733334 28.9489648,34.2053433 29.1402002,34.762792 C29.3294189,35.3222598 29.4250366,36.0099282 29.4250366,36.8298379 C29.4250366,37.5480166 29.3355022,38.1685562 29.1564917,38.6893838 C28.9387834,39.3241396 28.6275049,39.8388833 28.2206055,40.2315371 C27.9154395,40.5306191 27.5024268,40.762543 26.9816016,40.9293569 C26.5930151,41.0534651 26.0721582,41.1145098 25.4190918,41.1145098 L22.1008057,41.1145098 L22.1008057,32.3763018 L22.1008057,32.3763018 Z M23.8647388,33.8553892 L23.8647388,39.6415283 L25.1810522,39.6415283 C25.673418,39.6415283 26.0294507,39.6150862 26.2491772,39.5581072 C26.5340137,39.4869124 26.7720508,39.3668699 26.9612427,39.1959612 C27.1504614,39.0250818 27.3030591,38.7422625 27.4230713,38.351657 C27.5410662,37.9610222 27.6021111,37.425949 27.6021111,36.7504778 C27.6021111,36.0750334 27.5410662,35.5582732 27.4230713,35.1961272 C27.3030579,34.8339812 27.1362158,34.5511907 26.9226025,34.3497747 C26.7069417,34.1463113 26.4343018,34.0100066 26.1047119,33.9388103 C25.8585425,33.8818313 25.376355,33.8553892 24.6561597,33.8553892 L23.8647388,33.8553892 L23.8647388,33.8553892 Z M30.9326099,41.1145068 L30.9326099,32.3762939 L36.9242114,32.3762939 L36.9242114,33.8553833 L32.6985767,33.8553833 L32.6985767,35.9224292 L36.3464526,35.9224292 L36.3464526,37.4015186 L32.6985767,37.4015186 L32.6985767,41.1145068 L30.9326099,41.1145068 L30.9326099,41.1145068 Z" id="Shape" fill="#FFFFFF" fill-rule="nonzero"></path>
        </g>
    </g>
</svg>