<?xml version="1.0" encoding="UTF-8"?>
<svg width="48px" height="48px" viewBox="0 0 48 48" version="1.1" xmlns="http://www.w3.org/2000/svg" xmlns:xlink="http://www.w3.org/1999/xlink">
    <!-- Generator: Sketch 59.1 (86144) - https://sketch.com -->
    <title>1768 - EXE</title>
    <desc>Created with Sketch.</desc>
    <g id="File-type-Icon-Set" stroke="none" stroke-width="1" fill="none" fill-rule="evenodd">
        <g id="1753---PHP" transform="translate(-1.000000, -1.000000)">
            <rect id="Rectangle" x="0" y="0" width="50" height="50"></rect>
            <rect id="Rectangle" x="6.24997559" y="6.24997559" width="37.5" height="37.5"></rect>
            <path d="M31.8161621,6.44527832 L39.8425049,14.4813721 L33.2511475,14.4813721 C32.4618896,14.4813721 31.8161621,13.8356592 31.8161621,13.0464014 L31.8161621,6.44527832 L31.8161621,6.44527832 Z" id="Path" fill="#EF9A9A"></path>
            <path d="M11.1047607,6.44528809 L31.8175293,6.44528809 L31.8175293,13.0064941 C31.8175293,13.8177246 32.4812085,14.4813745 33.2924097,14.4813745 L39.8437769,14.4813745 L39.8437769,34.3750024 C39.8437769,34.9121216 39.404353,35.3515454 38.8672339,35.3515454 L11.1047827,35.3515454 C10.5676636,35.3515454 10.1282397,34.9121216 10.1282397,34.3750024 L10.1282397,7.42187744 C10.1282397,6.8847583 10.5676636,6.44528809 11.1047827,6.44528809 L11.1047607,6.44528809 Z" id="Path" fill="#FFCDD2"></path>
            <polygon id="Path" fill="#D32F2F" fill-rule="nonzero" points="16.4062256 18.6362793 34.375 18.6362793 34.375 20.1988281 16.4062256 20.1988281"></polygon>
            <polygon id="Path" fill="#D32F2F" fill-rule="nonzero" points="16.4062256 24.1049072 34.375 24.1049072 34.375 25.6674805 16.4062256 25.6674805"></polygon>
            <path d="M8.23720703,29.9362793 L41.7628418,29.9362793 C42.3091016,29.9362793 42.8061694,30.1617156 43.1669019,30.5248413 C43.5267114,30.8870435 43.7500708,31.3851489 43.7500708,31.9315527 L43.7500708,41.5593115 C43.7500708,42.1057153 43.5266819,42.6037915 43.1669019,42.9659961 C42.8061401,43.3291211 42.3090747,43.5545874 41.7628418,43.5545874 L8.23720703,43.5545874 C7.69100342,43.5545874 7.19387939,43.3291223 6.83311768,42.9659961 C6.4733374,42.6038501 6.24997559,42.1057739 6.24997559,41.5593115 L6.24997559,31.9315527 C6.24997559,31.3851196 6.47333569,30.8870435 6.83311768,30.5248413 C7.1938208,30.1617163 7.69094482,29.9362793 8.23720703,29.9362793 Z" id="Path" fill="#D32F2F"></path>
            <path d="M13.6189941,41.114502 L13.6189941,32.3762939 L16.4489746,32.3762939 C17.521167,32.3762939 18.2210327,32.4210466 18.5465576,32.5085337 C19.0470557,32.6387549 19.4681982,32.9235923 19.8059204,33.3630454 C20.1436426,33.8024985 20.3125024,34.3701255 20.3125024,35.0638804 C20.3125024,35.6009995 20.2148652,36.0526499 20.0195337,36.4168149 C19.8242307,36.7830259 19.5780615,37.0699106 19.2769604,37.279459 C18.9778784,37.4869883 18.6727124,37.6253135 18.3634497,37.6924692 C17.9423071,37.7758616 17.3319751,37.8185959 16.5323926,37.8185959 L15.3828931,37.8185959 L15.3828931,41.114502 L13.6189941,41.114502 L13.6189941,41.114502 Z M15.3828931,33.8553833 L15.3828931,36.3334229 L16.3472681,36.3334229 C17.0430688,36.3334229 17.5089648,36.2886414 17.742937,36.1970884 C17.9769084,36.1055356 18.1600146,35.9631169 18.2942725,35.7678135 C18.4265122,35.5725105 18.4936702,35.3466709 18.4936702,35.0883042 C18.4936702,34.7709116 18.4000701,34.5084507 18.2128987,34.3009507 C18.0277747,34.0954687 17.7897371,33.9652476 17.5049006,33.9143809 C17.2933054,33.8736938 16.8701155,33.8553833 16.2353596,33.8553833 L15.3828931,33.8553833 L15.3828931,33.8553833 Z M21.765144,41.114502 L21.765144,32.3762939 L23.5310889,32.3762939 L23.5310889,35.814624 L26.9877295,35.814624 L26.9877295,32.3762939 L28.7516284,32.3762939 L28.7516284,41.114502 L26.9877295,41.114502 L26.9877295,37.2937012 L23.5310889,37.2937012 L23.5310889,41.114502 L21.765144,41.114502 Z M30.5765942,41.114502 L30.5765942,32.3762939 L33.4065747,32.3762939 C34.4787671,32.3762939 35.1786328,32.4210466 35.5041577,32.5085337 C36.0046558,32.6387549 36.4257983,32.9235923 36.7635205,33.3630454 C37.1012427,33.8024985 37.2701025,34.3701255 37.2701025,35.0638804 C37.2701025,35.6009995 37.1724653,36.0526499 36.9771338,36.4168149 C36.7818308,36.7830259 36.5356616,37.0699106 36.2345605,37.279459 C35.9354785,37.4869883 35.6303125,37.6253135 35.3210498,37.6924692 C34.8999072,37.7758616 34.2895752,37.8185959 33.4899927,37.8185959 L32.3404932,37.8185959 L32.3404932,41.114502 L30.5765942,41.114502 L30.5765942,41.114502 Z M32.3404932,33.8553833 L32.3404932,36.3334229 L33.3048682,36.3334229 C34.0006689,36.3334229 34.4665649,36.2886414 34.7005371,36.1970884 C34.9345085,36.1055356 35.1176147,35.9631169 35.2518726,35.7678135 C35.3841123,35.5725105 35.4512703,35.3466709 35.4512703,35.0883042 C35.4512703,34.7709116 35.3576702,34.5084507 35.1704988,34.3009507 C34.9853748,34.0954687 34.7473372,33.9652476 34.4625007,33.9143809 C34.2509055,33.8736938 33.8277156,33.8553833 33.1929597,33.8553833 L32.3404932,33.8553833 L32.3404932,33.8553833 Z" id="Shape" fill="#FFFFFF" fill-rule="nonzero"></path>
        </g>
    </g>
</svg>