<?xml version="1.0" encoding="UTF-8"?>
<svg width="48px" height="48px" viewBox="0 0 48 48" version="1.1" xmlns="http://www.w3.org/2000/svg" xmlns:xlink="http://www.w3.org/1999/xlink">
    <!-- Generator: Sketch 59.1 (86144) - https://sketch.com -->
    <title>1768 - EXE</title>
    <desc>Created with Sketch.</desc>
    <g id="File-type-Icon-Set" stroke="none" stroke-width="1" fill="none" fill-rule="evenodd">
        <g id="1749---MP4" transform="translate(-1.000000, -1.000000)">
            <rect id="Rectangle" x="0" y="0" width="50" height="50"></rect>
            <rect id="Rectangle" x="6.24997559" y="6.24997559" width="37.5" height="37.5"></rect>
            <path d="M31.8161621,6.44527832 L39.8425049,14.4813721 L33.2511475,14.4813721 C32.4618896,14.4813721 31.8161621,13.8356592 31.8161621,13.0464014 L31.8161621,6.44527832 L31.8161621,6.44527832 Z" id="Path" fill="#CE93D8"></path>
            <path d="M11.1047363,6.44528809 L31.8175049,6.44528809 L31.8175049,13.0064941 C31.8175049,13.8177246 32.4811841,14.4813745 33.2923853,14.4813745 L39.8437524,14.4813745 L39.8437524,34.3750024 C39.8437524,34.9121216 39.4043286,35.3515454 38.8672095,35.3515454 L11.1047583,35.3515454 C10.5676392,35.3515454 10.1282153,34.9121216 10.1282153,34.3750024 L10.1282153,7.42187744 C10.1282153,6.8847583 10.5676392,6.44528809 11.1047583,6.44528809 L11.1047363,6.44528809 Z" id="Path" fill="#E1BEE7"></path>
            <path d="M20.8658691,24.9719238 L20.8658691,15.4584961 C23.6124268,17.0441626 26.3595947,18.6287598 29.1060791,20.2144775 L20.8658691,24.9719238 L20.8658691,24.9719238 Z" id="Path" fill="#8E24AA" fill-rule="nonzero"></path>
            <path d="M8.23718262,29.9362793 L41.7628174,29.9362793 C42.3090771,29.9362793 42.806145,30.1617156 43.1668774,30.5248413 C43.526687,30.8870435 43.7500464,31.3851489 43.7500464,31.9315527 L43.7500464,41.5593115 C43.7500464,42.1057153 43.5266575,42.6037915 43.1668774,42.9659961 C42.8061157,43.3291211 42.3090503,43.5545874 41.7628174,43.5545874 L8.23718262,43.5545874 C7.690979,43.5545874 7.19385498,43.3291223 6.83309326,42.9659961 C6.47331299,42.6038501 6.24995117,42.1057739 6.24995117,41.5593115 L6.24995117,31.9315527 C6.24995117,31.3851196 6.47331128,30.8870435 6.83309326,30.5248413 C7.19379639,30.1617163 7.69092041,29.9362793 8.23718262,29.9362793 Z" id="Path" fill="#8E24AA"></path>
            <path d="M13.4552002,41.1328125 L13.4552002,32.3946045 L16.0959961,32.3946045 L17.6808838,38.3557129 L19.2474609,32.3946045 L21.8943359,32.3946045 L21.8943359,41.1328125 L20.2565649,41.1328125 L20.2565649,34.2541504 L18.5211279,41.1328125 L16.822312,41.1328125 L15.0929883,34.2541504 L15.0929883,41.1328125 L13.4552002,41.1328125 L13.4552002,41.1328125 Z M23.6480713,41.1328125 L23.6480713,32.3946045 L26.4780518,32.3946045 C27.5502441,32.3946045 28.2501099,32.4393572 28.5756348,32.5268442 C29.0761328,32.6570654 29.4972754,32.9419028 29.8349976,33.381356 C30.1727197,33.8208091 30.3415796,34.388436 30.3415796,35.0821909 C30.3415796,35.6193101 30.2439424,36.0709604 30.0486108,36.4351255 C29.8533079,36.8013364 29.6071387,37.0882212 29.3060376,37.2977695 C29.0069556,37.5052988 28.7017896,37.643624 28.3925269,37.7107798 C27.9713843,37.7941721 27.3610522,37.8369065 26.5614697,37.8369065 L25.4119702,37.8369065 L25.4119702,41.1328125 L23.6480713,41.1328125 L23.6480713,41.1328125 Z M25.4119702,33.8736938 L25.4119702,36.3517334 L26.3763452,36.3517334 C27.072146,36.3517334 27.538042,36.3069519 27.7720142,36.2153989 C28.0059856,36.1238462 28.1890918,35.9814275 28.3233496,35.786124 C28.4555894,35.590821 28.5227473,35.3649814 28.5227473,35.1066147 C28.5227473,34.7892222 28.4291472,34.5267612 28.2419758,34.3192612 C28.0568518,34.1137793 27.8188142,33.9835581 27.5339778,33.9326914 C27.3223826,33.8920044 26.8991926,33.8736938 26.2644368,33.8736938 L25.4119702,33.8736938 L25.4119702,33.8736938 Z M34.7035474,41.1328223 L34.7035474,39.3749976 L31.1269116,39.3749976 L31.1269116,37.9081348 L34.9192212,32.3579883 L36.3250684,32.3579883 L36.3250684,37.9020313 L37.409458,37.9020313 L37.409458,39.3750073 L36.3250684,39.3750073 L36.3250684,41.1328223 L34.7035596,41.1328223 L34.7035474,41.1328223 Z M34.7035474,37.9020264 L34.7035474,34.9153564 L32.695498,37.9020264 L34.7035474,37.9020264 Z" id="Shape" fill="#FFFFFF" fill-rule="nonzero"></path>
        </g>
    </g>
</svg>