<?xml version="1.0" encoding="UTF-8"?>
<svg width="48px" height="48px" viewBox="0 0 48 48" version="1.1" xmlns="http://www.w3.org/2000/svg" xmlns:xlink="http://www.w3.org/1999/xlink">
    <!-- Generator: Sketch 59.1 (86144) - https://sketch.com -->
    <title>1768 - EXE</title>
    <desc>Created with Sketch.</desc>
    <g id="File-type-Icon-Set" stroke="none" stroke-width="1" fill="none" fill-rule="evenodd">
        <g id="1736---PNG" transform="translate(-1.000000, -1.000000)">
            <rect id="Rectangle" x="0" y="0" width="50" height="50"></rect>
            <rect id="Rectangle" x="6.24997559" y="6.24997559" width="37.5" height="37.5"></rect>
            <path d="M31.8161621,6.44527832 L39.8425049,14.4813721 L33.2511475,14.4813721 C32.4618896,14.4813721 31.8161621,13.8356592 31.8161621,13.0464014 L31.8161621,6.44527832 L31.8161621,6.44527832 Z" id="Path" fill="#EF9A9A"></path>
            <path d="M11.1047607,6.44528809 L31.8175293,6.44528809 L31.8175293,13.0064941 C31.8175293,13.8177246 32.4812085,14.4813745 33.2924097,14.4813745 L39.8437769,14.4813745 L39.8437769,34.3750024 C39.8437769,34.9121216 39.404353,35.3515454 38.8672339,35.3515454 L11.1047827,35.3515454 C10.5676636,35.3515454 10.1282397,34.9121216 10.1282397,34.3750024 L10.1282397,7.42187744 C10.1282397,6.8847583 10.5676636,6.44528809 11.1047827,6.44528809 L11.1047607,6.44528809 Z" id="Path" fill="#FFCDD2"></path>
            <polygon id="Path" fill="#D32F2F" fill-rule="nonzero" points="16.4062256 18.6362793 34.375 18.6362793 34.375 20.1988281 16.4062256 20.1988281"></polygon>
            <polygon id="Path" fill="#D32F2F" fill-rule="nonzero" points="16.4062256 24.1049072 34.375 24.1049072 34.375 25.6674805 16.4062256 25.6674805"></polygon>
            <path d="M8.23720703,29.9362793 L41.7628418,29.9362793 C42.3091016,29.9362793 42.8061694,30.1617156 43.1669019,30.5248413 C43.5267114,30.8870435 43.7500708,31.3851489 43.7500708,31.9315527 L43.7500708,41.5593115 C43.7500708,42.1057153 43.5266819,42.6037915 43.1669019,42.9659961 C42.8061401,43.3291211 42.3090747,43.5545874 41.7628418,43.5545874 L8.23720703,43.5545874 C7.69100342,43.5545874 7.19387939,43.3291223 6.83311768,42.9659961 C6.4733374,42.6038501 6.24997559,42.1057739 6.24997559,41.5593115 L6.24997559,31.9315527 C6.24997559,31.3851196 6.47333569,30.8870435 6.83311768,30.5248413 C7.1938208,30.1617163 7.69094482,29.9362793 8.23720703,29.9362793 Z" id="Path" fill="#D32F2F"></path>
            <path d="M13.0320068,41.114502 L13.0320068,32.3762939 L15.8619873,32.3762939 C16.9341797,32.3762939 17.6340454,32.4210466 17.9595703,32.5085337 C18.4600684,32.6387549 18.8812109,32.9235923 19.2189331,33.3630454 C19.5566553,33.8024985 19.7255151,34.3701255 19.7255151,35.0638804 C19.7255151,35.6009995 19.6278779,36.0526499 19.4325464,36.4168149 C19.2372434,36.7830259 18.9910742,37.0699106 18.6899731,37.279459 C18.3908911,37.4869883 18.0857251,37.6253135 17.7764624,37.6924692 C17.3553198,37.7758616 16.7449878,37.8185959 15.9454053,37.8185959 L14.7959058,37.8185959 L14.7959058,41.114502 L13.0320068,41.114502 L13.0320068,41.114502 Z M14.7959058,33.8553833 L14.7959058,36.3334229 L15.7602808,36.3334229 C16.4560815,36.3334229 16.9219775,36.2886414 17.1559497,36.1970884 C17.3899211,36.1055356 17.5730273,35.9631169 17.7072852,35.7678135 C17.8395249,35.5725105 17.9066829,35.3466709 17.9066829,35.0883042 C17.9066829,34.7709116 17.8130828,34.5084507 17.6259114,34.3009507 C17.4407874,34.0954687 17.2027498,33.9652476 16.9179133,33.9143809 C16.7063181,33.8736938 16.2831282,33.8553833 15.6483723,33.8553833 L14.7959058,33.8553833 L14.7959058,33.8553833 Z M21.1903638,41.114502 L21.1903638,32.3762939 L22.9074902,32.3762939 L26.4841748,38.2112549 L26.4841748,32.3762939 L28.1239648,32.3762939 L28.1239648,41.114502 L26.351936,41.114502 L22.8301831,35.4158447 L22.8301831,41.114502 L21.1903638,41.114502 L21.1903638,41.114502 Z M34.0545483,37.9020264 L34.0545483,36.4290503 L37.8570386,36.4290503 L37.8570386,39.9100806 C37.4867627,40.2681592 36.9516895,40.5835059 36.2497754,40.8561157 C35.5478613,41.126709 34.8378442,41.263042 34.1196362,41.263042 C33.2061548,41.263042 32.408623,41.0717759 31.7291138,40.6893018 C31.0495752,40.3047803 30.5389282,39.7574805 30.1971118,39.0433984 C29.8553247,38.3292871 29.6844165,37.5541309 29.6844165,36.7159106 C29.6844165,35.8064966 29.8756826,34.9967651 30.2561377,34.2887378 C30.6386133,33.5827856 31.1960596,33.0395532 31.9325488,32.6631641 C32.4920435,32.3722412 33.1898926,32.2278052 34.0240186,32.2278052 C35.1084082,32.2278052 35.9568066,32.4556636 36.5651318,32.9093628 C37.1754932,33.3650806 37.568147,33.9937524 37.7431201,34.7973682 L35.9913916,35.124939 C35.8673123,34.6956348 35.6353589,34.355896 35.2955908,34.1076782 C34.9558496,33.8594629 34.5326611,33.735354 34.0240308,33.735354 C33.2529687,33.735354 32.6405884,33.9795044 32.1848437,34.4677759 C31.729126,34.9580957 31.5032861,35.6823853 31.5032861,36.6447144 C31.5032861,37.6802563 31.7331919,38.4594775 32.195022,38.9782861 C32.6548047,39.4970654 33.2590527,39.7554614 34.0057202,39.7554614 C34.3759961,39.7554614 34.7463037,39.6822192 35.1185986,39.5377532 C35.4888745,39.3933159 35.8082861,39.2163225 36.0748145,39.0108416 L36.0748145,37.9020281 L34.0545679,37.9020281 L34.0545483,37.9020264 Z" id="Shape" fill="#FFFFFF" fill-rule="nonzero"></path>
        </g>
    </g>
</svg>