<?xml version="1.0" encoding="UTF-8"?>
<svg width="48px" height="48px" viewBox="0 0 48 48" version="1.1" xmlns="http://www.w3.org/2000/svg" xmlns:xlink="http://www.w3.org/1999/xlink">
    <!-- Generator: Sketch 59.1 (86144) - https://sketch.com -->
    <title>1768 - EXE</title>
    <desc>Created with Sketch.</desc>
    <g id="File-type-Icon-Set" stroke="none" stroke-width="1" fill="none" fill-rule="evenodd">
        <g id="1730---PPT" transform="translate(-1.000000, -1.000000)">
            <rect id="_187845648" x="0" y="0" width="50" height="50"></rect>
            <rect id="_187845528" x="6.24997559" y="6.24997559" width="37.5" height="37.5"></rect>
            <path d="M31.8161621,6.24996582 L39.8425049,14.2860596 L33.2511475,14.2860596 C32.4618896,14.2860596 31.8161621,13.6403467 31.8161621,12.8510889 L31.8161621,6.24996582 L31.8161621,6.24996582 Z" id="_187845360" fill="#EF9A9A"></path>
            <path d="M11.1047607,6.24997559 L31.8175293,6.24997559 L31.8175293,12.8111816 C31.8175293,13.6224121 32.4812085,14.286062 33.2924097,14.286062 L39.8437769,14.286062 L39.8437769,34.1796899 C39.8437769,34.7168091 39.404353,35.1562329 38.8672339,35.1562329 L11.1047827,35.1562329 C10.5676636,35.1562329 10.1282397,34.7168091 10.1282397,34.1796899 L10.1282397,7.22656494 C10.1282397,6.6894458 10.5676636,6.24997559 11.1047827,6.24997559 L11.1047607,6.24997559 Z" id="_187845192" fill="#FFCDD2"></path>
            <polygon id="_187844976" fill="#D32F2F" fill-rule="nonzero" points="16.4062256 18.4409912 34.375 18.4409912 34.375 20.0035156 16.4062256 20.0035156"></polygon>
            <polygon id="_187845048" fill="#D32F2F" fill-rule="nonzero" points="16.4062256 23.9096191 34.375 23.9096191 34.375 25.472168 16.4062256 25.472168"></polygon>
            <path d="M8.23720703,29.7409668 L41.7628418,29.7409668 C42.3091016,29.7409668 42.8061694,29.9664031 43.1669019,30.3295288 C43.5267114,30.691731 43.7500708,31.1898364 43.7500708,31.7362402 L43.7500708,41.363999 C43.7500708,41.9104028 43.5266819,42.408479 43.1669019,42.7706836 C42.8061401,43.1338086 42.3090747,43.3592749 41.7628418,43.3592749 L8.23720703,43.3592749 C7.69100342,43.3592749 7.19387939,43.1338098 6.83311768,42.7706836 C6.4733374,42.4085376 6.24997559,41.9104614 6.24997559,41.363999 L6.24997559,31.7362402 C6.24997559,31.1898071 6.47333569,30.691731 6.83311768,30.3295288 C7.1938208,29.9664038 7.69094482,29.7409668 8.23720703,29.7409668 Z" id="_187844880" fill="#D32F2F"></path>
            <path d="M14.1438965,40.9194336 L14.1438965,32.1812256 L16.973877,32.1812256 C18.0460693,32.1812256 18.7459351,32.2259783 19.07146,32.3134653 C19.571958,32.4436865 19.9931006,32.7285239 20.3308228,33.1679771 C20.6685449,33.6074302 20.8374048,34.1750571 20.8374048,34.868812 C20.8374048,35.4059312 20.7397676,35.8575815 20.544436,36.2217466 C20.3491331,36.5879575 20.1029639,36.8748423 19.8018628,37.0843906 C19.5027808,37.2919199 19.1976147,37.4302451 18.8883521,37.4974009 C18.4672095,37.5807932 17.8568774,37.6235276 17.0572949,37.6235276 L15.9077954,37.6235276 L15.9077954,40.9194336 L14.1438965,40.9194336 L14.1438965,40.9194336 Z M15.9077954,33.6603149 L15.9077954,36.1383545 L16.8721704,36.1383545 C17.5679712,36.1383545 18.0338672,36.093573 18.2678394,36.00202 C18.5018108,35.9104673 18.684917,35.7680486 18.8191748,35.5727451 C18.9514146,35.3774421 19.0185725,35.1516025 19.0185725,34.8932358 C19.0185725,34.5758433 18.9249724,34.3133823 18.737801,34.1058823 C18.552677,33.9004004 18.3146394,33.7701792 18.029803,33.7193125 C17.8182078,33.6786255 17.3950178,33.6603149 16.760262,33.6603149 L15.9077954,33.6603149 L15.9077954,33.6603149 Z M22.2859937,40.9194336 L22.2859937,32.1812256 L25.1159741,32.1812256 C26.1881665,32.1812256 26.8880322,32.2259783 27.2135571,32.3134653 C27.7140552,32.4436865 28.1351978,32.7285239 28.4729199,33.1679771 C28.8106421,33.6074302 28.979502,34.1750571 28.979502,34.868812 C28.979502,35.4059312 28.8818647,35.8575815 28.6865332,36.2217466 C28.4912302,36.5879575 28.245061,36.8748423 27.94396,37.0843906 C27.6448779,37.2919199 27.3397119,37.4302451 27.0304492,37.4974009 C26.6093066,37.5807932 25.9989746,37.6235276 25.1993921,37.6235276 L24.0498926,37.6235276 L24.0498926,40.9194336 L22.2859937,40.9194336 L22.2859937,40.9194336 Z M24.0498926,33.6603149 L24.0498926,36.1383545 L25.0142676,36.1383545 C25.7100684,36.1383545 26.1759644,36.093573 26.4099365,36.00202 C26.643908,35.9104673 26.8270142,35.7680486 26.961272,35.5727451 C27.0935117,35.3774421 27.1606697,35.1516025 27.1606697,34.8932358 C27.1606697,34.5758433 27.0670696,34.3133823 26.8798982,34.1058823 C26.6947742,33.9004004 26.4567366,33.7701792 26.1719001,33.7193125 C25.9603049,33.6786255 25.537115,33.6603149 24.9023591,33.6603149 L24.0498926,33.6603149 L24.0498926,33.6603149 Z M32.3933984,40.9194336 L32.3933984,33.6603271 L29.8014551,33.6603271 L29.8014551,32.1812378 L36.7452295,32.1812378 L36.7452295,33.6603271 L34.1593652,33.6603271 L34.1593652,40.9194336 L32.3933911,40.9194336 L32.3933984,40.9194336 Z" id="_187844808" fill="#FFFFFF" fill-rule="nonzero"></path>
        </g>
    </g>
</svg>