<?xml version="1.0" encoding="UTF-8"?>
<svg width="48px" height="48px" viewBox="0 0 48 48" version="1.1" xmlns="http://www.w3.org/2000/svg" xmlns:xlink="http://www.w3.org/1999/xlink">
    <!-- Generator: Sketch 59.1 (86144) - https://sketch.com -->
    <title>1768 - EXE</title>
    <desc>Created with Sketch.</desc>
    <g id="File-type-Icon-Set" stroke="none" stroke-width="1" fill="none" fill-rule="evenodd">
        <g id="1727---PS" transform="translate(-1.000000, -1.000000)">
            <rect id="Rectangle" x="0" y="0" width="50" height="50"></rect>
            <rect id="Rectangle" x="7.03125" y="6.29672852" width="37.5" height="37.5"></rect>
            <path d="M31.8161621,6.24996582 L39.8425049,14.2860596 L33.2511475,14.2860596 C32.4618896,14.2860596 31.8161621,13.6403467 31.8161621,12.8510889 L31.8161621,6.24996582 L31.8161621,6.24996582 Z" id="Path" fill="#7986CB"></path>
            <path d="M11.1047607,6.24997559 L31.8175293,6.24997559 L31.8175293,12.8111816 C31.8175293,13.6224121 32.4812085,14.286062 33.2924097,14.286062 L39.8437769,14.286062 L39.8437769,34.1796899 C39.8437769,34.7168091 39.404353,35.1562329 38.8672339,35.1562329 L11.1047827,35.1562329 C10.5676636,35.1562329 10.1282397,34.7168091 10.1282397,34.1796899 L10.1282397,7.22656494 C10.1282397,6.6894458 10.5676636,6.24997559 11.1047827,6.24997559 L11.1047607,6.24997559 Z" id="Path" fill="#C5CAE9"></path>
            <polygon id="Path" fill="#283593" fill-rule="nonzero" points="16.4062256 18.4409912 34.375 18.4409912 34.375 20.0035156 16.4062256 20.0035156"></polygon>
            <polygon id="Path" fill="#283593" fill-rule="nonzero" points="16.4062256 23.9096191 34.375 23.9096191 34.375 25.472168 16.4062256 25.472168"></polygon>
            <path d="M8.23720703,29.7409668 L41.7628418,29.7409668 C42.3091016,29.7409668 42.8061694,29.9664031 43.1669019,30.3295288 C43.5267114,30.691731 43.7500708,31.1898364 43.7500708,31.7362402 L43.7500708,41.363999 C43.7500708,41.9104028 43.5266819,42.408479 43.1669019,42.7706836 C42.8061401,43.1338086 42.3090747,43.3592749 41.7628418,43.3592749 L8.23720703,43.3592749 C7.69100342,43.3592749 7.19387939,43.1338098 6.83311768,42.7706836 C6.4733374,42.4085376 6.24997559,41.9104614 6.24997559,41.363999 L6.24997559,31.7362402 C6.24997559,31.1898071 6.47333569,30.691731 6.83311768,30.3295288 C7.1938208,29.9664038 7.69094482,29.7409668 8.23720703,29.7409668 Z" id="Path" fill="#283593"></path>
            <path d="M18.0450439,40.9162598 L18.0450439,32.1780518 L20.8750244,32.1780518 C21.9472168,32.1780518 22.6470825,32.2228044 22.9726074,32.3102915 C23.4731055,32.4405127 23.894248,32.7253501 24.2319702,33.1648032 C24.5696924,33.6042563 24.7385522,34.1718833 24.7385522,34.8656382 C24.7385522,35.4027573 24.640915,35.8544077 24.4455835,36.2185728 C24.2502805,36.5847837 24.0041113,36.8716685 23.7030103,37.0812168 C23.4039282,37.2887461 23.0987622,37.4270713 22.7894995,37.4942271 C22.3683569,37.5776194 21.7580249,37.6203538 20.9584424,37.6203538 L19.8089429,37.6203538 L19.8089429,40.9162598 L18.0450439,40.9162598 L18.0450439,40.9162598 Z M19.8089429,33.6571411 L19.8089429,36.1351807 L20.7733179,36.1351807 C21.4691187,36.1351807 21.9350146,36.0903992 22.1689868,35.9988462 C22.4029583,35.9072935 22.5860645,35.7648748 22.7203223,35.5695713 C22.852562,35.3742683 22.91972,35.1484287 22.91972,34.890062 C22.91972,34.5726694 22.8261199,34.3102085 22.6389485,34.1027085 C22.4538245,33.8972266 22.2157869,33.7670054 21.9309504,33.7161387 C21.7193552,33.6754517 21.2961653,33.6571411 20.6614094,33.6571411 L19.8089429,33.6571411 L19.8089429,33.6571411 Z M25.7395481,38.0740723 L27.4566553,37.9052114 C27.558387,38.4830166 27.7679346,38.9061782 28.0853271,39.1767715 C28.4006714,39.4453164 28.8258813,39.5816519 29.3630005,39.5816519 C29.9306274,39.5816519 30.3599023,39.4616096 30.6467578,39.2195059 C30.9356616,38.9794211 31.080127,38.6986782 31.080127,38.3772207 C31.080127,38.1696914 31.019082,37.9947183 30.8970212,37.8502798 C30.776979,37.7037954 30.5653831,37.5776406 30.2622361,37.4718716 C30.0567542,37.3986294 29.5847458,37.2724739 28.8503049,37.0893691 C27.9042698,36.8553977 27.2410227,36.5664956 26.8605662,36.2247061 C26.323447,35.7445645 26.0549021,35.158627 26.0549021,34.4668911 C26.0549021,34.0213247 26.1810288,33.6062954 26.4333103,33.2177065 C26.685593,32.8311367 27.0497556,32.5361489 27.5238132,32.332687 C27.9998875,32.1312708 28.5715818,32.0295669 29.2429587,32.0295669 C30.3415916,32.0295669 31.1655686,32.2696226 31.7209861,32.7497622 C32.2743699,33.2319497 32.5652903,33.8728188 32.5937791,34.676437 L30.8298533,34.7537451 C30.7545925,34.3041406 30.5918159,33.9806348 30.3436277,33.785332 C30.0954124,33.5879817 29.7230881,33.4903149 29.2266843,33.4903149 C28.713989,33.4903149 28.311157,33.594094 28.0222532,33.8056885 C27.8350818,33.9399468 27.7414817,34.1210327 27.7414817,34.3468457 C27.7414817,34.554375 27.8289688,34.7313672 28.0039426,34.8778516 C28.2256877,35.0650229 28.7668723,35.260354 29.6254514,35.46177 C30.4840012,35.6652046 31.1187571,35.8747534 31.5297214,36.0904126 C31.9407151,36.3081208 32.2621433,36.6031079 32.4961155,36.9794995 C32.7280684,37.3558887 32.8440159,37.8197656 32.8440159,38.3711011 C32.8440159,38.8715991 32.7056919,39.3415601 32.4269382,39.7769482 C32.1482151,40.2143555 31.7555613,40.5398779 31.2469309,40.7514746 C30.7383005,40.9650881 30.1035447,41.0708862 29.3446799,41.0708862 C28.2399338,41.0708862 27.3915623,40.8165869 26.7995139,40.3059082 C26.2074631,39.7952588 25.8534788,39.0506396 25.7395481,38.0740674 L25.7395481,38.0740723 Z" id="Shape" fill="#FFFFFF" fill-rule="nonzero"></path>
        </g>
    </g>
</svg>