<?xml version="1.0" encoding="UTF-8"?>
<svg width="48px" height="48px" viewBox="0 0 48 48" version="1.1" xmlns="http://www.w3.org/2000/svg" xmlns:xlink="http://www.w3.org/1999/xlink">
    <!-- Generator: Sketch 59.1 (86144) - https://sketch.com -->
    <title>1768 - EXE</title>
    <desc>Created with Sketch.</desc>
    <g id="File-type-Icon-Set" stroke="none" stroke-width="1" fill="none" fill-rule="evenodd">
        <g id="1738---PSD" transform="translate(-1.000000, -1.000000)">
            <rect id="Rectangle" x="0" y="0" width="50" height="50"></rect>
            <rect id="Rectangle" x="6.24997559" y="6.24997559" width="37.5" height="37.5"></rect>
            <path d="M31.8161621,6.44527832 L39.8425049,14.4813721 L33.2511475,14.4813721 C32.4618896,14.4813721 31.8161621,13.8356592 31.8161621,13.0464014 L31.8161621,6.44527832 L31.8161621,6.44527832 Z" id="Path" fill="#7986CB"></path>
            <path d="M11.1047607,6.44528809 L31.8175293,6.44528809 L31.8175293,13.0064941 C31.8175293,13.8177246 32.4812085,14.4813745 33.2924097,14.4813745 L39.8437769,14.4813745 L39.8437769,34.3750024 C39.8437769,34.9121216 39.404353,35.3515454 38.8672339,35.3515454 L11.1047827,35.3515454 C10.5676636,35.3515454 10.1282397,34.9121216 10.1282397,34.3750024 L10.1282397,7.42187744 C10.1282397,6.8847583 10.5676636,6.44528809 11.1047827,6.44528809 L11.1047607,6.44528809 Z" id="Path" fill="#C5CAE9"></path>
            <polygon id="Path" fill="#3949AB" fill-rule="nonzero" points="16.4062256 18.6362793 34.375 18.6362793 34.375 20.1988281 16.4062256 20.1988281"></polygon>
            <polygon id="Path" fill="#3949AB" fill-rule="nonzero" points="16.4062256 24.1049072 34.375 24.1049072 34.375 25.6674805 16.4062256 25.6674805"></polygon>
            <path d="M8.23720703,29.9362793 L41.7628418,29.9362793 C42.3091016,29.9362793 42.8061694,30.1617156 43.1669019,30.5248413 C43.5267114,30.8870435 43.7500708,31.3851489 43.7500708,31.9315527 L43.7500708,41.5593115 C43.7500708,42.1057153 43.5266819,42.6037915 43.1669019,42.9659961 C42.8061401,43.3291211 42.3090747,43.5545874 41.7628418,43.5545874 L8.23720703,43.5545874 C7.69100342,43.5545874 7.19387939,43.3291223 6.83311768,42.9659961 C6.4733374,42.6038501 6.24997559,42.1057739 6.24997559,41.5593115 L6.24997559,31.9315527 C6.24997559,31.3851196 6.47333569,30.8870435 6.83311768,30.5248413 C7.1938208,30.1617163 7.69094482,29.9362793 8.23720703,29.9362793 Z" id="Path" fill="#3949AB"></path>
            <path d="M13.6433838,41.1115723 L13.6433838,32.3733643 L16.4733643,32.3733643 C17.5455566,32.3733643 18.2454224,32.4181169 18.5709473,32.505604 C19.0714453,32.6358252 19.4925879,32.9206626 19.8303101,33.3601157 C20.1680322,33.7995688 20.3368921,34.3671958 20.3368921,35.0609507 C20.3368921,35.5980698 20.2392549,36.0497202 20.0439233,36.4138853 C19.8486204,36.7800962 19.6024512,37.066981 19.3013501,37.2765293 C19.0022681,37.4840586 18.6971021,37.6223838 18.3878394,37.6895396 C17.9666968,37.7729319 17.3563647,37.8156663 16.5567822,37.8156663 L15.4072827,37.8156663 L15.4072827,41.1115723 L13.6433838,41.1115723 L13.6433838,41.1115723 Z M15.4072827,33.8524536 L15.4072827,36.3304932 L16.3716577,36.3304932 C17.0674585,36.3304932 17.5333545,36.2857117 17.7673267,36.1941587 C18.0012981,36.102606 18.1844043,35.9601873 18.3186621,35.7648838 C18.4509019,35.5695808 18.5180598,35.3437412 18.5180598,35.0853745 C18.5180598,34.7679819 18.4244597,34.505521 18.2372883,34.298021 C18.0521643,34.0925391 17.8141267,33.9623179 17.5292903,33.9114512 C17.3176951,33.8707642 16.8945051,33.8524536 16.2597493,33.8524536 L15.4072827,33.8524536 L15.4072827,33.8524536 Z M21.3378879,38.2693848 L23.0549951,38.1005239 C23.1567268,38.6783291 23.3662744,39.1014907 23.683667,39.372084 C23.9990112,39.6406289 24.4242212,39.7769644 24.9613403,39.7769644 C25.5289673,39.7769644 25.9582422,39.6569221 26.2450977,39.4148184 C26.5340015,39.1747336 26.6784668,38.8939907 26.6784668,38.5725332 C26.6784668,38.3650039 26.6174219,38.1900308 26.4953611,38.0455923 C26.3753188,37.8991079 26.1637229,37.7729531 25.8605759,37.6671841 C25.655094,37.5939419 25.1830857,37.4677864 24.4486448,37.2846816 C23.5026096,37.0507102 22.8393625,36.7618081 22.458906,36.4200186 C21.9217869,35.939877 21.6532419,35.3539395 21.6532419,34.6622036 C21.6532419,34.2166372 21.7793687,33.8016079 22.0316501,33.413019 C22.2839329,33.0264492 22.6480955,32.7314614 23.1221531,32.5279995 C23.5982273,32.3265833 24.1699216,32.2248794 24.8412986,32.2248794 C25.9399314,32.2248794 26.7639084,32.4649351 27.3193259,32.9450747 C27.8727097,33.4272622 28.1636301,34.0681313 28.1921189,34.8717495 L26.4281931,34.9490576 C26.3529324,34.4994531 26.1901558,34.1759473 25.9419675,33.9806445 C25.6937522,33.7832942 25.321428,33.6856274 24.8250242,33.6856274 C24.3123289,33.6856274 23.9094968,33.7894065 23.620593,34.001001 C23.4334216,34.1352593 23.3398215,34.3163452 23.3398215,34.5421582 C23.3398215,34.7496875 23.4273086,34.9266797 23.6022825,35.0731641 C23.8240276,35.2603354 24.3652122,35.4556665 25.2237913,35.6570825 C26.0823411,35.8605171 26.7170969,36.0700659 27.1280613,36.2857251 C27.5390549,36.5034333 27.8604832,36.7984204 28.0944553,37.174812 C28.3264082,37.5512012 28.4423557,38.0150781 28.4423557,38.5664136 C28.4423557,39.0669116 28.3040317,39.5368726 28.0252781,39.9722607 C27.7465549,40.409668 27.3539011,40.7351904 26.8452708,40.9467871 C26.3366404,41.1604006 25.7018845,41.2661987 24.9430198,41.2661987 C23.8382737,41.2661987 22.9899021,41.0118994 22.3978538,40.5012207 C21.805803,39.9905713 21.4518186,39.2459521 21.3378879,38.2693799 L21.3378879,38.2693848 Z M29.92146,32.3733843 L33.1461743,32.3733843 C33.8724829,32.3733843 34.4258667,32.4283203 34.8083398,32.540231 C35.3210352,32.6907812 35.7604883,32.9593276 36.1246826,33.345895 C36.4908936,33.7304165 36.7696191,34.2024258 36.9608545,34.7598745 C37.1500732,35.3193423 37.2456909,36.0070107 37.2456909,36.8269204 C37.2456909,37.5450991 37.1561565,38.1656387 36.977146,38.6864663 C36.7594377,39.3212222 36.4481592,39.8359658 36.0412598,40.2286196 C35.7360937,40.5277017 35.3230811,40.7596255 34.8022559,40.9264395 C34.4136694,41.0505476 33.8928125,41.1115923 33.2397461,41.1115923 L29.92146,41.1115923 L29.92146,32.3733843 L29.92146,32.3733843 Z M31.6853931,33.8524717 L31.6853931,39.6386108 L33.0017065,39.6386108 C33.4940723,39.6386108 33.850105,39.6121687 34.0698315,39.5551897 C34.354668,39.4839949 34.5927051,39.3639524 34.781897,39.1930437 C34.9711157,39.0221643 35.1237134,38.739345 35.2437256,38.3487395 C35.3617205,37.9581047 35.4227654,37.4230315 35.4227654,36.7475603 C35.4227654,36.072116 35.3617205,35.5553557 35.2437256,35.1932097 C35.1237122,34.8310637 34.9568701,34.5482732 34.7432568,34.3468572 C34.5275959,34.1433938 34.2549561,34.0070891 33.9253662,33.9358928 C33.6791968,33.8789138 33.1970093,33.8524717 32.476814,33.8524717 L31.6853931,33.8524717 L31.6853931,33.8524717 Z" id="Shape" fill="#FFFFFF" fill-rule="nonzero"></path>
        </g>
    </g>
</svg>