<?xml version="1.0" encoding="UTF-8"?>
<svg width="48px" height="48px" viewBox="0 0 48 48" version="1.1" xmlns="http://www.w3.org/2000/svg" xmlns:xlink="http://www.w3.org/1999/xlink">
    <!-- Generator: Sketch 59.1 (86144) - https://sketch.com -->
    <title>1768 - EXE</title>
    <desc>Created with Sketch.</desc>
    <g id="File-type-Icon-Set" stroke="none" stroke-width="1" fill="none" fill-rule="evenodd">
        <g id="1759---RAR" transform="translate(-1.000000, -1.000000)">
            <rect id="Rectangle" x="0" y="0" width="50" height="50"></rect>
            <rect id="Rectangle" x="6.24997559" y="6.24997559" width="37.5" height="37.5"></rect>
            <path d="M31.8161621,6.44527832 L39.8425049,14.4813721 L33.2511475,14.4813721 C32.4618896,14.4813721 31.8161621,13.8356592 31.8161621,13.0464014 L31.8161621,6.44527832 L31.8161621,6.44527832 Z" id="Path" fill="#EF9A9A"></path>
            <path d="M11.1047607,6.44528809 L31.8175293,6.44528809 L31.8175293,13.0064941 C31.8175293,13.8177246 32.4812085,14.4813745 33.2924097,14.4813745 L39.8437769,14.4813745 L39.8437769,34.3750024 C39.8437769,34.9121216 39.404353,35.3515454 38.8672339,35.3515454 L11.1047827,35.3515454 C10.5676636,35.3515454 10.1282397,34.9121216 10.1282397,34.3750024 L10.1282397,7.42187744 C10.1282397,6.8847583 10.5676636,6.44528809 11.1047827,6.44528809 L11.1047607,6.44528809 Z" id="Path" fill="#FFCDD2"></path>
            <polygon id="Path" fill="#D32F2F" fill-rule="nonzero" points="16.4062256 18.6362793 34.375 18.6362793 34.375 20.1988281 16.4062256 20.1988281"></polygon>
            <polygon id="Path" fill="#D32F2F" fill-rule="nonzero" points="16.4062256 24.1049072 34.375 24.1049072 34.375 25.6674805 16.4062256 25.6674805"></polygon>
            <path d="M8.23720703,29.9362793 L41.7628418,29.9362793 C42.3091016,29.9362793 42.8061694,30.1617156 43.1669019,30.5248413 C43.5267114,30.8870435 43.7500708,31.3851489 43.7500708,31.9315527 L43.7500708,41.5593115 C43.7500708,42.1057153 43.5266819,42.6037915 43.1669019,42.9659961 C42.8061401,43.3291211 42.3090747,43.5545874 41.7628418,43.5545874 L8.23720703,43.5545874 C7.69100342,43.5545874 7.19387939,43.3291223 6.83311768,42.9659961 C6.4733374,42.6038501 6.24997559,42.1057739 6.24997559,41.5593115 L6.24997559,31.9315527 C6.24997559,31.3851196 6.47333569,30.8870435 6.83311768,30.5248413 C7.1938208,30.1617163 7.69094482,29.9362793 8.23720703,29.9362793 Z" id="Path" fill="#D32F2F"></path>
            <path d="M12.7024097,41.1145027 L12.7024097,32.3762939 L16.4174072,32.3762939 C17.3512451,32.3762939 18.0287378,32.4556494 18.4519263,32.6123127 C18.8750879,32.7689473 19.214856,33.0476716 19.4691577,33.4484846 C19.7234863,33.8513167 19.8496143,34.3090803 19.8496143,34.825843 C19.8496143,35.4809578 19.6563586,36.0241609 19.2718359,36.4514167 C18.8873145,36.8766243 18.3095068,37.1472175 17.5424829,37.2570808 C17.9249854,37.4808733 18.240332,37.7250227 18.4885474,37.9915217 C18.7367358,38.2580476 19.0704199,38.7300569 19.4915625,39.4095662 L20.5596582,41.1145027 L18.4498779,41.1145027 L17.1742529,39.2122444 C16.7205542,38.5327058 16.4113232,38.10545 16.24448,37.9284578 C16.0776377,37.7514653 15.9006445,37.6314241 15.7134741,37.5642927 C15.5263027,37.4991821 15.2312866,37.4666267 14.8243872,37.4666267 L14.4683545,37.4666267 L14.4683545,41.1145027 L12.7024097,41.1145027 L12.7024097,41.1145027 Z M14.4683618,36.0709717 L15.772478,36.0709717 C16.6188306,36.0709717 17.1478174,36.0363691 17.3593848,35.9651741 C17.5689614,35.8939792 17.7337573,35.7698711 17.8537695,35.5948982 C17.9717935,35.4199243 18.0328093,35.2022444 18.0328093,34.9397834 C18.0328093,34.6447957 17.9534827,34.4087776 17.7968193,34.227718 C17.640156,34.0466309 17.4184111,33.9327009 17.1315264,33.8838826 C16.9891077,33.865572 16.559832,33.8553931 15.8437017,33.8553931 L14.4683618,33.8553931 L14.4683618,36.0709717 L14.4683618,36.0709717 Z M29.3934839,41.114502 L27.4729224,41.114502 L26.7099927,39.1288306 L23.216731,39.1288306 L22.4965063,41.114502 L20.6247632,41.114502 L24.0284741,32.3762939 L25.8941333,32.3762939 L29.3934839,41.114502 L29.3934839,41.114502 Z M26.1443872,37.6578613 L24.9399561,34.4148682 L23.7599487,37.6578613 L26.1443872,37.6578613 Z M30.3334424,41.1145027 L30.3334424,32.3762939 L34.0484399,32.3762939 C34.9822778,32.3762939 35.6597705,32.4556494 36.082959,32.6123127 C36.5061206,32.7689473 36.8458887,33.0476716 37.1001904,33.4484846 C37.354519,33.8513167 37.480647,34.3090803 37.480647,34.825843 C37.480647,35.4809578 37.2873914,36.0241609 36.9028687,36.4514167 C36.5183472,36.8766243 35.9405396,37.1472175 35.1735156,37.2570808 C35.5560181,37.4808733 35.8713647,37.7250227 36.1195801,37.9915217 C36.3677686,38.2580476 36.7014526,38.7300569 37.1225952,39.4095662 L38.1906909,41.1145027 L36.0809106,41.1145027 L34.8052856,39.2122444 C34.3515869,38.5327058 34.042356,38.10545 33.8755127,37.9284578 C33.7086704,37.7514653 33.5316772,37.6314241 33.3445068,37.5642927 C33.1573354,37.4991821 32.8623193,37.4666267 32.4554199,37.4666267 L32.0993872,37.4666267 L32.0993872,41.1145027 L30.3334424,41.1145027 L30.3334424,41.1145027 Z M32.0993945,36.0709717 L33.4035107,36.0709717 C34.2498633,36.0709717 34.7788501,36.0363691 34.9904175,35.9651741 C35.1999941,35.8939792 35.36479,35.7698711 35.4848022,35.5948982 C35.6028262,35.4199243 35.663842,35.2022444 35.663842,34.9397834 C35.663842,34.6447957 35.5845154,34.4087776 35.4278521,34.227718 C35.2711887,34.0466309 35.0494438,33.9327009 34.7625591,33.8838826 C34.6201404,33.865572 34.1908647,33.8553931 33.4747344,33.8553931 L32.0993945,33.8553931 L32.0993945,36.0709717 L32.0993945,36.0709717 Z" id="Shape" fill="#FFFFFF" fill-rule="nonzero"></path>
        </g>
    </g>
</svg>