<?xml version="1.0" encoding="UTF-8"?>
<svg width="48px" height="48px" viewBox="0 0 48 48" version="1.1" xmlns="http://www.w3.org/2000/svg" xmlns:xlink="http://www.w3.org/1999/xlink">
    <!-- Generator: Sketch 59.1 (86144) - https://sketch.com -->
    <title>1768 - EXE</title>
    <desc>Created with Sketch.</desc>
    <g id="File-type-Icon-Set" stroke="none" stroke-width="1" fill="none" fill-rule="evenodd">
        <g id="1761---RSS" transform="translate(-1.000000, -1.000000)">
            <rect id="Rectangle" x="0" y="0" width="50" height="50"></rect>
            <rect id="Rectangle" x="6.24997559" y="6.24997559" width="37.5" height="37.5"></rect>
            <path d="M31.8161621,6.44527832 L39.8425049,14.4813721 L33.2511475,14.4813721 C32.4618896,14.4813721 31.8161621,13.8356592 31.8161621,13.0464014 L31.8161621,6.44527832 L31.8161621,6.44527832 Z" id="Path" fill="#80CBC4"></path>
            <path d="M11.1047607,6.44528809 L31.8175293,6.44528809 L31.8175293,13.0064941 C31.8175293,13.8177246 32.4812085,14.4813745 33.2924097,14.4813745 L39.8437769,14.4813745 L39.8437769,34.3750024 C39.8437769,34.9121216 39.404353,35.3515454 38.8672339,35.3515454 L11.1047827,35.3515454 C10.5676636,35.3515454 10.1282397,34.9121216 10.1282397,34.3750024 L10.1282397,7.42187744 C10.1282397,6.8847583 10.5676636,6.44528809 11.1047827,6.44528809 L11.1047607,6.44528809 Z" id="Path" fill="#B2DFDB"></path>
            <polygon id="Path" fill="#00897B" fill-rule="nonzero" points="16.4062256 18.6362793 34.375 18.6362793 34.375 20.1988281 16.4062256 20.1988281"></polygon>
            <polygon id="Path" fill="#00897B" fill-rule="nonzero" points="16.4062256 24.1049072 34.375 24.1049072 34.375 25.6674805 16.4062256 25.6674805"></polygon>
            <path d="M8.23720703,29.9362793 L41.7628418,29.9362793 C42.3091016,29.9362793 42.8061694,30.1617156 43.1669019,30.5248413 C43.5267114,30.8870435 43.7500708,31.3851489 43.7500708,31.9315527 L43.7500708,41.5593115 C43.7500708,42.1057153 43.5266819,42.6037915 43.1669019,42.9659961 C42.8061401,43.3291211 42.3090747,43.5545874 41.7628418,43.5545874 L8.23720703,43.5545874 C7.69100342,43.5545874 7.19387939,43.3291223 6.83311768,42.9659961 C6.4733374,42.6038501 6.24997559,42.1057739 6.24997559,41.5593115 L6.24997559,31.9315527 C6.24997559,31.3851196 6.47333569,30.8870435 6.83311768,30.5248413 C7.1938208,30.1617163 7.69094482,29.9362793 8.23720703,29.9362793 Z" id="Path" fill="#00897B"></path>
            <path d="M13.6413501,41.111573 L13.6413501,32.3733643 L17.3563477,32.3733643 C18.2901855,32.3733643 18.9676782,32.4527197 19.3908667,32.6093831 C19.8140283,32.7660176 20.1537964,33.0447419 20.4080981,33.4455549 C20.6624268,33.848387 20.7885547,34.3061506 20.7885547,34.8229133 C20.7885547,35.4780281 20.5952991,36.0212312 20.2107764,36.4484871 C19.8262549,36.8736946 19.2484473,37.1442878 18.4814233,37.2541511 C18.8639258,37.4779436 19.1792725,37.722093 19.4274878,37.988592 C19.6756763,38.2551179 20.0093604,38.7271272 20.4305029,39.4066365 L21.4985986,41.111573 L19.3888184,41.111573 L18.1131934,39.2093147 C17.6594946,38.5297761 17.3502637,38.1025203 17.1834204,37.9255281 C17.0165781,37.7485356 16.839585,37.6284944 16.6524146,37.561363 C16.4652432,37.4962524 16.1702271,37.463697 15.7633276,37.463697 L15.4072949,37.463697 L15.4072949,41.111573 L13.6413501,41.111573 L13.6413501,41.111573 Z M15.4073022,36.068042 L16.7114185,36.068042 C17.557771,36.068042 18.0867578,36.0334395 18.2983252,35.9622444 C18.5079019,35.8910496 18.6726978,35.7669414 18.79271,35.5919685 C18.9107339,35.4169946 18.9717498,35.1993147 18.9717498,34.9368538 C18.9717498,34.641866 18.8924231,34.4058479 18.7357598,34.2247883 C18.5790964,34.0437012 18.3573516,33.9297712 18.0704668,33.8809529 C17.9280481,33.8626423 17.4987725,33.8524634 16.7826421,33.8524634 L15.4073022,33.8524634 L15.4073022,36.068042 L15.4073022,36.068042 Z M22.005217,38.269375 L23.7223242,38.1005142 C23.8240559,38.6783193 24.0336035,39.101481 24.3509961,39.3720742 C24.6663403,39.6406191 25.0915503,39.7769546 25.6286694,39.7769546 C26.1962964,39.7769546 26.6255713,39.6569124 26.9124268,39.4148086 C27.2013306,39.1747239 27.3457959,38.893981 27.3457959,38.5725234 C27.3457959,38.3649941 27.284751,38.190021 27.1626902,38.0455825 C27.0426479,37.8990981 26.831052,37.7729434 26.527905,37.6671743 C26.3224231,37.5939321 25.8504148,37.4677766 25.1159739,37.2846719 C24.1699387,37.0507004 23.5066917,36.7617983 23.1262351,36.4200088 C22.589116,35.9398672 22.320571,35.3539297 22.320571,34.6621938 C22.320571,34.2166274 22.4466978,33.8015981 22.6989792,33.4130093 C22.951262,33.0264395 23.3154246,32.7314517 23.7894822,32.5279897 C24.2655564,32.3265735 24.8372507,32.2248696 25.5086277,32.2248696 C26.6072605,32.2248696 27.4312375,32.4649253 27.986655,32.9450649 C28.5400388,33.4272524 28.8309592,34.0681216 28.859448,34.8717397 L27.0955222,34.9490479 C27.0202615,34.4994434 26.8574849,34.1759375 26.6092966,33.9806348 C26.3610813,33.7832844 25.9887571,33.6856177 25.4923533,33.6856177 C24.979658,33.6856177 24.5768259,33.7893967 24.2879221,34.0009912 C24.1007507,34.1352495 24.0071506,34.3163354 24.0071506,34.5421484 C24.0071506,34.7496777 24.0946377,34.9266699 24.2696116,35.0731543 C24.4913567,35.2603257 25.0325413,35.4556567 25.8911204,35.6570728 C26.7496702,35.8605073 27.384426,36.0700562 27.7953904,36.2857153 C28.206384,36.5034236 28.5278123,36.7984106 28.7617844,37.1748022 C28.9937373,37.5511914 29.1096848,38.0150684 29.1096848,38.5664038 C29.1096848,39.0669019 28.9713608,39.5368628 28.6926072,39.972251 C28.413884,40.4096582 28.0212302,40.7351807 27.5125999,40.9467773 C27.0039695,41.1603909 26.3692136,41.266189 25.6103489,41.266189 C24.5056028,41.266189 23.6572312,41.0118896 23.0651829,40.5012109 C22.4731321,39.9905615 22.1191477,39.2459424 22.005217,38.2693701 L22.005217,38.269375 Z M30.1473069,38.269375 L31.8644141,38.1005142 C31.9661458,38.6783193 32.1756934,39.101481 32.4930859,39.3720742 C32.8084302,39.6406191 33.2336401,39.7769546 33.7707593,39.7769546 C34.3383862,39.7769546 34.7676611,39.6569124 35.0545166,39.4148086 C35.3434204,39.1747239 35.4878857,38.893981 35.4878857,38.5725234 C35.4878857,38.3649941 35.4268408,38.190021 35.30478,38.0455825 C35.1847378,37.8990981 34.9731418,37.7729434 34.6699949,37.6671743 C34.4645129,37.5939321 33.9925046,37.4677766 33.2580637,37.2846719 C32.3120286,37.0507004 31.6487815,36.7617983 31.268325,36.4200088 C30.7312058,35.9398672 30.4626609,35.3539297 30.4626609,34.6621938 C30.4626609,34.2166274 30.5887876,33.8015981 30.8410691,33.4130093 C31.0933518,33.0264395 31.4575144,32.7314517 31.931572,32.5279897 C32.4076462,32.3265735 32.9793406,32.2248696 33.6507175,32.2248696 C34.7493503,32.2248696 35.5733274,32.4649253 36.1287449,32.9450649 C36.6821287,33.4272524 36.9730491,34.0681216 37.0015378,34.8717397 L35.2376121,34.9490479 C35.1623513,34.4994434 34.9995747,34.1759375 34.7513865,33.9806348 C34.5031711,33.7832844 34.1308469,33.6856177 33.6344431,33.6856177 C33.1217478,33.6856177 32.7189158,33.7893967 32.430012,34.0009912 C32.2428406,34.1352495 32.1492405,34.3163354 32.1492405,34.5421484 C32.1492405,34.7496777 32.2367275,34.9266699 32.4117014,35.0731543 C32.6334465,35.2603257 33.1746311,35.4556567 34.0332102,35.6570728 C34.89176,35.8605073 35.5265159,36.0700562 35.9374802,36.2857153 C36.3484739,36.5034236 36.6699021,36.7984106 36.9038743,37.1748022 C37.1358271,37.5511914 37.2517747,38.0150684 37.2517747,38.5664038 C37.2517747,39.0669019 37.1134507,39.5368628 36.834697,39.972251 C36.5559739,40.4096582 36.1633201,40.7351807 35.6546897,40.9467773 C35.1460593,41.1603909 34.5113035,41.266189 33.7524387,41.266189 C32.6476926,41.266189 31.799321,41.0118896 31.2072727,40.5012109 C30.6152219,39.9905615 30.2612375,39.2459424 30.1473069,38.2693701 L30.1473069,38.269375 Z" id="Shape" fill="#FFFFFF" fill-rule="nonzero"></path>
        </g>
    </g>
</svg>