<?xml version="1.0" encoding="UTF-8"?>
<svg width="48px" height="48px" viewBox="0 0 48 48" version="1.1" xmlns="http://www.w3.org/2000/svg" xmlns:xlink="http://www.w3.org/1999/xlink">
    <!-- Generator: Sketch 59.1 (86144) - https://sketch.com -->
    <title>1768 - EXE</title>
    <desc>Created with Sketch.</desc>
    <g id="File-type-Icon-Set" stroke="none" stroke-width="1" fill="none" fill-rule="evenodd">
        <g id="1733---RTF" transform="translate(-1.000000, -1.000000)">
            <rect id="_187831992" x="0" y="0" width="50" height="50"></rect>
            <rect id="_187831872" x="6.24997559" y="6.24997559" width="37.5" height="37.5"></rect>
            <path d="M31.8161621,6.24996582 L39.8425049,14.2860596 L33.2511475,14.2860596 C32.4618896,14.2860596 31.8161621,13.6403467 31.8161621,12.8510889 L31.8161621,6.24996582 L31.8161621,6.24996582 Z" id="_187831704" fill="#7986CB"></path>
            <path d="M11.1047607,6.24997559 L31.8175293,6.24997559 L31.8175293,12.8111816 C31.8175293,13.6224121 32.4812085,14.286062 33.2924097,14.286062 L39.8437769,14.286062 L39.8437769,34.1796899 C39.8437769,34.7168091 39.404353,35.1562329 38.8672339,35.1562329 L11.1047827,35.1562329 C10.5676636,35.1562329 10.1282397,34.7168091 10.1282397,34.1796899 L10.1282397,7.22656494 C10.1282397,6.6894458 10.5676636,6.24997559 11.1047827,6.24997559 L11.1047607,6.24997559 Z" id="_187831536" fill="#C5CAE9"></path>
            <polygon id="_187831320" fill="#3949AB" fill-rule="nonzero" points="16.4062256 18.4409912 34.375 18.4409912 34.375 20.0035156 16.4062256 20.0035156"></polygon>
            <polygon id="_187831392" fill="#3949AB" fill-rule="nonzero" points="16.4062256 23.9096191 34.375 23.9096191 34.375 25.472168 16.4062256 25.472168"></polygon>
            <path d="M8.23720703,29.7409668 L41.7628418,29.7409668 C42.3091016,29.7409668 42.8061694,29.9664031 43.1669019,30.3295288 C43.5267114,30.691731 43.7500708,31.1898364 43.7500708,31.7362402 L43.7500708,41.363999 C43.7500708,41.9104028 43.5266819,42.408479 43.1669019,42.7706836 C42.8061401,43.1338086 42.3090747,43.3592749 41.7628418,43.3592749 L8.23720703,43.3592749 C7.69100342,43.3592749 7.19387939,43.1338098 6.83311768,42.7706836 C6.4733374,42.4085376 6.24997559,41.9104614 6.24997559,41.363999 L6.24997559,31.7362402 C6.24997559,31.1898071 6.47333569,30.691731 6.83311768,30.3295288 C7.1938208,29.9664038 7.69094482,29.7409668 8.23720703,29.7409668 Z" id="_187831224" fill="#3949AB"></path>
            <path d="M14.3117358,40.9194343 L14.3117358,32.1812256 L18.0267334,32.1812256 C18.9605713,32.1812256 19.638064,32.2605811 20.0612524,32.4172444 C20.4844141,32.5738789 20.8241821,32.8526033 21.0784839,33.2534163 C21.3328125,33.6562483 21.4589404,34.114012 21.4589404,34.6307747 C21.4589404,35.2858894 21.2656848,35.8290925 20.8811621,36.2563484 C20.4966406,36.6815559 19.918833,36.9521492 19.1518091,37.0620125 C19.5343115,37.2858049 19.8496582,37.5299543 20.0978735,37.7964534 C20.346062,38.0629792 20.6797461,38.5349885 21.1008887,39.2144978 L22.1689844,40.9194343 L20.0592041,40.9194343 L18.7835791,39.017176 C18.3298804,38.3376375 18.0206494,37.9103816 17.8538062,37.7333894 C17.6869639,37.556397 17.5099707,37.4363557 17.3228003,37.3692244 C17.1356289,37.3041138 16.8406128,37.2715583 16.4337134,37.2715583 L16.0776807,37.2715583 L16.0776807,40.9194343 L14.3117358,40.9194343 L14.3117358,40.9194343 Z M16.077688,35.8759033 L17.3818042,35.8759033 C18.2281567,35.8759033 18.7571436,35.8413008 18.9687109,35.7701057 C19.1782876,35.6989109 19.3430835,35.5748027 19.4630957,35.3998298 C19.5811196,35.224856 19.6421355,35.007176 19.6421355,34.7447151 C19.6421355,34.4497273 19.5628088,34.2137092 19.4061455,34.0326497 C19.2494822,33.8515625 19.0277373,33.7376326 18.7408525,33.6888142 C18.5984338,33.6705036 18.1691582,33.6603247 17.4530278,33.6603247 L16.077688,33.6603247 L16.077688,35.8759033 L16.077688,35.8759033 Z M25.0885034,40.9194336 L25.0885034,33.6603271 L22.4965601,33.6603271 L22.4965601,32.1812378 L29.4403345,32.1812378 L29.4403345,33.6603271 L26.8544702,33.6603271 L26.8544702,40.9194336 L25.0884961,40.9194336 L25.0885034,40.9194336 Z M30.5898218,40.9194385 L30.5898218,32.1812256 L36.5814233,32.1812256 L36.5814233,33.6603149 L32.3557886,33.6603149 L32.3557886,35.7273608 L36.0036646,35.7273608 L36.0036646,37.2064502 L32.3557886,37.2064502 L32.3557886,40.9194385 L30.5898218,40.9194385 L30.5898218,40.9194385 Z" id="_187831152" fill="#FFFFFF" fill-rule="nonzero"></path>
        </g>
    </g>
</svg>