<?xml version="1.0" encoding="UTF-8"?>
<svg width="48px" height="48px" viewBox="0 0 48 48" version="1.1" xmlns="http://www.w3.org/2000/svg" xmlns:xlink="http://www.w3.org/1999/xlink">
    <!-- Generator: Sketch 59.1 (86144) - https://sketch.com -->
    <title>1768 - EXE</title>
    <desc>Created with Sketch.</desc>
    <g id="File-type-Icon-Set" stroke="none" stroke-width="1" fill="none" fill-rule="evenodd">
        <g id="1769---SQL" transform="translate(-1.000000, -1.000000)">
            <rect id="Rectangle" x="0" y="0" width="50" height="50"></rect>
            <rect id="Rectangle" x="6.24997559" y="6.24997559" width="37.5" height="37.5"></rect>
            <path d="M31.8161621,6.44527832 L39.8425049,14.4813721 L33.2511475,14.4813721 C32.4618896,14.4813721 31.8161621,13.8356592 31.8161621,13.0464014 L31.8161621,6.44527832 L31.8161621,6.44527832 Z" id="Path" fill="#81D4FA"></path>
            <path d="M11.1047607,6.44528809 L31.8175293,6.44528809 L31.8175293,13.0064941 C31.8175293,13.8177246 32.4812085,14.4813745 33.2924097,14.4813745 L39.8437769,14.4813745 L39.8437769,34.3750024 C39.8437769,34.9121216 39.404353,35.3515454 38.8672339,35.3515454 L11.1047827,35.3515454 C10.5676636,35.3515454 10.1282397,34.9121216 10.1282397,34.3750024 L10.1282397,7.42187744 C10.1282397,6.8847583 10.5676636,6.44528809 11.1047827,6.44528809 L11.1047607,6.44528809 Z" id="Path" fill="#B3E5FC"></path>
            <polygon id="Path" fill="#039BE5" fill-rule="nonzero" points="16.4062256 18.6362793 34.375 18.6362793 34.375 20.1988281 16.4062256 20.1988281"></polygon>
            <polygon id="Path" fill="#039BE5" fill-rule="nonzero" points="16.4062256 24.1049072 34.375 24.1049072 34.375 25.6674805 16.4062256 25.6674805"></polygon>
            <path d="M8.23720703,29.9362793 L41.7628418,29.9362793 C42.3091016,29.9362793 42.8061694,30.1617156 43.1669019,30.5248413 C43.5267114,30.8870435 43.7500708,31.3851489 43.7500708,31.9315527 L43.7500708,41.5593115 C43.7500708,42.1057153 43.5266819,42.6037915 43.1669019,42.9659961 C42.8061401,43.3291211 42.3090747,43.5545874 41.7628418,43.5545874 L8.23720703,43.5545874 C7.69100342,43.5545874 7.19387939,43.3291223 6.83311768,42.9659961 C6.4733374,42.6038501 6.24997559,42.1057739 6.24997559,41.5593115 L6.24997559,31.9315527 C6.24997559,31.3851196 6.47333569,30.8870435 6.83311768,30.5248413 C7.1938208,30.1617163 7.69094482,29.9362793 8.23720703,29.9362793 Z" id="Path" fill="#039BE5"></path>
            <path d="M13.079824,37.9082031 L14.7969312,37.7393423 C14.8986628,38.3171475 15.1082104,38.7403091 15.425603,39.0109023 C15.7409473,39.2794473 16.1661572,39.4157827 16.7032764,39.4157827 C17.2709033,39.4157827 17.7001782,39.2957405 17.9870337,39.0536367 C18.2759375,38.813552 18.4204028,38.5328091 18.4204028,38.2113516 C18.4204028,38.0038223 18.3593579,37.8288491 18.2372971,37.6844106 C18.1172549,37.5379263 17.9056589,37.4117715 17.602512,37.3060024 C17.39703,37.2327603 16.9250217,37.1066047 16.1905808,36.9235 C15.2445457,36.6895286 14.5812986,36.4006265 14.200842,36.0588369 C13.6637229,35.5786953 13.395178,34.9927578 13.395178,34.301022 C13.395178,33.8554556 13.5213047,33.4404263 13.7735862,33.0518374 C14.0258689,32.6652676 14.3900315,32.3702798 14.8640891,32.1668179 C15.3401633,31.9654016 15.9118577,31.8636978 16.5832346,31.8636978 C17.6818674,31.8636978 18.5058445,32.1037534 19.061262,32.5838931 C19.6146458,33.0660806 19.9055662,33.7069497 19.9340549,34.5105679 L18.1701292,34.587876 C18.0948684,34.1382715 17.9320918,33.8147656 17.6839036,33.6194629 C17.4356882,33.4221125 17.063364,33.3244458 16.5669602,33.3244458 C16.0542649,33.3244458 15.6514329,33.4282249 15.3625291,33.6398193 C15.1753577,33.7740776 15.0817576,33.9551636 15.0817576,34.1809766 C15.0817576,34.3885059 15.1692446,34.565498 15.3442185,34.7119824 C15.5659636,34.8991538 16.1071482,35.0944849 16.9657273,35.2959009 C17.8242771,35.4993354 18.459033,35.7088843 18.8699973,35.9245435 C19.280991,36.1422517 19.6024192,36.4372388 19.8363914,36.8136304 C20.0683442,37.1900195 20.1842917,37.6538965 20.1842917,38.2052319 C20.1842917,38.70573 20.0459678,39.1756909 19.7672141,39.6110791 C19.488491,40.0484863 19.0958372,40.3740088 18.5872068,40.5856055 C18.0785764,40.799219 17.4438206,40.9050171 16.6849558,40.9050171 C15.5802097,40.9050171 14.7318381,40.6507178 14.1397898,40.1400391 C13.547739,39.6293896 13.1937546,38.8847705 13.079824,37.9081982 L13.079824,37.9082031 Z M28.7027832,39.6415942 C29.134104,39.9508545 29.6061133,40.199043 30.1147437,40.3801294 L29.4657129,41.6272656 C29.1992139,41.547939 28.9388013,41.4380757 28.6844727,41.2997217 C28.6275225,41.2712322 28.2368872,41.0128662 27.5105786,40.5245654 C26.9368384,40.7748291 26.3040991,40.898938 25.6082983,40.898938 C24.265542,40.898938 23.2136816,40.5042383 22.4528052,39.7128174 C21.6918921,38.9234155 21.311438,37.8125854 21.311438,36.3823242 C21.311438,34.9541016 21.6918945,33.8453125 22.4548242,33.0518555 C23.2177539,32.2604346 24.2533252,31.8637158 25.5615137,31.8637158 C26.8554785,31.8637158 27.8828882,32.2604346 28.6417627,33.0518555 C29.4006567,33.8453223 29.7811133,34.9541064 29.7811133,36.3823242 C29.7811133,37.137124 29.6753157,37.8003979 29.4657397,38.3720923 C29.3050393,38.8094995 29.0507104,39.232688 28.7028101,39.6416064 L28.7027832,39.6415942 Z M27.2826904,38.6467407 C27.5105776,38.3802148 27.6794385,38.0587549 27.7933667,37.6803467 C27.9052485,37.3039575 27.9622275,36.8706152 27.9622275,36.3823145 C27.9622275,35.371167 27.7404534,34.6184155 27.2949155,34.1199658 C26.8493491,33.6215137 26.2674766,33.3712524 25.5493003,33.3712524 C24.8290757,33.3712524 24.2472324,33.6215161 23.7996177,34.1219849 C23.3520322,34.6224829 23.1282407,35.3752344 23.1282407,36.3823145 C23.1282407,37.4016211 23.3520332,38.1665991 23.7996177,38.6731812 C24.2472324,39.1797632 24.8107651,39.4340942 25.4943687,39.4340942 C25.7486973,39.4340942 25.9908018,39.3913599 26.2166123,39.3079387 C25.8585605,39.0739673 25.4943687,38.8908611 25.1261387,38.7586223 L25.6205234,37.7515422 C26.2003477,37.9509399 26.7557773,38.2479753 27.282689,38.6467424 L27.2826904,38.6467407 Z M31.2113525,40.7504102 L31.2113525,32.0834399 L32.9752515,32.0834399 L32.9752515,39.2774341 L37.3616528,39.2774341 L37.3616528,40.7504102 L31.2113525,40.7504102 L31.2113525,40.7504102 Z" id="Shape" fill="#FFFFFF" fill-rule="nonzero"></path>
        </g>
    </g>
</svg>