<?xml version="1.0" encoding="UTF-8"?>
<svg width="48px" height="48px" viewBox="0 0 48 48" version="1.1" xmlns="http://www.w3.org/2000/svg" xmlns:xlink="http://www.w3.org/1999/xlink">
    <!-- Generator: Sketch 59.1 (86144) - https://sketch.com -->
    <title>1768 - EXE</title>
    <desc>Created with Sketch.</desc>
    <g id="File-type-Icon-Set" stroke="none" stroke-width="1" fill="none" fill-rule="evenodd">
        <g id="1726---SVG" transform="translate(-1.000000, -1.000000)">
            <rect id="Rectangle" x="0" y="0" width="50" height="50"></rect>
            <rect id="Rectangle" x="6.24997559" y="6.24997559" width="37.5" height="37.5"></rect>
            <g id="_185674424" transform="translate(6.225586, 6.225586)">
                <g id="Group" transform="translate(3.881836, 0.000000)">
                    <path d="M0.997338867,0.0243896484 L21.7101074,0.0243896484 L21.7101074,6.5855957 C21.7101074,7.39682617 22.3737866,8.06047607 23.1849878,8.06047607 L29.736355,8.06047607 L29.736355,27.954104 C29.736355,28.4912231 29.2969312,28.930647 28.759812,28.930647 L0.99736084,28.930647 C0.460241699,28.930647 0.0208178711,28.4912231 0.0208178711,27.954104 L0.0208178711,1.000979 C0.0208178711,0.463859863 0.460241699,0.0243896484 0.99736084,0.0243896484 L0.997338867,0.0243896484 Z" id="_185675144" fill="#B3E5FC"></path>
                    <path d="M21.7087402,0.0243798828 L29.735083,8.06047363 L23.1437256,8.06047363 C22.3544678,8.06047363 21.7087402,7.41476074 21.7087402,6.62550293 L21.7087402,0.0243798828 L21.7087402,0.0243798828 Z" id="_185674976" fill="#81D4FA"></path>
                    <polygon id="_185674880" fill="#039BE5" fill-rule="nonzero" points="6.29880371 12.2154053 24.2675781 12.2154053 24.2675781 13.7779297 6.29880371 13.7779297"></polygon>
                    <polygon id="_185674760" fill="#039BE5" fill-rule="nonzero" points="6.29880371 17.6840332 24.2675781 17.6840332 24.2675781 19.246582 6.29880371 19.246582"></polygon>
                </g>
                <g id="Group" transform="translate(0.000000, 23.510742)">
                    <path d="M2.01162109,0.00463867188 L35.5372559,0.00463867188 C36.0835156,0.00463867188 36.5805835,0.230074951 36.9413159,0.593200684 C37.3011255,0.955402832 37.5244849,1.4535083 37.5244849,1.99991211 L37.5244849,11.6276709 C37.5244849,12.1740747 37.3010959,12.6721509 36.9413159,13.0343555 C36.5805542,13.3974805 36.0834888,13.6229468 35.5372559,13.6229468 L2.01162109,13.6229468 C1.46541748,13.6229468 0.968293457,13.3974817 0.607531738,13.0343555 C0.247751465,12.6722095 0.0243896484,12.1741333 0.0243896484,11.6276709 L0.0243896484,1.99991211 C0.0243896484,1.453479 0.247749756,0.955402832 0.607531738,0.593200684 C0.968234863,0.230075684 1.46535889,0.00463867188 2.01162109,0.00463867188 Z" id="_185674616" fill="#039BE5"></path>
                    <path d="M6.69557104,8.33764648 L8.41267822,8.16878564 C8.51440991,8.74659082 8.72395752,9.16975244 9.0413501,9.4403457 C9.35669434,9.70889063 9.7819043,9.84522607 10.3190234,9.84522607 C10.8866504,9.84522607 11.3159253,9.72518384 11.6027808,9.48308008 C11.8916846,9.24299536 12.0361499,8.96225244 12.0361499,8.64079492 C12.0361499,8.43326563 11.975105,8.25829248 11.8530442,8.113854 C11.733002,7.96736963 11.521406,7.84121484 11.218259,7.7354458 C11.0127771,7.66220361 10.5407688,7.5360481 9.80632788,7.35294336 C8.86029272,7.11897192 8.19704565,6.83006982 7.81658911,6.48828027 C7.27946997,6.00813867 7.01092505,5.42220117 7.01092505,4.73046533 C7.01092505,4.28489893 7.13705176,3.86986963 7.38933325,3.48128076 C7.64161597,3.09471094 8.00577856,2.79972314 8.47983618,2.59626123 C8.9559104,2.39484497 9.52760474,2.29314111 10.1989817,2.29314111 C11.2976145,2.29314111 12.1215916,2.53319678 12.677009,3.01333643 C13.2303928,3.49552393 13.5213132,4.13639307 13.549802,4.94001123 L11.7858762,5.01731934 C11.7106155,4.56771484 11.5478389,4.24420898 11.2996506,4.04890625 C11.0514353,3.85155591 10.6791111,3.75388916 10.1827073,3.75388916 C9.67001196,3.75388916 9.26717993,3.85766821 8.97827612,4.0692627 C8.79110474,4.203521 8.69750464,4.38460693 8.69750464,4.61041992 C8.69750464,4.81794922 8.7849917,4.99494141 8.95996558,5.14142578 C9.18171069,5.32859717 9.72289526,5.52392822 10.5814744,5.72534424 C11.4400242,5.92877881 12.07478,6.13832764 12.4857444,6.35398682 C12.896738,6.57169507 13.2181663,6.86668213 13.4521384,7.24307373 C13.6840913,7.61946289 13.8000388,8.08333984 13.8000388,8.63467529 C13.8000388,9.13517334 13.6617148,9.60513428 13.3829612,10.0405225 C13.104238,10.4779297 12.7115842,10.8034521 12.2029539,11.0150488 C11.6943235,11.2286624 11.0595676,11.3344604 10.3007029,11.3344604 C9.19595679,11.3344604 8.34758521,11.0801611 7.75553687,10.5694824 C7.16348608,10.058833 6.80950171,9.31421387 6.69557104,8.3376416 L6.69557104,8.33764648 Z M17.5130371,11.1798584 L14.3900635,2.44165039 L16.304541,2.44165039 L18.5140063,8.90935059 L20.6543237,2.44165039 L22.5260669,2.44165039 L19.3969897,11.1798584 L17.5130493,11.1798584 L17.5130371,11.1798584 Z M27.4922852,7.96738281 L27.4922852,6.49440674 L31.2947754,6.49440674 L31.2947754,9.97543701 C30.9244995,10.3335156 30.3894263,10.6488623 29.6875122,10.9214722 C28.9855981,11.1920654 28.2755811,11.3283984 27.557373,11.3283984 C26.6438916,11.3283984 25.8463599,11.1371323 25.1668506,10.7546582 C24.487312,10.3701367 23.976665,9.82283691 23.6348486,9.10875488 C23.2930615,8.39464355 23.1221533,7.6194873 23.1221533,6.78126709 C23.1221533,5.87185303 23.3134194,5.06212158 23.6938745,4.35409424 C24.0763501,3.64814209 24.6337964,3.10490967 25.3702856,2.72852051 C25.9297803,2.43759766 26.6276294,2.29316162 27.4617554,2.29316162 C28.546145,2.29316162 29.3945435,2.52102002 30.0028687,2.97471924 C30.61323,3.43043701 31.0058838,4.05910889 31.1808569,4.86272461 L29.4291284,5.19029541 C29.3050491,4.76099121 29.0730957,4.42125244 28.7333276,4.17303467 C28.3935864,3.92481934 27.9703979,3.80071045 27.4617676,3.80071045 C26.6907056,3.80071045 26.0783252,4.04486084 25.6225806,4.53313232 C25.1668628,5.02345215 24.9410229,5.7477417 24.9410229,6.7100708 C24.9410229,7.74561279 25.1709287,8.52483398 25.6327588,9.04364258 C26.0925415,9.56242188 26.6967896,9.82081787 27.443457,9.82081787 C27.8137329,9.82081787 28.1840405,9.74757568 28.5563354,9.60310962 C28.9266113,9.45867236 29.2460229,9.28167896 29.5125513,9.076198 L29.5125513,7.96738452 L27.4923047,7.96738452 L27.4922852,7.96738281 Z" id="_185674520" fill="#FFFFFF" fill-rule="nonzero"></path>
                </g>
            </g>
        </g>
    </g>
</svg>