<?xml version="1.0" encoding="UTF-8"?>
<svg width="48px" height="48px" viewBox="0 0 48 48" version="1.1" xmlns="http://www.w3.org/2000/svg" xmlns:xlink="http://www.w3.org/1999/xlink">
    <!-- Generator: Sketch 59.1 (86144) - https://sketch.com -->
    <title>1768 - EXE</title>
    <desc>Created with Sketch.</desc>
    <g id="File-type-Icon-Set" stroke="none" stroke-width="1" fill="none" fill-rule="evenodd">
        <g id="1766---SWF" transform="translate(-1.000000, -1.000000)">
            <rect id="Rectangle" x="0" y="0" width="50" height="50"></rect>
            <rect id="Rectangle" x="6.24997559" y="6.24997559" width="37.5" height="37.5"></rect>
            <path d="M31.8161621,6.44527832 L39.8425049,14.4813721 L33.2511475,14.4813721 C32.4618896,14.4813721 31.8161621,13.8356592 31.8161621,13.0464014 L31.8161621,6.44527832 L31.8161621,6.44527832 Z" id="Path" fill="#78909C"></path>
            <path d="M11.1047607,6.44528809 L31.8175293,6.44528809 L31.8175293,13.0064941 C31.8175293,13.8177246 32.4812085,14.4813745 33.2924097,14.4813745 L39.8437769,14.4813745 L39.8437769,34.3750024 C39.8437769,34.9121216 39.404353,35.3515454 38.8672339,35.3515454 L11.1047827,35.3515454 C10.5676636,35.3515454 10.1282397,34.9121216 10.1282397,34.3750024 L10.1282397,7.42187744 C10.1282397,6.8847583 10.5676636,6.44528809 11.1047827,6.44528809 L11.1047607,6.44528809 Z" id="Path" fill="#CFD8DC"></path>
            <polygon id="Path" fill="#546E7A" fill-rule="nonzero" points="16.4062256 18.6362793 34.375 18.6362793 34.375 20.1988281 16.4062256 20.1988281"></polygon>
            <polygon id="Path" fill="#546E7A" fill-rule="nonzero" points="16.4062256 24.1049072 34.375 24.1049072 34.375 25.6674805 16.4062256 25.6674805"></polygon>
            <path d="M8.23720703,29.9362793 L41.7628418,29.9362793 C42.3091016,29.9362793 42.8061694,30.1617156 43.1669019,30.5248413 C43.5267114,30.8870435 43.7500708,31.3851489 43.7500708,31.9315527 L43.7500708,41.5593115 C43.7500708,42.1057153 43.5266819,42.6037915 43.1669019,42.9659961 C42.8061401,43.3291211 42.3090747,43.5545874 41.7628418,43.5545874 L8.23720703,43.5545874 C7.69100342,43.5545874 7.19387939,43.3291223 6.83311768,42.9659961 C6.4733374,42.6038501 6.24997559,42.1057739 6.24997559,41.5593115 L6.24997559,31.9315527 C6.24997559,31.3851196 6.47333569,30.8870435 6.83311768,30.5248413 C7.1938208,30.1617163 7.69094482,29.9362793 8.23720703,29.9362793 Z" id="Path" fill="#546E7A"></path>
            <path d="M12.164321,38.2692871 L13.8814282,38.1004263 C13.9831599,38.6782314 14.1927075,39.1013931 14.5101001,39.3719863 C14.8254443,39.6405312 15.2506543,39.7768667 15.7877734,39.7768667 C16.3554004,39.7768667 16.7846753,39.6568245 17.0715308,39.4147207 C17.3604346,39.174636 17.5048999,38.8938931 17.5048999,38.5724355 C17.5048999,38.3649063 17.443855,38.1899331 17.3217942,38.0454946 C17.201752,37.8990103 16.990156,37.7728555 16.687009,37.6670864 C16.4815271,37.5938442 16.0095188,37.4676887 15.2750779,37.284584 C14.3290427,37.0506125 13.6657957,36.7617104 13.2853391,36.4199209 C12.74822,35.9397793 12.479675,35.3538418 12.479675,34.662106 C12.479675,34.2165396 12.6058018,33.8015103 12.8580833,33.4129214 C13.110366,33.0263516 13.4745286,32.7313638 13.9485862,32.5279019 C14.4246604,32.3264856 14.9963547,32.2247817 15.6677317,32.2247817 C16.7663645,32.2247817 17.5903416,32.4648374 18.145759,32.9449771 C18.6991428,33.4271646 18.9900632,34.0680337 19.018552,34.8716519 L17.2546262,34.94896 C17.1793655,34.4993555 17.0165889,34.1758496 16.7684006,33.9805469 C16.5201853,33.7831965 16.1478611,33.6855298 15.6514573,33.6855298 C15.138762,33.6855298 14.7359299,33.7893088 14.4470261,34.0009033 C14.2598547,34.1351616 14.1662546,34.3162476 14.1662546,34.5420605 C14.1662546,34.7495898 14.2537417,34.926582 14.4287156,35.0730664 C14.6504607,35.2602378 15.1916453,35.4555688 16.0502244,35.6569849 C16.9087742,35.8604194 17.54353,36.0699683 17.9544944,36.2856274 C18.365488,36.5033357 18.6869163,36.7983228 18.9208884,37.1747144 C19.1528413,37.5511035 19.2687888,38.0149805 19.2687888,38.5663159 C19.2687888,39.066814 19.1304648,39.5367749 18.8517112,39.9721631 C18.572988,40.4095703 18.1803342,40.7350928 17.6717039,40.9466895 C17.1630735,41.160303 16.5283176,41.2661011 15.7694529,41.2661011 C14.6647068,41.2661011 13.8163352,41.0118018 13.2242869,40.501123 C12.6322361,39.9904736 12.2782517,39.2458545 12.164321,38.2692822 L12.164321,38.2692871 Z M21.9930176,41.111499 L19.9076611,32.373291 L21.7122461,32.373291 L23.0306055,38.3750977 L24.6276904,32.373291 L26.7252734,32.373291 L28.2572485,38.4768311 L29.5980151,32.373291 L31.3741113,32.373291 L29.2521338,41.111499 L27.3803906,41.111499 L25.6408862,34.5786865 L23.9054492,41.111499 L21.99302,41.111499 L21.9930176,41.111499 Z M32.2855957,41.1115039 L32.2855957,32.373291 L38.2771973,32.373291 L38.2771973,33.8523804 L34.0515625,33.8523804 L34.0515625,35.9194263 L37.6994385,35.9194263 L37.6994385,37.3985156 L34.0515625,37.3985156 L34.0515625,41.1115039 L32.2855957,41.1115039 L32.2855957,41.1115039 Z" id="Shape" fill="#FFFFFF" fill-rule="nonzero"></path>
        </g>
    </g>
</svg>