<?xml version="1.0" encoding="UTF-8"?>
<svg width="48px" height="48px" viewBox="0 0 48 48" version="1.1" xmlns="http://www.w3.org/2000/svg" xmlns:xlink="http://www.w3.org/1999/xlink">
    <!-- Generator: Sketch 59.1 (86144) - https://sketch.com -->
    <title>1768 - EXE</title>
    <desc>Created with Sketch.</desc>
    <g id="File-type-Icon-Set" stroke="none" stroke-width="1" fill="none" fill-rule="evenodd">
        <g id="1763---SYS" transform="translate(-1.000000, -1.000000)">
            <rect id="Rectangle" x="0" y="0" width="50" height="50"></rect>
            <rect id="Rectangle" x="6.24997559" y="6.24997559" width="37.5" height="37.5"></rect>
            <path d="M31.8161621,6.44527832 L39.8425049,14.4813721 L33.2511475,14.4813721 C32.4618896,14.4813721 31.8161621,13.8356592 31.8161621,13.0464014 L31.8161621,6.44527832 L31.8161621,6.44527832 Z" id="Path" fill="#CE93D8"></path>
            <path d="M11.1047607,6.44528809 L31.8175293,6.44528809 L31.8175293,13.0064941 C31.8175293,13.8177246 32.4812085,14.4813745 33.2924097,14.4813745 L39.8437769,14.4813745 L39.8437769,34.3750024 C39.8437769,34.9121216 39.404353,35.3515454 38.8672339,35.3515454 L11.1047827,35.3515454 C10.5676636,35.3515454 10.1282397,34.9121216 10.1282397,34.3750024 L10.1282397,7.42187744 C10.1282397,6.8847583 10.5676636,6.44528809 11.1047827,6.44528809 L11.1047607,6.44528809 Z" id="Path" fill="#E1BEE7"></path>
            <polygon id="Path" fill="#8E24AA" fill-rule="nonzero" points="16.4062256 18.6362793 34.375 18.6362793 34.375 20.1988281 16.4062256 20.1988281"></polygon>
            <polygon id="Path" fill="#8E24AA" fill-rule="nonzero" points="16.4062256 24.1049072 34.375 24.1049072 34.375 25.6674805 16.4062256 25.6674805"></polygon>
            <path d="M8.23720703,29.9362793 L41.7628418,29.9362793 C42.3091016,29.9362793 42.8061694,30.1617156 43.1669019,30.5248413 C43.5267114,30.8870435 43.7500708,31.3851489 43.7500708,31.9315527 L43.7500708,41.5593115 C43.7500708,42.1057153 43.5266819,42.6037915 43.1669019,42.9659961 C42.8061401,43.3291211 42.3090747,43.5545874 41.7628418,43.5545874 L8.23720703,43.5545874 C7.69100342,43.5545874 7.19387939,43.3291223 6.83311768,42.9659961 C6.4733374,42.6038501 6.24997559,42.1057739 6.24997559,41.5593115 L6.24997559,31.9315527 C6.24997559,31.3851196 6.47333569,30.8870435 6.83311768,30.5248413 C7.1938208,30.1617163 7.69094482,29.9362793 8.23720703,29.9362793 Z" id="Path" fill="#8E24AA"></path>
            <path d="M13.5264304,38.2692871 L15.2435376,38.1004263 C15.3452693,38.6782314 15.5548169,39.1013931 15.8722095,39.3719863 C16.1875537,39.6405312 16.6127637,39.7768667 17.1498828,39.7768667 C17.7175098,39.7768667 18.1467847,39.6568245 18.4336401,39.4147207 C18.7225439,39.174636 18.8670093,38.8938931 18.8670093,38.5724355 C18.8670093,38.3649063 18.8059644,38.1899331 18.6839036,38.0454946 C18.5638613,37.8990103 18.3522654,37.7728555 18.0491184,37.6670864 C17.8436365,37.5938442 17.3716282,37.4676887 16.6371873,37.284584 C15.6911521,37.0506125 15.027905,36.7617104 14.6474485,36.4199209 C14.1103293,35.9397793 13.8417844,35.3538418 13.8417844,34.662106 C13.8417844,34.2165396 13.9679111,33.8015103 14.2201926,33.4129214 C14.4724753,33.0263516 14.8366379,32.7313638 15.3106956,32.5279019 C15.7867698,32.3264856 16.3584641,32.2247817 17.0298411,32.2247817 C18.1284739,32.2247817 18.9524509,32.4648374 19.5078684,32.9449771 C20.0612522,33.4271646 20.3521726,34.0680337 20.3806614,34.8716519 L18.6167356,34.94896 C18.5414749,34.4993555 18.3786982,34.1758496 18.13051,33.9805469 C17.8822947,33.7831965 17.5099705,33.6855298 17.0135667,33.6855298 C16.5008713,33.6855298 16.0980393,33.7893088 15.8091355,34.0009033 C15.6219641,34.1351616 15.528364,34.3162476 15.528364,34.5420605 C15.528364,34.7495898 15.6158511,34.926582 15.790825,35.0730664 C16.0125701,35.2602378 16.5537546,35.4555688 17.4123337,35.6569849 C18.2708835,35.8604194 18.9056394,36.0699683 19.3166038,36.2856274 C19.7275974,36.5033357 20.0490256,36.7983228 20.2829978,37.1747144 C20.5149507,37.5511035 20.6308982,38.0149805 20.6308982,38.5663159 C20.6308982,39.066814 20.4925742,39.5367749 20.2138206,39.9721631 C19.9350974,40.4095703 19.5424436,40.7350928 19.0338132,40.9466895 C18.5251829,41.160303 17.890427,41.2661011 17.1315623,41.2661011 C16.0268162,41.2661011 15.1784446,41.0118018 14.5863962,40.501123 C13.9943455,39.9904736 13.6403611,39.2458545 13.5264304,38.2692822 L13.5264304,38.2692871 Z M24.4090088,41.111499 L24.4090088,37.4331299 L21.2087158,32.373291 L23.2778101,32.373291 L25.334707,35.8299316 L27.3488696,32.373291 L29.3813135,32.373291 L26.1688379,37.4453125 L26.1688379,41.111499 L24.4090063,41.111499 L24.4090088,41.111499 Z M29.8106101,38.2692871 L31.5277173,38.1004263 C31.629449,38.6782314 31.8389966,39.1013931 32.1563892,39.3719863 C32.4717334,39.6405312 32.8969434,39.7768667 33.4340625,39.7768667 C34.0016895,39.7768667 34.4309644,39.6568245 34.7178198,39.4147207 C35.0067236,39.174636 35.151189,38.8938931 35.151189,38.5724355 C35.151189,38.3649063 35.090144,38.1899331 34.9680833,38.0454946 C34.848041,37.8990103 34.6364451,37.7728555 34.3332981,37.6670864 C34.1278162,37.5938442 33.6558079,37.4676887 32.9213669,37.284584 C31.9753318,37.0506125 31.3120847,36.7617104 30.9316282,36.4199209 C30.394509,35.9397793 30.1259641,35.3538418 30.1259641,34.662106 C30.1259641,34.2165396 30.2520908,33.8015103 30.5043723,33.4129214 C30.756655,33.0263516 31.1208176,32.7313638 31.5948752,32.5279019 C32.0709495,32.3264856 32.6426438,32.2247817 33.3140208,32.2247817 C34.4126536,32.2247817 35.2366306,32.4648374 35.7920481,32.9449771 C36.3454319,33.4271646 36.6363523,34.0680337 36.6648411,34.8716519 L34.9009153,34.94896 C34.8256545,34.4993555 34.6628779,34.1758496 34.4146897,33.9805469 C34.1664744,33.7831965 33.7941501,33.6855298 33.2977463,33.6855298 C32.785051,33.6855298 32.382219,33.7893088 32.0933152,34.0009033 C31.9061438,34.1351616 31.8125437,34.3162476 31.8125437,34.5420605 C31.8125437,34.7495898 31.9000308,34.926582 32.0750046,35.0730664 C32.2967498,35.2602378 32.8379343,35.4555688 33.6965134,35.6569849 C34.5550632,35.8604194 35.1898191,36.0699683 35.6007834,36.2856274 C36.0117771,36.5033357 36.3332053,36.7983228 36.5671775,37.1747144 C36.7991304,37.5511035 36.9150779,38.0149805 36.9150779,38.5663159 C36.9150779,39.066814 36.7767539,39.5367749 36.4980002,39.9721631 C36.2192771,40.4095703 35.8266233,40.7350928 35.3179929,40.9466895 C34.8093625,41.160303 34.1746067,41.2661011 33.4157419,41.2661011 C32.3109958,41.2661011 31.4626243,41.0118018 30.8705759,40.501123 C30.2785251,39.9904736 29.9245408,39.2458545 29.8106101,38.2692822 L29.8106101,38.2692871 Z" id="Shape" fill="#FFFFFF" fill-rule="nonzero"></path>
        </g>
    </g>
</svg>