<?xml version="1.0" encoding="UTF-8"?>
<svg width="48px" height="48px" viewBox="0 0 48 48" version="1.1" xmlns="http://www.w3.org/2000/svg" xmlns:xlink="http://www.w3.org/1999/xlink">
    <!-- Generator: Sketch 59.1 (86144) - https://sketch.com -->
    <title>1768 - EXE</title>
    <desc>Created with Sketch.</desc>
    <g id="File-type-Icon-Set" stroke="none" stroke-width="1" fill="none" fill-rule="evenodd">
        <g id="1742---WMA" transform="translate(-1.000000, -1.000000)">
            <rect id="Rectangle" x="0" y="0" width="50" height="50"></rect>
            <rect id="Rectangle" x="6.24997559" y="6.24997559" width="37.5" height="37.5"></rect>
            <path d="M31.8161621,6.44527832 L39.8425049,14.4813721 L33.2511475,14.4813721 C32.4618896,14.4813721 31.8161621,13.8356592 31.8161621,13.0464014 L31.8161621,6.44527832 L31.8161621,6.44527832 Z" id="Path" fill="#A5D6A7"></path>
            <path d="M11.1047607,6.44528809 L31.8175293,6.44528809 L31.8175293,13.0064941 C31.8175293,13.8177246 32.4812085,14.4813745 33.2924097,14.4813745 L39.8437769,14.4813745 L39.8437769,34.3750024 C39.8437769,34.9121216 39.404353,35.3515454 38.8672339,35.3515454 L11.1047827,35.3515454 C10.5676636,35.3515454 10.1282397,34.9121216 10.1282397,34.3750024 L10.1282397,7.42187744 C10.1282397,6.8847583 10.5676636,6.44528809 11.1047827,6.44528809 L11.1047607,6.44528809 Z" id="Path" fill="#C8E6C9"></path>
            <path d="M20.865918,24.9719238 L20.865918,15.4584961 C23.6124756,17.0441626 26.3596436,18.6287598 29.1061279,20.2144775 L20.865918,24.9719238 L20.865918,24.9719238 Z" id="Path" fill="#43A047" fill-rule="nonzero"></path>
            <path d="M8.23720703,29.9362793 L41.7628418,29.9362793 C42.3091016,29.9362793 42.8061694,30.1617156 43.1669019,30.5248413 C43.5267114,30.8870435 43.7500708,31.3851489 43.7500708,31.9315527 L43.7500708,41.5593115 C43.7500708,42.1057153 43.5266819,42.6037915 43.1669019,42.9659961 C42.8061401,43.3291211 42.3090747,43.5545874 41.7628418,43.5545874 L8.23720703,43.5545874 C7.69100342,43.5545874 7.19387939,43.3291223 6.83311768,42.9659961 C6.4733374,42.6038501 6.24997559,42.1057739 6.24997559,41.5593115 L6.24997559,31.9315527 C6.24997559,31.3851196 6.47333569,30.8870435 6.83311768,30.5248413 C7.1938208,30.1617163 7.69094482,29.9362793 8.23720703,29.9362793 Z" id="Path" fill="#43A047"></path>
            <path d="M11.8988037,41.114502 L9.81344727,32.3762939 L11.6180322,32.3762939 L12.9363916,38.3781006 L14.5334766,32.3762939 L16.6310596,32.3762939 L18.1630347,38.479834 L19.5038013,32.3762939 L21.2798975,32.3762939 L19.1579199,41.114502 L17.2861768,41.114502 L15.5466724,34.5816895 L13.8112354,41.114502 L11.8988062,41.114502 L11.8988037,41.114502 Z M22.1567871,41.114502 L22.1567871,32.3762939 L24.797583,32.3762939 L26.3824707,38.3374023 L27.9490479,32.3762939 L30.5959229,32.3762939 L30.5959229,41.114502 L28.9581519,41.114502 L28.9581519,34.2358398 L27.2227148,41.114502 L25.5238989,41.114502 L23.7945752,34.2358398 L23.7945752,41.114502 L22.1567871,41.114502 L22.1567871,41.114502 Z M40.2292725,41.114502 L38.3087109,41.114502 L37.5457813,39.1288306 L34.0525195,39.1288306 L33.3322949,41.114502 L31.4605518,41.114502 L34.8642627,32.3762939 L36.7299219,32.3762939 L40.2292725,41.114502 L40.2292725,41.114502 Z M36.9801758,37.6578613 L35.7757446,34.4148682 L34.5957373,37.6578613 L36.9801758,37.6578613 Z" id="Shape" fill="#FFFFFF" fill-rule="nonzero"></path>
        </g>
    </g>
</svg>