<?xml version="1.0" encoding="UTF-8"?>
<svg width="48px" height="48px" viewBox="0 0 48 48" version="1.1" xmlns="http://www.w3.org/2000/svg" xmlns:xlink="http://www.w3.org/1999/xlink">
    <!-- Generator: Sketch 59.1 (86144) - https://sketch.com -->
    <title>1768 - EXE</title>
    <desc>Created with Sketch.</desc>
    <g id="File-type-Icon-Set" stroke="none" stroke-width="1" fill="none" fill-rule="evenodd">
        <g id="1732---XLS" transform="translate(-1.000000, -1.000000)">
            <rect id="Rectangle" x="0" y="0" width="50" height="50"></rect>
            <rect id="Rectangle" x="6.24997559" y="6.24997559" width="37.5" height="37.5"></rect>
            <path d="M31.8161621,6.24996582 L39.8425049,14.2860596 L33.2511475,14.2860596 C32.4618896,14.2860596 31.8161621,13.6403467 31.8161621,12.8510889 L31.8161621,6.24996582 L31.8161621,6.24996582 Z" id="Path" fill="#FFB74D"></path>
            <path d="M11.1047607,6.24997559 L31.8175293,6.24997559 L31.8175293,12.8111816 C31.8175293,13.6224121 32.4812085,14.286062 33.2924097,14.286062 L39.8437769,14.286062 L39.8437769,34.1796899 C39.8437769,34.7168091 39.404353,35.1562329 38.8672339,35.1562329 L11.1047827,35.1562329 C10.5676636,35.1562329 10.1282397,34.7168091 10.1282397,34.1796899 L10.1282397,7.22656494 C10.1282397,6.6894458 10.5676636,6.24997559 11.1047827,6.24997559 L11.1047607,6.24997559 Z" id="Path" fill="#FFCC80"></path>
            <polygon id="Path" fill="#EF6C00" fill-rule="nonzero" points="16.4062256 18.4409912 34.375 18.4409912 34.375 20.0035156 16.4062256 20.0035156"></polygon>
            <polygon id="Path" fill="#EF6C00" fill-rule="nonzero" points="16.4062256 23.9096191 34.375 23.9096191 34.375 25.472168 16.4062256 25.472168"></polygon>
            <path d="M8.23720703,29.7409668 L41.7628418,29.7409668 C42.3091016,29.7409668 42.8061694,29.9664031 43.1669019,30.3295288 C43.5267114,30.691731 43.7500708,31.1898364 43.7500708,31.7362402 L43.7500708,41.363999 C43.7500708,41.9104028 43.5266819,42.408479 43.1669019,42.7706836 C42.8061401,43.1338086 42.3090747,43.3592749 41.7628418,43.3592749 L8.23720703,43.3592749 C7.69100342,43.3592749 7.19387939,43.1338098 6.83311768,42.7706836 C6.4733374,42.4085376 6.24997559,41.9104614 6.24997559,41.363999 L6.24997559,31.7362402 C6.24997559,31.1898071 6.47333569,30.691731 6.83311768,30.3295288 C7.1938208,29.9664038 7.69094482,29.7409668 8.23720703,29.7409668 Z" id="Path" fill="#EF6C00"></path>
            <path d="M13.4277344,40.9194336 L16.4143799,36.3601074 L13.7085205,32.1812256 L15.7694531,32.1812256 L17.5232007,34.9888428 L19.2383081,32.1812256 L21.2829785,32.1812256 L18.5648877,36.4252197 L21.5515332,40.9194336 L19.4234424,40.9194336 L17.4865894,37.8981934 L15.5436523,40.9194336 L13.4277344,40.9194336 L13.4277344,40.9194336 Z M22.5057129,40.919436 L22.5057129,32.2524658 L24.2696118,32.2524658 L24.2696118,39.44646 L28.6560132,39.44646 L28.6560132,40.919436 L22.5057129,40.919436 L22.5057129,40.919436 Z M29.4677878,38.0772217 L31.184895,37.9083608 C31.2866267,38.486166 31.4961743,38.9093276 31.8135669,39.1799209 C32.1289111,39.4484658 32.5541211,39.5848013 33.0912402,39.5848013 C33.6588672,39.5848013 34.0881421,39.464759 34.3749976,39.2226553 C34.6639014,38.9825706 34.8083667,38.7018276 34.8083667,38.3803701 C34.8083667,38.1728408 34.7473218,37.9978677 34.625261,37.8534292 C34.5052187,37.7069448 34.2936228,37.58079 33.9904758,37.475021 C33.7849939,37.4017788 33.3129856,37.2756233 32.5785447,37.0925186 C31.6325095,36.8585471 30.9692625,36.569645 30.5888059,36.2278555 C30.0516868,35.7477139 29.7831418,35.1617764 29.7831418,34.4700405 C29.7831418,34.0244741 29.9092686,33.6094448 30.16155,33.220856 C30.4138328,32.8342861 30.7779954,32.5392983 31.252053,32.3358364 C31.7281272,32.1344202 32.2998215,32.0327163 32.9711985,32.0327163 C34.0698313,32.0327163 34.8938083,32.272772 35.4492258,32.7529116 C36.0026096,33.2350991 36.29353,33.8759683 36.3220188,34.6795864 L34.558093,34.7568945 C34.4828323,34.30729 34.3200557,33.9837842 34.0718674,33.7884814 C33.8236521,33.5911311 33.4513279,33.4934644 32.9549241,33.4934644 C32.4422288,33.4934644 32.0393967,33.5972434 31.7504929,33.8088379 C31.5633215,33.9430962 31.4697214,34.1241821 31.4697214,34.3499951 C31.4697214,34.5575244 31.5572085,34.7345166 31.7321824,34.881001 C31.9539275,35.0681724 32.4951121,35.2635034 33.3536912,35.4649194 C34.212241,35.668354 34.8469968,35.8779028 35.2579612,36.093562 C35.6689548,36.3112703 35.9903831,36.6062573 36.2243552,36.9826489 C36.4563081,37.3590381 36.5722556,37.822915 36.5722556,38.3742505 C36.5722556,38.8747485 36.4339316,39.3447095 36.155178,39.7800977 C35.8764548,40.2175049 35.483801,40.5430273 34.9751707,40.754624 C34.4665403,40.9682375 33.8317844,41.0740356 33.0729197,41.0740356 C31.9681736,41.0740356 31.119802,40.8197363 30.5277537,40.3090576 C29.9357029,39.7984082 29.5817185,39.0537891 29.4677878,38.0772168 L29.4677878,38.0772217 Z" id="Shape" fill="#FFFFFF" fill-rule="nonzero"></path>
        </g>
    </g>
</svg>