<?xml version="1.0" encoding="UTF-8"?>
<svg width="48px" height="48px" viewBox="0 0 48 48" version="1.1" xmlns="http://www.w3.org/2000/svg" xmlns:xlink="http://www.w3.org/1999/xlink">
    <!-- Generator: Sketch 59.1 (86144) - https://sketch.com -->
    <title>1768 - EXE</title>
    <desc>Created with Sketch.</desc>
    <g id="File-type-Icon-Set" stroke="none" stroke-width="1" fill="none" fill-rule="evenodd">
        <g id="1731---XLSX" transform="translate(-1.000000, -1.000000)">
            <rect id="_297979984" x="0" y="0" width="50" height="50"></rect>
            <rect id="_297979864" x="6.24997559" y="6.24997559" width="37.5" height="37.5"></rect>
            <path d="M31.8161621,6.24996582 L39.8425049,14.2860596 L33.2511475,14.2860596 C32.4618896,14.2860596 31.8161621,13.6403467 31.8161621,12.8510889 L31.8161621,6.24996582 L31.8161621,6.24996582 Z" id="_297979696" fill="#80CBC4"></path>
            <path d="M11.1047607,6.24997559 L31.8175293,6.24997559 L31.8175293,12.8111816 C31.8175293,13.6224121 32.4812085,14.286062 33.2924097,14.286062 L39.8437769,14.286062 L39.8437769,34.1796899 C39.8437769,34.7168091 39.404353,35.1562329 38.8672339,35.1562329 L11.1047827,35.1562329 C10.5676636,35.1562329 10.1282397,34.7168091 10.1282397,34.1796899 L10.1282397,7.22656494 C10.1282397,6.6894458 10.5676636,6.24997559 11.1047827,6.24997559 L11.1047607,6.24997559 Z" id="_297979528" fill="#B2DFDB"></path>
            <polygon id="_297979312" fill="#00897B" fill-rule="nonzero" points="16.4062256 18.4409912 34.375 18.4409912 34.375 20.0035156 16.4062256 20.0035156"></polygon>
            <polygon id="_297979384" fill="#00897B" fill-rule="nonzero" points="16.4062256 23.9096191 34.375 23.9096191 34.375 25.472168 16.4062256 25.472168"></polygon>
            <path d="M8.23720703,29.7409668 L41.7628418,29.7409668 C42.3091016,29.7409668 42.8061694,29.9664031 43.1669019,30.3295288 C43.5267114,30.691731 43.7500708,31.1898364 43.7500708,31.7362402 L43.7500708,41.363999 C43.7500708,41.9104028 43.5266819,42.408479 43.1669019,42.7706836 C42.8061401,43.1338086 42.3090747,43.3592749 41.7628418,43.3592749 L8.23720703,43.3592749 C7.69100342,43.3592749 7.19387939,43.1338098 6.83311768,42.7706836 C6.4733374,42.4085376 6.24997559,41.9104614 6.24997559,41.363999 L6.24997559,31.7362402 C6.24997559,31.1898071 6.47333569,30.691731 6.83311768,30.3295288 C7.1938208,29.9664038 7.69094482,29.7409668 8.23720703,29.7409668 Z" id="_297979216" fill="#00897B"></path>
            <path d="M9.06779785,40.9194336 L12.0544434,36.3601074 L9.34858398,32.1812256 L11.4095166,32.1812256 L13.1632642,34.9888428 L14.8783716,32.1812256 L16.923042,32.1812256 L14.2049512,36.4252197 L17.1915967,40.9194336 L15.0635059,40.9194336 L13.1266528,37.8981934 L11.1837158,40.9194336 L9.06779785,40.9194336 L9.06779785,40.9194336 Z M18.1457764,40.919436 L18.1457764,32.2524658 L19.9096753,32.2524658 L19.9096753,39.44646 L24.2960767,39.44646 L24.2960767,40.919436 L18.1457764,40.919436 L18.1457764,40.919436 Z M25.1078513,38.0772217 L26.8249585,37.9083608 C26.9266902,38.486166 27.1362378,38.9093276 27.4536304,39.1799209 C27.7689746,39.4484658 28.1941846,39.5848013 28.7313037,39.5848013 C29.2989307,39.5848013 29.7282056,39.464759 30.015061,39.2226553 C30.3039648,38.9825706 30.4484302,38.7018276 30.4484302,38.3803701 C30.4484302,38.1728408 30.3873853,37.9978677 30.2653245,37.8534292 C30.1452822,37.7069448 29.9336863,37.58079 29.6305393,37.475021 C29.4250574,37.4017788 28.9530491,37.2756233 28.2186082,37.0925186 C27.272573,36.8585471 26.6093259,36.569645 26.2288694,36.2278555 C25.6917502,35.7477139 25.4232053,35.1617764 25.4232053,34.4700405 C25.4232053,34.0244741 25.549332,33.6094448 25.8016135,33.220856 C26.0538962,32.8342861 26.4180588,32.5392983 26.8921165,32.3358364 C27.3681907,32.1344202 27.939885,32.0327163 28.611262,32.0327163 C29.7098948,32.0327163 30.5338718,32.272772 31.0892893,32.7529116 C31.6426731,33.2350991 31.9335935,33.8759683 31.9620823,34.6795864 L30.1981565,34.7568945 C30.1228958,34.30729 29.9601191,33.9837842 29.7119309,33.7884814 C29.4637156,33.5911311 29.0913914,33.4934644 28.5949875,33.4934644 C28.0822922,33.4934644 27.6794602,33.5972434 27.3905564,33.8088379 C27.203385,33.9430962 27.1097849,34.1241821 27.1097849,34.3499951 C27.1097849,34.5575244 27.197272,34.7345166 27.3722458,34.881001 C27.593991,35.0681724 28.1351755,35.2635034 28.9937546,35.4649194 C29.8523044,35.668354 30.4870603,35.8779028 30.8980247,36.093562 C31.3090183,36.3112703 31.6304465,36.6062573 31.8644187,36.9826489 C32.0963716,37.3590381 32.2123191,37.822915 32.2123191,38.3742505 C32.2123191,38.8747485 32.0739951,39.3447095 31.7952415,39.7800977 C31.5165183,40.2175049 31.1238645,40.5430273 30.6152341,40.754624 C30.1066038,40.9682375 29.4718479,41.0740356 28.7129832,41.0740356 C27.6082371,41.0740356 26.7598655,40.8197363 26.1678171,40.3090576 C25.5757664,39.7984082 25.221782,39.0537891 25.1078513,38.0772168 L25.1078513,38.0772217 Z M32.8084473,40.9194336 L35.7950928,36.3601074 L33.0892334,32.1812256 L35.150166,32.1812256 L36.9039136,34.9888428 L38.619021,32.1812256 L40.6636914,32.1812256 L37.9456006,36.4252197 L40.9322461,40.9194336 L38.8041553,40.9194336 L36.8673022,37.8981934 L34.9243652,40.9194336 L32.8084473,40.9194336 L32.8084473,40.9194336 Z" id="_187846152" fill="#FFFFFF" fill-rule="nonzero"></path>
        </g>
    </g>
</svg>