<?xml version="1.0" encoding="UTF-8"?>
<svg width="48px" height="48px" viewBox="0 0 48 48" version="1.1" xmlns="http://www.w3.org/2000/svg" xmlns:xlink="http://www.w3.org/1999/xlink">
    <!-- Generator: Sketch 59.1 (86144) - https://sketch.com -->
    <title>1768 - EXE</title>
    <desc>Created with Sketch.</desc>
    <g id="File-type-Icon-Set" stroke="none" stroke-width="1" fill="none" fill-rule="evenodd">
        <g id="1760---ZIP" transform="translate(-1.000000, -1.000000)">
            <rect id="Rectangle" x="0" y="0" width="50" height="50"></rect>
            <rect id="Rectangle" x="6.24997559" y="6.24997559" width="37.5" height="37.5"></rect>
            <path d="M31.8161621,6.44527832 L39.8425049,14.4813721 L33.2511475,14.4813721 C32.4618896,14.4813721 31.8161621,13.8356592 31.8161621,13.0464014 L31.8161621,6.44527832 L31.8161621,6.44527832 Z" id="Path" fill="#FFA726"></path>
            <path d="M11.1047607,6.44528809 L31.8175293,6.44528809 L31.8175293,13.0064941 C31.8175293,13.8177246 32.4812085,14.4813745 33.2924097,14.4813745 L39.8437769,14.4813745 L39.8437769,34.3750024 C39.8437769,34.9121216 39.404353,35.3515454 38.8672339,35.3515454 L11.1047827,35.3515454 C10.5676636,35.3515454 10.1282397,34.9121216 10.1282397,34.3750024 L10.1282397,7.42187744 C10.1282397,6.8847583 10.5676636,6.44528809 11.1047827,6.44528809 L11.1047607,6.44528809 Z" id="Path" fill="#FFCC80"></path>
            <polygon id="Path" fill="#F57C00" fill-rule="nonzero" points="16.4062256 18.6362793 34.375 18.6362793 34.375 20.1988281 16.4062256 20.1988281"></polygon>
            <polygon id="Path" fill="#F57C00" fill-rule="nonzero" points="16.4062256 24.1049072 34.375 24.1049072 34.375 25.6674805 16.4062256 25.6674805"></polygon>
            <path d="M8.23720703,29.9362793 L41.7628418,29.9362793 C42.3091016,29.9362793 42.8061694,30.1617156 43.1669019,30.5248413 C43.5267114,30.8870435 43.7500708,31.3851489 43.7500708,31.9315527 L43.7500708,41.5593115 C43.7500708,42.1057153 43.5266819,42.6037915 43.1669019,42.9659961 C42.8061401,43.3291211 42.3090747,43.5545874 41.7628418,43.5545874 L8.23720703,43.5545874 C7.69100342,43.5545874 7.19387939,43.3291223 6.83311768,42.9659961 C6.4733374,42.6038501 6.24997559,42.1057739 6.24997559,41.5593115 L6.24997559,31.9315527 C6.24997559,31.3851196 6.47333569,30.8870435 6.83311768,30.5248413 C7.1938208,30.1617163 7.69094482,29.9362793 8.23720703,29.9362793 Z" id="Path" fill="#F57C00"></path>
            <path d="M15.9149414,41.114502 L15.9149414,39.5235303 L20.5047852,33.8553906 L16.4337158,33.8553906 L16.4337158,32.3763013 L22.8302246,32.3763013 L22.8302246,33.7475757 L18.043042,39.641521 L23.0153564,39.641521 L23.0153564,41.114502 L15.9149414,41.114502 L15.9149414,41.114502 Z M24.0753418,41.114502 L24.0753418,32.3762939 L25.8392407,32.3762939 L25.8392407,41.114502 L24.0753418,41.114502 Z M27.5218018,41.114502 L27.5218018,32.3762939 L30.3517822,32.3762939 C31.4239746,32.3762939 32.1238403,32.4210466 32.4493652,32.5085337 C32.9498633,32.6387549 33.3710059,32.9235923 33.708728,33.3630454 C34.0464502,33.8024985 34.2153101,34.3701255 34.2153101,35.0638804 C34.2153101,35.6009995 34.1176729,36.0526499 33.9223413,36.4168149 C33.7270383,36.7830259 33.4808691,37.0699106 33.1797681,37.279459 C32.880686,37.4869883 32.57552,37.6253135 32.2662573,37.6924692 C31.8451147,37.7758616 31.2347827,37.8185959 30.4352002,37.8185959 L29.2857007,37.8185959 L29.2857007,41.114502 L27.5218018,41.114502 L27.5218018,41.114502 Z M29.2857007,33.8553833 L29.2857007,36.3334229 L30.2500757,36.3334229 C30.9458765,36.3334229 31.4117725,36.2886414 31.6457446,36.1970884 C31.8797161,36.1055356 32.0628223,35.9631169 32.1970801,35.7678135 C32.3293198,35.5725105 32.3964778,35.3466709 32.3964778,35.0883042 C32.3964778,34.7709116 32.3028777,34.5084507 32.1157063,34.3009507 C31.9305823,34.0954687 31.6925447,33.9652476 31.4077083,33.9143809 C31.196113,33.8736938 30.7729231,33.8553833 30.1381672,33.8553833 L29.2857007,33.8553833 L29.2857007,33.8553833 Z" id="Shape" fill="#FFFFFF" fill-rule="nonzero"></path>
        </g>
    </g>
</svg>