<?xml version="1.0" encoding="UTF-8"?>
<svg width="391px" height="391px" viewBox="0 0 391 391" version="1.1" xmlns="http://www.w3.org/2000/svg" xmlns:xlink="http://www.w3.org/1999/xlink">
    <!-- Generator: Sketch 59.1 (86144) - https://sketch.com -->
    <title>Group 4</title>
    <desc>Created with Sketch.</desc>
    <defs>
        <circle id="path-1" cx="195.5" cy="195.5" r="195.5"></circle>
        <rect id="path-3" x="0" y="0" width="108" height="267"></rect>
        <filter x="-25.9%" y="-10.5%" width="159.3%" height="124.0%" filterUnits="objectBoundingBox" id="filter-4">
            <feOffset dx="4" dy="4" in="SourceAlpha" result="shadowOffsetOuter1"></feOffset>
            <feGaussianBlur stdDeviation="10" in="shadowOffsetOuter1" result="shadowBlurOuter1"></feGaussianBlur>
            <feComposite in="shadowBlurOuter1" in2="SourceAlpha" operator="out" result="shadowBlurOuter1"></feComposite>
            <feColorMatrix values="0 0 0 0 0   0 0 0 0 0   0 0 0 0 0  0 0 0 0.1 0" type="matrix" in="shadowBlurOuter1"></feColorMatrix>
        </filter>
        <rect id="path-5" x="113" y="0" width="214" height="267"></rect>
        <filter x="-13.1%" y="-10.5%" width="129.9%" height="124.0%" filterUnits="objectBoundingBox" id="filter-6">
            <feOffset dx="4" dy="4" in="SourceAlpha" result="shadowOffsetOuter1"></feOffset>
            <feGaussianBlur stdDeviation="10" in="shadowOffsetOuter1" result="shadowBlurOuter1"></feGaussianBlur>
            <feComposite in="shadowBlurOuter1" in2="SourceAlpha" operator="out" result="shadowBlurOuter1"></feComposite>
            <feColorMatrix values="0 0 0 0 0   0 0 0 0 0   0 0 0 0 0  0 0 0 0.1 0" type="matrix" in="shadowBlurOuter1"></feColorMatrix>
        </filter>
    </defs>
    <g id="Reporting" stroke="none" stroke-width="1" fill="none" fill-rule="evenodd">
        <g id="Group-4">
            <mask id="mask-2" fill="white">
                <use xlink:href="#path-1"></use>
            </mask>
            <use id="Mask" fill="#DADEF4" opacity="0.5" xlink:href="#path-1"></use>
            <g id="Group-3" mask="url(#mask-2)">
                <g transform="translate(33.000000, 125.000000)">
                    <g id="Rectangle-Copy-3" stroke="none" fill="none">
                        <use fill="black" fill-opacity="1" filter="url(#filter-4)" xlink:href="#path-3"></use>
                        <rect stroke-opacity="0.1" stroke="#979797" stroke-width="1" stroke-linejoin="square" fill="#FFFFFF" fill-rule="evenodd" x="0.5" y="0.5" width="107" height="266"></rect>
                    </g>
                    <g id="Rectangle-Copy-16" stroke="none" fill="none">
                        <use fill="black" fill-opacity="1" filter="url(#filter-6)" xlink:href="#path-5"></use>
                        <rect stroke-opacity="0.1" stroke="#979797" stroke-width="1" stroke-linejoin="square" fill="#FFFFFF" fill-rule="evenodd" x="113.5" y="0.5" width="213" height="266"></rect>
                    </g>
                    <line x1="0.445504087" y1="42" x2="108.5" y2="41.5" id="Line-2" stroke="#E8E9EA" stroke-width="1" fill="none" stroke-linecap="square"></line>
                    <line x1="128.5" y1="236.5" x2="312.5" y2="236.5" id="Line-2" stroke="#E8E9EA" stroke-width="1" fill="none" stroke-linecap="square"></line>
                    <line x1="138.5" y1="135.5" x2="138.5" y2="236.5" id="Line-2-Copy" stroke="#E8E9EA" stroke-width="1" fill="none" stroke-linecap="square"></line>
                    <rect id="Rectangle" stroke="none" fill="#485CC7" fill-rule="evenodd" x="17" y="40" width="20" height="2"></rect>
                    <rect id="Rectangle" stroke="none" fill="#E6E6E6" fill-rule="evenodd" x="15" y="112" width="78" height="14" rx="7"></rect>
                    <rect id="Rectangle-Copy-14" stroke="none" fill="#E6E6E6" fill-rule="evenodd" x="15" y="54" width="78" height="14" rx="7"></rect>
                    <rect id="Rectangle-Copy-15" stroke="none" fill="#E6E6E6" fill-rule="evenodd" x="15" y="15" width="78" height="14" rx="7"></rect>
                    <rect id="Rectangle-Copy-17" stroke="none" fill="#E6E6E6" fill-rule="evenodd" x="128" y="19" width="78" height="14" rx="7"></rect>
                    <rect id="Rectangle-Copy-18" stroke="none" fill="#E6E6E6" fill-rule="evenodd" x="128" y="38" width="132" height="7" rx="3.5"></rect>
                    <rect id="Rectangle-Copy-20" stroke="none" fill="#E6E6E6" fill-rule="evenodd" x="133" y="59" width="55" height="7" rx="3.5"></rect>
                    <rect id="Rectangle-Copy-26" stroke="none" fill="#E6E6E6" fill-rule="evenodd" x="133" y="83" width="55" height="7" rx="3.5"></rect>
                    <rect id="Rectangle-Copy-23" stroke="none" fill="#E6E6E6" fill-rule="evenodd" x="133" y="71" width="55" height="7" rx="3.5"></rect>
                    <rect id="Rectangle-Copy-27" stroke="none" fill="#E6E6E6" fill-rule="evenodd" x="133" y="95" width="55" height="7" rx="3.5"></rect>
                    <rect id="Rectangle-Copy-32" stroke="none" fill="#E6E6E6" fill-rule="evenodd" x="133" y="107" width="55" height="7" rx="3.5"></rect>
                    <rect id="Rectangle-Copy-21" stroke="none" fill="#E6E6E6" fill-rule="evenodd" x="193" y="59" width="54" height="7" rx="3.5"></rect>
                    <rect id="Rectangle-Copy-28" stroke="none" fill="#E6E6E6" fill-rule="evenodd" x="193" y="83" width="54" height="7" rx="3.5"></rect>
                    <rect id="Rectangle-Copy-24" stroke="none" fill="#E6E6E6" fill-rule="evenodd" x="193" y="71" width="54" height="7" rx="3.5"></rect>
                    <rect id="Rectangle-Copy-29" stroke="none" fill="#E6E6E6" fill-rule="evenodd" x="193" y="95" width="54" height="7" rx="3.5"></rect>
                    <rect id="Rectangle-Copy-33" stroke="none" fill="#E6E6E6" fill-rule="evenodd" x="193" y="107" width="54" height="7" rx="3.5"></rect>
                    <rect id="Rectangle-Copy-22" stroke="none" fill="#E6E6E6" fill-rule="evenodd" x="252" y="59" width="55" height="7" rx="3.5"></rect>
                    <rect id="Rectangle-Copy-30" stroke="none" fill="#E6E6E6" fill-rule="evenodd" x="252" y="83" width="55" height="7" rx="3.5"></rect>
                    <rect id="Rectangle-Copy-25" stroke="none" fill="#E6E6E6" fill-rule="evenodd" x="252" y="71" width="55" height="7" rx="3.5"></rect>
                    <rect id="Rectangle-Copy-31" stroke="none" fill="#E6E6E6" fill-rule="evenodd" x="252" y="95" width="55" height="7" rx="3.5"></rect>
                    <rect id="Rectangle-Copy-34" stroke="none" fill="#E6E6E6" fill-rule="evenodd" x="252" y="107" width="55" height="7" rx="3.5"></rect>
                    <rect id="Rectangle" stroke="#E6E6E6" stroke-width="1" fill="none" x="15.5" y="73.5" width="77" height="15"></rect>
                    <rect id="Rectangle-Copy" stroke="#E6E6E6" stroke-width="1" fill="none" x="15.5" y="132.5" width="77" height="15"></rect>
                    <rect id="Rectangle-Copy-7" stroke="#E6E6E6" stroke-width="1" fill="none" x="128.5" y="54.5" width="183" height="64"></rect>
                    <rect id="Rectangle-Copy-2" stroke="#E6E6E6" stroke-width="1" fill="none" x="15.5" y="153.5" width="77" height="15"></rect>
                    <rect id="Rectangle-Copy-4" stroke="#E6E6E6" stroke-width="1" fill="none" x="15.5" y="174.5" width="77" height="15"></rect>
                    <rect id="Rectangle-Copy-5" stroke="none" fill="#D8D8D8" fill-rule="evenodd" x="15" y="215" width="78" height="16"></rect>
                    <rect id="Rectangle-Copy-6" stroke="none" fill="#EAECF8" fill-rule="evenodd" x="15" y="236" width="78" height="16"></rect>
                    <g id="Group" stroke="none" stroke-width="1" fill="none" fill-rule="evenodd" transform="translate(149.000000, 136.000000)">
                        <rect id="Rectangle-Copy-8" fill="#EAECF8" transform="translate(8.500000, 50.500000) rotate(-270.000000) translate(-8.500000, -50.500000) " x="-41.5" y="42.5" width="100" height="16"></rect>
                        <rect id="Rectangle-Copy-9" fill="#EAECF8" transform="translate(30.000000, 67.000000) rotate(-270.000000) translate(-30.000000, -67.000000) " x="-3" y="59" width="66" height="16"></rect>
                        <rect id="Rectangle-Copy-10" fill="#EAECF8" transform="translate(51.000000, 58.000000) rotate(-270.000000) translate(-51.000000, -58.000000) " x="9" y="50" width="84" height="16"></rect>
                        <rect id="Rectangle-Copy-13" fill="#EAECF8" transform="translate(114.000000, 58.000000) rotate(-270.000000) translate(-114.000000, -58.000000) " x="72" y="50" width="84" height="16"></rect>
                        <rect id="Rectangle-Copy-11" fill="#EAECF8" transform="translate(72.000000, 86.000000) rotate(-270.000000) translate(-72.000000, -86.000000) " x="58" y="78" width="28" height="16"></rect>
                        <rect id="Rectangle-Copy-19" fill="#EAECF8" transform="translate(135.000000, 93.000000) rotate(-270.000000) translate(-135.000000, -93.000000) " x="128" y="85" width="14" height="16"></rect>
                        <rect id="Rectangle-Copy-12" fill="#EAECF8" transform="translate(93.000000, 77.500000) rotate(-270.000000) translate(-93.000000, -77.500000) " x="70.5" y="69.5" width="45" height="16"></rect>
                    </g>
                </g>
            </g>
        </g>
    </g>
</svg>